<svg height="512pt" viewBox="-21 0 511 512" width="512pt" xmlns="http://www.w3.org/2000/svg"><path d="m215.296875 256.964844h-33.035156c-21.882813-21.886719-34.152344-34.15625-56.039063-56.039063v-74.738281c0-49.285156 39.953125-89.238281 89.238282-89.238281zm0 0" fill="#ffdaaa"/><path d="m215.296875 256.964844h-33.035156l-25.359375-25.359375v56.578125h-107.195313c-16.289062 16.289062-25.421875 25.417968-41.707031 41.707031v174.609375h207.296875zm0 0" fill="#a4e276"/><path d="m260.195312 152.5625h-44.898437v104.402344h52.851563c6.878906-6.878906 10.734374-10.734375 17.609374-17.609375v-61.230469zm0 0" fill="#fff5cc"/><path d="m333.035156 7.5h-22.75l-29.730468 29.730469 44.929687 44.929687 29.730469-29.730468v-22.75zm0 0" fill="#fff5cc"/><path d="m215.296875 37.230469v115.332031h44.898437l25.5625 25.5625v56.523438l39.726563-39.726563v-112.761719l-44.929687-44.929687zm0 0" fill="#ee8700"/><path d="m412.738281 266.578125h-83.136719l-22.21875-53.550781-21.625 21.621094v4.707031c-6.875 6.875-10.730468 10.730469-17.609374 17.609375h-52.851563v247.535156h247.167969v-188.191406c-19.417969-19.421875-30.308594-30.308594-49.726563-49.730469zm0 0" fill="#ee8700"/><path d="m355.484375 504.5h-110.1875v-176.195312h56.042969c21.144531 21.144531 33 33 54.144531 54.144531zm0 0" fill="#ff3501"/><path d="m215.296875 256.964844h30v247.535156h-30zm0 0" fill="#ff3501"/><path d="m277.246094 85.601562c9.425781 9.421876 9.425781 24.703126 0 34.125-9.421875 9.425782-24.703125 9.425782-34.125 0zm0 0" fill="#ff3f62"/><path d="m325.484375 504.5h-110.1875v-176.195312h56.042969c21.144531 21.144531 33 33 54.144531 54.144531zm0 0" fill="#fff5cc"/><path d="m67.316406 288.183594 148.113282 148.113281v-179.332031h-33.167969l-25.359375-25.359375v56.578125zm0 0" fill="#fff"/><path d="m215.296875 152.5625h30v104.402344h-30zm0 0" fill="#ffdaaa"/><path d="m235.230469 184.714844h-19.933594v-32.152344h39.222656zm0 0" fill="#787680"/><path d="m156.222656 200.925781v-74.738281c0-38.757812 24.710938-71.746094 59.234375-84.066406l.003907-5.171875c-49.285157 0-89.238282 39.953125-89.238282 89.238281v74.738281c21.882813 21.882813 34.15625 34.152344 56.039063 56.039063h30c-21.882813-21.886719-34.152344-34.15625-56.039063-56.039063zm0 0" fill="#fbb984"/><path d="m79.707031 288.183594h-30c-16.289062 16.289062-25.421875 25.417968-41.707031 41.707031v174.609375h30v-174.609375c16.285156-16.289063 25.417969-25.417969 41.707031-41.707031zm0 0" fill="#64c37d"/><path d="m310.554688 37.230469 26.105468-26.105469-3.625-3.625h-22.75l-29.730468 29.730469 44.929687 44.929687 15-15zm0 0" fill="#ffdaaa"/><path d="m315.757812 204.648438v-26.523438l-25.5625-25.5625h-30l25.5625 25.5625v56.523438zm0 0" fill="#ff3501"/><path d="m215.296875 37.230469h30v115.332031h-30zm0 0" fill="#ff3501"/><path d="m215.296875 328.304688h30v176.195312h-30zm0 0" fill="#ffdaaa"/><path d="m97.316406 288.183594h-30l148.113282 148.113281v-30zm0 0" fill="#d1e7f8"/><path d="m186.902344 256.964844h-4.640625l-25.359375-25.359375v56.578125h30zm0 0" fill="#d1e7f8"/><path d="m415.84375 259.078125h-81.234375l-18.378906-44.292969 16.753906-16.753906v-112.761719l29.730469-29.730469v-28.964843l-26.574219-26.574219h-28.960937l-29.730469 29.730469h-42.152344v15h42.152344c4.292969 4.296875 36.238281 36.242187 40.535156 40.539062v106.546875l-24.726563 24.726563v-41.523438l-29.953124-29.957031h-40.425782l.085938-115.613281h-7.503906c-53.339844 0-96.738282 43.398437-96.738282 96.738281v77.84375l30.679688 30.679688v45.972656h-102.800782l-46.101562 46.101562v185.214844h222.296875c0-.328125.132813-45.804688.132813-262.535156h-.125l.019531-28.9375h24.597656l14.328125 14.328125 10.605469-10.609375-18.722657-18.71875h-30.796874l.007812-13.3125h16.632812l18.660157-31.105469 20.121093 20.121094v55.015625l-13.214843 13.21875h-29.746094v15h35.960937l22-22.003906v-4.703126l11.496094-11.496093 16 38.558593-27.648437 27.652344 10.605469 10.605469 29-29h76.921874l45.332032 45.332031v177.589844h-72.292969v-120.070312h-15v120.070312h-34.6875v-117.65625l-58.539063-58.539062h-39.148437v15h32.9375l49.75 49.753906v111.441406h-82.6875v15h234.667969v-198.800781zm-102.453125-244.078125h16.539063l17.789062 17.789062v16.535157l-22.234375 22.230469-11.855469-11.859376 12.648438-12.648437-10.605469-10.609375-12.652344 12.652344-11.859375-11.859375zm-148.988281 280.683594v-45.972656l14.753906 14.75h28.773438v153.730468l-122.507813-122.507812zm43.394531 201.316406h-120v-120.070312h-15v120.070312h-57.296875v-164.003906l37.3125-37.3125h11.398438l143.585937 143.585937zm.007813-247.535156h-22.4375l-51.644532-51.648438v-71.628906c0-42.539062 32.667969-77.59375 74.230469-81.394531 0 .375-.148437 201.496093-.148437 204.671875zm23.179687-72.25h-8.128906l.011719-17.152344h18.40625zm0 0"/><path d="m282.550781 125.03125c12.332031-12.332031 12.332031-32.402344 0-44.734375l-5.304687-5.304687-44.734375 44.734374 5.304687 5.304688c12.332032 12.332031 32.402344 12.335938 44.734375 0zm-6.566406-27.558594c1.882813 5.769532.539063 12.375-4.039063 16.953125-4.578124 4.578125-11.183593 5.925781-16.953124 4.039063zm0 0"/><g fill="#fff"><path d="m444.964844 485.980469h-15v-81.941407h15zm0-91.941407h-15v-15h15zm0-25h-15v-15h15zm0 0"/><path d="m190.488281 457.316406-54.644531-54.644531 10.605469-10.605469 54.644531 54.644532zm-61.714843-61.714844-10.609376-10.605468 10.609376-10.605469 10.605468 10.605469zm-17.679688-17.679687-10.605469-10.605469 10.605469-10.605468 10.605469 10.605468zm0 0"/><path d="m307.984375 479.5h-15v-36.695312h15zm0-46.695312h-15v-15h15zm0-25h-15v-15h15zm0 0"/></g></svg>