<svg height="512pt" viewBox="0 -37 512 512" width="512pt" xmlns="http://www.w3.org/2000/svg"><path d="m361.863281 296.925781-29.242187-29.242187h-173.214844l-36.039062 22.496094h-76.671876v104.507812h76.671876l145.402343 34.710938 232.90625-99.65625-13.25-26.8125-32.753906-12.101563-93.808594 40.117187zm0 0" fill="#ffe477"/><path d="m455.15625 291.082031-8.296875-16.792969-32.753906-12.097656-60.921875 26.050782 8.679687 8.683593v34.019531zm0 0" fill="#ffb655"/><path d="m46.695312 394.6875h-39.199218v-104.507812h39.199218zm0 0" fill="#57a4ff"/><path d="m332.621094 267.683594 15.804687 15.804687c15.164063-18.3125 24.277344-41.816406 24.277344-67.453125v-97.308594l-24.445313 24.449219c-31.253906-61.84375-81.382812-130.464843-81.382812-130.464843s-34.542969 47.285156-64.160156 98.726562l-41.671875-41.671875v146.269531c0 18.753906 4.878906 36.371094 13.4375 51.644532h158.140625zm0 0" fill="#ff3f62"/><path d="m336.308594 267.683594c4.890625-7.4375 7.738281-16.335938 7.738281-25.902344 0-26.058594-47.1875-72.703125-47.1875-72.703125s-47.183594 46.644531-47.183594 72.703125c0 9.566406 2.847657 18.464844 7.738281 25.902344zm0 0" fill="#c70024"/><path d="m306.320312 267.683594c4.890626-7.4375 7.738282-16.335938 7.738282-25.902344 0-26.058594-47.183594-72.703125-47.183594-72.703125s-47.183594 46.644531-47.183594 72.703125c0 9.566406 2.84375 18.464844 7.734375 25.902344zm0 0" fill="#ffe477"/><path d="m46.695312 290.179688h29.984376v104.507812h-29.984376zm0 0" fill="#ffb655"/><path d="m7.496094 290.179688h19.992187v104.507812h-19.992187zm0 0" fill="#006df0"/><g fill="#c70024"><path d="m232.703125 111.4375c17.339844-30.117188 36.371094-58.8125 49.164063-77.425781-9.058594-13.179688-14.992188-21.300781-14.992188-21.300781s-26.519531 36.300781-53.007812 79.890624zm0 0"/><path d="m372.703125 132.503906v-13.777344l-4.839844 4.84375c1.640625 2.976563 3.257813 5.957032 4.839844 8.933594zm0 0"/><path d="m191.03125 99.753906-29.988281-29.988281v146.269531c0 18.753906 4.878906 36.371094 13.4375 51.644532h29.984375c-8.554688-15.273438-13.433594-32.890626-13.433594-51.644532zm0 0"/><path d="m332.621094 267.683594 15.804687 15.804687c4.070313-4.914062 7.703125-10.203125 10.84375-15.804687zm0 0"/></g><path d="m281.867188 185.285156c-8.324219-9.613281-14.992188-16.207031-14.992188-16.207031s-47.183594 46.644531-47.183594 72.703125c0 9.5625 2.84375 18.464844 7.734375 25.898438h29.988281c-4.890624-7.433594-7.738281-16.335938-7.738281-25.898438 0-16.261719 18.375-40.539062 32.191407-56.496094zm0 0" fill="#ffb655"/><path d="m493.917969 296.929688-38.355469-14.167969-86.105469 36.824219v-25.765626l-33.636719-33.632812h-178.464843l-36.039063 22.496094h-121.316406v119.5h122.582031l146.953125 35.085937 242.464844-103.75zm-454.722657 90.261718h-24.203124v-89.515625h24.203124zm229 34.34375-143.847656-34.34375h-70.0625v-89.515625h61.589844v37.292969h14.992188v-40.574219l30.78125-19.214843h167.964843l24.847657 24.851562v23.417969h-125.785157v14.992187h134.816407l92.476562-39.546875 27.152344 10.03125 8.421875 17.039063zm0 0"/><path d="m376.027344 286.667969 38.375-16.410157 28.152344 10.398438 5.195312-14.0625-33.753906-12.46875-43.863282 18.757812zm0 0"/><path d="m320.800781 250.828125c.5-3 .753907-6.046875.753907-9.046875 0-28.371094-44.351563-73.035156-49.410157-78.035156l-5.269531-5.207032-5.269531 5.207032c-5.058594 5-49.414063 49.664062-49.414063 78.035156 0 3 .253906 6.046875.757813 9.050781l14.789062-2.46875c-.367187-2.1875-.550781-4.402343-.550781-6.582031 0-15.074219 22.523438-43.882812 39.6875-61.984375 17.167969 18.089844 39.6875 46.890625 39.6875 61.984375 0 2.179688-.183594 4.394531-.550781 6.585938zm0 0"/><path d="m173.585938 247.222656c-3.347657-10.019531-5.042969-20.515625-5.042969-31.1875v-128.171875l35.789062 35.792969 4.882813-8.476562c21.769531-37.808594 46.484375-73.726563 57.660156-89.570313 14.234375 20.179687 50.4375 72.953125 74.695312 120.949219l4.671876 9.242187 18.96875-18.972656v79.210937c0 16.855469-4.351563 33.5-12.585938 48.136719l13.066406 7.351563c9.496094-16.875 14.511719-36.0625 14.511719-55.488282v-115.410156l-29.996094 29.996094c-22.296875-42.183594-54.59375-91.28125-83.332031-130.625-26 35.59375-48.574219 70.214844-65.730469 99.261719l-47.597656-47.59375v164.367187c0 12.289063 1.960937 24.382813 5.820313 35.9375zm0 0"/><path d="m352.28125 374.640625-5.898438-13.785156 66.386719-28.40625 5.894531 13.785156zm75.574219-32.335937-5.898438-13.785157 13.785157-5.898437 5.898437 13.785156zm22.972656-9.832032-5.894531-13.785156 13.78125-5.898438 5.898437 13.785157zm0 0" fill="#fff"/><path d="m322.269531 300.167969h-60.8125v-14.992188h60.8125zm-70.808593 0h-14.992188v-14.992188h14.992188zm-24.988282 0h-14.996094v-14.992188h14.996094zm0 0" fill="#fff"/><path d="m319.265625 157.828125c-8.324219-16.472656-18.945313-35.160156-31.566406-55.539063l12.75-7.890624c12.84375 20.746093 23.679687 39.808593 32.199219 56.667968zm-36.832031-63.960937c-2.601563-4.117188-5.304688-8.339844-8.039063-12.550782l12.574219-8.164062c2.769531 4.265625 5.507812 8.539062 8.140625 12.710937zm-13.484375-20.867188c-2.71875-4.121094-5.507813-8.292969-8.289063-12.402344l12.421875-8.398437c2.808594 4.152343 5.628907 8.375 8.378907 12.539062zm0 0" fill="#fff"/><path d="m281.648438 242.925781c-.015626-.082031-1.648438-8.230469-17.046876-27.597656l11.738282-9.332031c17.519531 22.039062 19.871094 32.378906 20.175781 35.027344l-14.894531 1.710937c.003906.03125.007812.09375.027344.191406zm0 0" fill="#fff"/></svg>