<svg height="512pt" viewBox="0 0 511 512" width="512pt" xmlns="http://www.w3.org/2000/svg"><path d="m350.410156 102.097656v79.222656c-23.199218 23.199219-36.203125 36.207032-59.402344 59.40625h-70.386718c-23.199219-23.199218-36.203125-36.207031-59.402344-59.40625v-79.226562c0-52.242188 42.351562-94.59375 94.597656-94.59375 52.242188 0 94.59375 42.351562 94.59375 94.597656zm0 0" fill="#ffdaaa"/><path d="m264.734375 157.441406h-42.175781c-3.28125-3.28125-5.121094-5.117187-8.402344-8.398437v-36.179688h58.980469v36.179688c-3.28125 3.277343-5.121094 5.117187-8.402344 8.398437zm0 0" fill="#fbb984"/><path d="m306.894531 157.441406h42.175781c3.28125-3.28125 5.121094-5.117187 8.402344-8.398437v-36.179688h-58.980468v36.179688c3.28125 3.277343 5.121093 5.117187 8.402343 8.398437zm0 0" fill="#fbb984"/><path d="m317.890625 213.84375c-8.140625 8.136719-16.488281 16.484375-26.882813 26.882812h-70.386718l-26.878906-26.882812v50.589844h124.148437zm0 0" fill="#ffdaaa"/><path d="m431.523438 273.824219h-113.632813v-9.390625h-124.148437v9.390625h-113.636719l-72.105469 72.105469v157.199218h495.628906v-157.199218zm0 0" fill="#ff3f62"/><path d="m381.976562 456.167969c0-53.113281-43.054687-96.167969-96.164062-96.167969-53.113281 0-96.167969 43.054688-96.167969 96.167969 0 17.054687 4.445313 33.070312 12.234375 46.960937h167.863282c7.789062-13.890625 12.234374-29.90625 12.234374-46.960937zm0 0" fill="#c70024"/><path d="m351.976562 456.167969c0-53.113281-43.054687-96.167969-96.164062-96.167969-53.113281 0-96.167969 43.054688-96.167969 96.167969 0 17.054687 4.445313 33.070312 12.234375 46.960937h167.863282c7.789062-13.890625 12.234374-29.90625 12.234374-46.960937zm0 0" fill="#57a4ff"/><path d="m270.8125 361.164062c-4.890625-.765624-9.898438-1.164062-15-1.164062-53.113281 0-96.167969 43.054688-96.167969 96.167969 0 17.054687 4.445313 33.070312 12.234375 46.960937h30c-7.789062-13.890625-12.234375-29.90625-12.234375-46.960937 0-48.011719 35.179688-87.800781 81.167969-95.003907zm0 0" fill="#006df0"/><path d="m38 407.5h104.535156v95.628906h-104.535156zm0 0" fill="#c70024"/><path d="m101.425781 407.5v-32.414062l101.261719-101.261719h-92.582031l-72.105469 72.105469v61.570312zm0 0" fill="#c70024"/><path d="m234.734375 157.441406h-42.175781c-3.28125-3.28125-5.121094-5.117187-8.402344-8.398437v-36.179688h58.980469v36.179688c-3.28125 3.277343-5.121094 5.117187-8.402344 8.398437zm0 0" fill="#fff"/><path d="m276.894531 157.441406h42.175781c3.28125-3.28125 5.121094-5.117187 8.402344-8.398437v-36.179688h-58.980468v36.179688c3.28125 3.277343 5.121093 5.117187 8.402343 8.398437zm0 0" fill="#fff"/><path d="m348.554688 83.363281c-8.691407-43.269531-46.910157-75.863281-92.738282-75.863281-18.242187 0-35.273437 5.160156-49.722656 14.105469v25.996093c0 19.75 16.011719 35.757813 35.757812 35.757813h106.703126zm0 0" fill="#787680"/><path d="m191.21875 181.320312v-79.226562c0-47.136719 34.480469-86.226562 79.597656-93.410156-4.886718-.78125-9.894531-1.183594-15-1.183594-52.246094 0-94.597656 42.351562-94.597656 94.59375v79.226562l59.402344 59.40625h30zm0 0" fill="#fbb984"/><path d="m162.15625 88.71875c1.078125.082031 2.167969.128906 3.265625.128906 22.464844 0 40.671875-18.210937 40.671875-40.671875v-26.570312c-23.335938 14.445312-39.921875 38.757812-43.9375 67.113281zm0 0" fill="#787680"/><path d="m8 407.5h104.535156v95.628906h-104.535156zm0 0" fill="#ffdaaa"/><path d="m71.425781 407.5v-32.414062l101.261719-101.261719h-92.582031l-72.105469 72.105469v61.570312zm0 0" fill="#bddbff"/><path d="m503.628906 503.128906h-104.535156v-95.625h104.535156zm0 0" fill="#ffdaaa"/><path d="m440.203125 407.5v-32.414062l-101.261719-101.261719h92.582032l72.105468 72.105469v61.570312zm0 0" fill="#bddbff"/><path d="m220.621094 240.726562-26.878906-26.882812v50.589844h30v-23.707032zm0 0" fill="#fbb984"/><path d="m214.15625 112.863281h-30v36.175781l8.402344 8.402344h30l-8.402344-8.402344zm0 0" fill="#d1e7f8"/><path d="m298.492188 149.039062v-36.175781h-30v36.175781c3.28125 3.28125 5.121093 5.121094 8.402343 8.402344h30c-3.28125-3.28125-5.121093-5.121094-8.402343-8.402344zm0 0" fill="#d1e7f8"/><path d="m236.09375 47.605469v-26c10.40625-6.441407 22.148438-10.917969 34.722656-12.921875-4.886718-.777344-9.894531-1.183594-15-1.183594-18.242187 0-35.273437 5.160156-49.722656 14.105469v25.996093c0 19.75 16.011719 35.757813 35.757812 35.757813h30c-19.746093.003906-35.757812-16.007813-35.757812-35.753906zm0 0" fill="#57565c"/><path d="m206.09375 38.160156v-16.554687c-23.335938 14.445312-39.921875 38.757812-43.9375 67.113281 1.078125.082031 2.167969.128906 3.265625.128906 6.203125 0 12.082031-1.390625 17.34375-3.875 3.265625-17.859375 11.546875-33.96875 23.328125-46.8125zm0 0" fill="#57565c"/><path d="m8 407.5h30v95.628906h-30zm0 0" fill="#fbb984"/><path d="m110.105469 273.824219h-30l-72.105469 72.105469v61.570312h30v-61.570312zm0 0" fill="#57a4ff"/><path d="m399.097656 407.5h30v95.628906h-30zm0 0" fill="#fbb984"/><path d="m368.941406 273.824219h-30l101.261719 101.261719v32.414062h30v-32.414062zm0 0" fill="#57a4ff"/><path d="m304.253906 63.144531c-11.925781-14.753906-29.578125-23.214843-48.4375-23.214843v-15c23.410156 0 45.320313 10.492187 60.101563 28.785156zm0 0" fill="#fff"/><path d="m511.128906 342.824219-76.5-76.5h-109.238281v-49.375l32.519531-32.519531v-82.335938c0-56.292969-45.800781-102.09375-102.09375-102.09375-56.296875 0-102.097656 45.800781-102.097656 102.097656v82.332032l32.523438 32.519531v49.375h-109.242188l-76.5 76.5v169.175781h510.628906c0-4.359375 0-164.570312 0-169.175781zm-168.21875-240.726563v17.578125h-7.9375v-14.3125h-73.980468v14.3125h-10.355469v-14.3125h-73.980469v14.3125h-7.9375c0-19.128906-.058594-19.667969.195312-23.453125 16.074219-1.160156 29.988282-10.238281 37.851563-23.34375 7.863281 10.886719 20.660156 17.984375 35.085937 17.984375h86.703126v-15h-86.703126c-15.582031 0-28.257812-12.679687-28.257812-28.257812v-21.671875c12.515625-6.964844 26.914062-10.933594 42.222656-10.933594 48.023438 0 87.09375 39.070312 87.09375 87.097656zm-22.9375 18.265625v25.570313l-4.007812 4.007812h-35.964844l-4.007812-4.007812v-25.570313zm-84.335937 0v25.570313l-4.007813 4.007812h-35.964844l-4.007812-4.007812v-25.570313zm-37.042969-83.878906v11.6875c0 16.269531-11.773438 29.84375-27.246094 32.644531 4.398438-17.457031 14.085938-32.839844 27.246094-44.332031zm-29.875 98.191406h7.9375v17.472657l12.792969 12.792968h48.390625l12.796875-12.792968v-17.472657h10.355469v17.472657l12.796874 12.792968h48.390626l12.792968-12.792968v-17.472657h7.9375v43.539063l-55.007812 55.011718h-64.171875l-55.011719-55.011718zm32.523438 97.273438 16.273437 16.277343h76.597656l16.277344-16.277343v24.984375h-109.148437zm-185.742188 183.050781h89.535156v11.5625h-39.335937v15h39.335937v19.53125h-39.335937v15h39.335937v20.90625h-89.535156zm240.3125 73.589844 8.40625 8.410156h-16.816406zm150.785156 8.410156v-20.902344h39.335938v-15h-39.335938v-19.535156h39.335938v-15h-39.335938v-11.558594h89.53125v81.996094zm70.554688-97v-35.050781h-15v35.050781h-55.554688v-32.101562h-15v129.101562h-106.164062l-22.121094-22.121094v-92.375h-15v92.375l-22.121094 22.121094h-106.15625v-129.101562h-15v32.105468h-55.558594v-31.949218l36.023438-36.023438-10.605469-10.605469-40.417969 40.417969v38.160156h-18.976562v-50.96875l67.714844-67.710937h71.367187l-90.65625 90.652343v15.523438h15v-9.308594l96.867188-96.871094h10.449219v22.433594h15v-31.820312h109.148437v31.820312h15v-22.433594h10.445313l96.867187 96.871094v9.308594h15v-15.523438l-90.652344-90.652343h71.367188l67.710937 67.710937v50.964844zm0 0"/><path d="m227.203125 348.328125 10.605469-10.605469-19.488282-19.492187h-71.492187v15h65.277344zm0 0"/><path d="m273.8125 337.722656 10.605469 10.605469 15.097656-15.097656h65.277344v-15h-71.488281zm0 0"/><path d="m255.8125 352.5c-57.164062 0-103.667969 46.503906-103.667969 103.667969 0 10.386719 1.542969 20.660156 4.585938 30.542969l14.335937-4.417969c-2.601562-8.449219-3.921875-17.238281-3.921875-26.125 0-48.890625 39.773438-88.667969 88.667969-88.667969 48.890625 0 88.664062 39.773438 88.664062 88.667969 0 8.886719-1.320312 17.675781-3.921874 26.125l14.335937 4.417969c3.042969-9.878907 4.585937-20.15625 4.585937-30.542969 0-57.164063-46.503906-103.667969-103.664062-103.667969zm0 0"/><g fill="#fff"><path d="m453.546875 359.449219-19.84375-19.84375 10.609375-10.605469 19.839844 19.84375zm-26.914063-26.914063-10.605468-10.605468 10.605468-10.605469 10.605469 10.605469zm-17.679687-17.675781-10.605469-10.605469 10.605469-10.609375 10.609375 10.609375zm0 0"/><path d="m334.476562 456.167969h-15c0-11.421875-3.070312-22.628907-8.882812-32.414063l12.894531-7.660156c7.191407 12.101562 10.988281 25.957031 10.988281 40.074219zm-28.976562-39.761719c-2.800781-3.492188-5.976562-6.695312-9.433594-9.527344l9.5-11.609375c4.265625 3.492188 8.179688 7.445313 11.632813 11.75zm-16.734375-14.695312c-3.824219-2.324219-7.898437-4.242188-12.109375-5.707032l4.925781-14.167968c5.207031 1.808593 10.246094 4.183593 14.976563 7.058593zm0 0"/></g></svg>