<svg height="512pt" viewBox="-1 0 512 512" width="512pt" xmlns="http://www.w3.org/2000/svg"><path d="m297.675781 50.609375v36.109375c-10.570312 10.570312-16.5 16.5-27.074219 27.070312h-32.074218c-10.574219-10.570312-16.5-16.5-27.074219-27.070312v-36.109375c0-23.808594 19.300781-43.109375 43.113281-43.109375 23.808594 0 43.109375 19.300781 43.109375 43.109375zm0 0" fill="#ffdaaa"/><path d="m266.757812 428.382812v65.640626c4.089844 4.089843 6.382813 6.386718 10.476563 10.476562h33.539063v-76.117188zm0 0" fill="#57a4ff"/><path d="m198.355469 504.5h33.539062c4.09375-4.089844 6.386719-6.386719 10.476563-10.476562v-65.644532h-44.015625zm0 0" fill="#57a4ff"/><path d="m97.824219 167.011719-15.039063 25.359375c2.070313 7.75 3.230469 12.09375 5.304688 19.84375l33.34375 19.269531 22.03125-38.121094zm0 0" fill="#57a4ff"/><path d="m354.789062 199.644531v-57.441406c-7.867187-7.867187-12.277343-12.277344-20.148437-20.148437h-51.785156v-20.515626l-12.253907 12.25h-16.035156-16.039062l-12.25-12.25v20.515626h-51.789063c-7.867187 7.871093-12.28125 12.28125-20.148437 20.148437v57.441406l-10.875-6.28125-22.035156 38.121094 76.925781 44.460937v152.4375h44.015625v-95.761718h12.195312 12.191406v95.761718h44.015626v-152.4375l76.925781-44.460937-22.035157-38.121094zm0 0" fill="#ffe477"/><path d="m151.429688 231.484375 22.035156-38.121094 10.875 6.28125v-57.441406c7.867187-7.867187 12.277344-12.277344 20.148437-20.148437h-30c-7.871093 7.871093-12.28125 12.28125-20.148437 20.148437v57.441406l-10.875-6.28125-22.035156 38.121094 76.925781 44.460937v152.4375h30v-152.4375zm0 0" fill="#ffb655"/><path d="m310.921875 167.164062c0 14.554688-11.804687 26.355469-26.359375 26.355469-14.558594 0-26.359375-11.800781-26.359375-26.355469 0-14.558593 11.800781-26.359374 26.359375-26.359374 14.554688 0 26.359375 11.800781 26.359375 26.359374zm0 0" fill="#ffb655"/><path d="m198.355469 268.5h112.417969v27.566406h-112.417969zm0 0" fill="#57a4ff"/><path d="m280.921875 167.164062c0 14.554688-11.804687 26.355469-26.359375 26.355469-14.558594 0-26.359375-11.800781-26.359375-26.355469 0-14.558593 11.800781-26.359374 26.359375-26.359374 14.554688 0 26.359375 11.800781 26.359375 26.359374zm0 0" fill="#fff"/><path d="m370.390625 47.464844c-10.203125 0-19.167969 6.78125-21.941406 16.605468l-7.28125 27.375c-1.476563 5.546876-5.949219 9.660157-11.398438 10.808594-8.847656 0-16.019531 7.171875-16.019531 16.015625v3.789063h20.890625c7.871094 7.867187 12.28125 12.277344 20.148437 20.148437v1.152344h50.953126c52.957031 0 95.890624-42.933594 95.890624-95.890625zm0 0" fill="#fff5cc"/><path d="m154.339844 142.203125c7.867187-7.867187 12.277344-12.277344 20.148437-20.148437h20.890625v-3.785157c0-8.847656-7.171875-16.015625-16.015625-16.015625-5.449219-1.148437-9.925781-5.261718-11.402343-10.808594l-7.28125-27.375c-2.773438-9.824218-11.734376-16.605468-21.941407-16.605468h-131.238281c0 52.960937 42.929688 95.890625 95.890625 95.890625h50.949219zm0 0" fill="#fff5cc"/><path d="m141.625 243.15625v235.792969c5.980469 5.980469 9.332031 9.332031 15.308594 15.3125h11.082031v-235.851563zm0 0" fill="#bddbff"/><path d="m367.503906 243.15625v215.792969c-5.980468 5.980469-9.332031 9.332031-15.308594 15.3125h-11.082031v-215.851563zm0 0" fill="#bddbff"/><path d="m28.484375 107.339844v211.796875c5.980469 5.976562 9.332031 9.332031 15.308594 15.308593h11.082031v-204.25c-10.136719-5.957031-19.082031-13.722656-26.390625-22.855468zm0 0" fill="#bddbff"/><path d="m480.644531 107.339844v211.796875c-5.976562 5.976562-9.328125 9.332031-15.308593 15.308593h-11.082032v-204.25c10.136719-5.957031 19.082032-13.722656 26.390625-22.855468zm0 0" fill="#bddbff"/><path d="m88.089844 212.214844c-.839844-3.144532-1.53125-5.730469-2.195313-8.207032v189.539063c5.980469 5.980469 9.332031 9.332031 15.3125 15.3125h11.078125v-182.660156zm0 0" fill="#bddbff"/><path d="m411.308594 167.011719 15.035156 25.359375c-2.070312 7.75-3.230469 12.09375-5.304688 19.84375l-33.339843 19.269531-22.035157-38.121094zm0 0" fill="#57a4ff"/><path d="m421.039062 212.214844c.84375-3.144532 1.53125-5.730469 2.195313-8.207032v189.539063c-5.980469 5.980469-9.332031 9.332031-15.308594 15.3125h-11.082031v-182.660156zm0 0" fill="#bddbff"/><path d="m241.453125 86.71875v-36.109375c0-18.535156 11.699219-34.335937 28.113281-40.425781-4.671875-1.734375-9.726562-2.683594-15-2.683594-23.808594 0-43.113281 19.300781-43.113281 43.109375v36.109375c10.574219 10.570312 16.5 16.5 27.074219 27.070312h30c-10.574219-10.570312-16.5-16.5-27.074219-27.070312zm0 0" fill="#fbb984"/><path d="m286.757812 494.023438v-65.644532h-20v65.644532c4.089844 4.089843 6.382813 6.382812 10.476563 10.476562h20c-4.089844-4.089844-6.386719-6.386719-10.476563-10.476562zm0 0" fill="#006df0"/><path d="m198.355469 428.382812h20v76.117188h-20zm0 0" fill="#006df0"/><path d="m118.089844 212.214844c-2.070313-7.75-3.234375-12.09375-5.304688-19.84375l7.386719-12.457032-22.351563-12.902343-15.035156 25.359375c2.070313 7.75 3.230469 12.09375 5.304688 19.84375l33.34375 19.269531 7.511718-12.996094zm0 0" fill="#006df0"/><path d="m198.355469 268.5h30v27.566406h-30zm0 0" fill="#006df0"/><path d="m258.203125 167.164062c0-8.984374 4.496094-16.917968 11.359375-21.675781-4.257812-2.953125-9.425781-4.683593-15-4.683593-14.558594 0-26.359375 11.800781-26.359375 26.359374 0 14.554688 11.800781 26.355469 26.359375 26.355469 5.574219 0 10.742188-1.730469 15-4.679687-6.863281-4.757813-11.359375-12.691406-11.359375-21.675782zm0 0" fill="#d1e7f8"/><path d="m364.640625 122.054688h-20.890625v-3.785157c0-8.847656 7.171875-16.015625 16.019531-16.015625 5.449219-1.148437 9.921875-5.261718 11.398438-10.808594l7.28125-27.375c2.773437-9.820312 11.730469-16.601562 21.929687-16.605468h-29.988281c-10.207031 0-19.167969 6.78125-21.941406 16.605468l-7.28125 27.375c-1.476563 5.546876-5.949219 9.660157-11.398438 10.808594-8.847656 0-16.019531 7.167969-16.019531 16.015625v3.785157h20.890625c7.871094 7.871093 12.28125 12.28125 20.148437 20.148437v1.152344h30v-1.152344c-7.867187-7.867187-12.277343-12.277344-20.148437-20.148437zm0 0" fill="#ffdaaa"/><path d="m37.5 47.464844h-30c0 52.960937 42.929688 95.890625 95.890625 95.890625h30c-52.960937 0-95.890625-42.929688-95.890625-95.890625zm0 0" fill="#ffdaaa"/><g fill="#57a4ff"><path d="m156.625 478.949219v-227.121094l-15-8.671875v235.792969c5.980469 5.980469 9.332031 9.332031 15.3125 15.3125h11.078125v-3.917969c-3.816406-3.820312-6.84375-6.847656-11.390625-11.394531zm0 0"/><path d="m356.113281 258.410156 11.390625-6.582031v-8.671875l-26.390625 15.253906v215.851563h11.082031l3.917969-3.917969zm0 0"/><path d="m43.484375 319.136719v-196.792969c-5.535156-4.433594-10.570313-9.46875-15-15.003906v211.796875c5.980469 5.976562 9.332031 9.332031 15.308594 15.308593h11.082031v-3.917968c-3.816406-3.816406-6.84375-6.847656-11.390625-11.390625zm0 0"/><path d="m469.253906 130.195312c3.992188-2.34375 7.796875-4.96875 11.390625-7.851562v-15.003906c-7.308593 9.132812-16.253906 16.898437-26.390625 22.855468v204.25h11.082032l3.917968-3.917968zm0 0"/><path d="m100.894531 393.546875v-173.929687l-12.804687-7.402344c-.84375-3.144532-1.53125-5.730469-2.195313-8.207032v189.539063c5.980469 5.980469 9.332031 9.332031 15.308594 15.3125h11.082031v-3.921875c-3.816406-3.816406-6.84375-6.84375-11.390625-11.390625zm0 0"/></g><path d="m395.664062 193.363281 23.292969-13.449219-7.648437-12.902343-45.644532 26.351562 22.035157 38.121094 22.488281-12.996094zm0 0" fill="#006df0"/><path d="m411.84375 226.199219 11.390625-6.582031v-15.609376c-.664063 2.480469-1.351563 5.0625-2.195313 8.207032l-24.195312 13.984375v182.65625h11.082031l3.917969-3.917969zm0 0" fill="#57a4ff"/><path d="m262.066406 231.453125h-15v29.546875h-28.710937v15h72.417969v-15h-28.707032zm0 0"/><path d="m218.355469 288.566406h72.417969v15h-72.417969zm0 0"/><path d="m254.5625 133.304688c-18.671875 0-33.859375 15.1875-33.859375 33.859374 0 18.667969 15.1875 33.855469 33.859375 33.855469 18.667969 0 33.855469-15.1875 33.855469-33.855469 0-18.671874-15.1875-33.859374-33.855469-33.859374zm0 52.714843c-10.398438 0-18.859375-8.457031-18.859375-18.855469 0-10.398437 8.460937-18.859374 18.859375-18.859374s18.855469 8.460937 18.855469 18.859374c0 10.398438-8.457031 18.855469-18.855469 18.855469zm0 0"/><path d="m90.894531 110.199219h47.113281l5.265626 18.5625 14.429687-4.089844-13.671875-48.21875c-2.082031-7.375-8.886719-12.523437-16.546875-12.523437h-94.0625v15h94.0625c.960937 0 1.851563.671874 2.113281 1.605468l4.15625 14.660156h-42.859375zm0 0"/><path d="m381.644531 78.933594h94.0625v-15h-94.0625c-7.660156 0-14.464843 5.148437-16.546875 12.511718l-13.671875 48.226563 14.433594 4.09375 5.261719-18.566406h47.113281v-15h-42.859375l4.15625-14.667969c.261719-.925781 1.152344-1.597656 2.113281-1.597656zm0 0"/><path d="m362.289062 186.652344v-47.554688l-24.539062-24.542968h-47.394531v-9.910157l14.820312-14.820312v-39.214844c0-27.90625-22.703125-50.609375-50.609375-50.609375-27.910156 0-50.613281 22.703125-50.613281 50.609375v39.214844l14.824219 14.820312v9.910157h-47.394532l-24.542968 24.542968v47.554688c-16.207032-9.355469-48.085938-27.761719-51.6875-29.84375l-20.429688 34.453125 6.921875 25.890625c1.378907.796875 105.476563 60.964844 109.210938 63.121094v231.726562h44.144531l14.871094-14.871094v-157.007812h9.386718v157.007812l14.867188 14.871094h44.148438v-231.726562c3.53125-2.042969 107.335937-62.039063 109.210937-63.121094l6.917969-25.890625-20.425782-34.453125c-56.261718 32.488281-42.703124 24.660156-51.6875 29.84375zm-143.335937-136.042969c0-19.632813 15.976563-35.609375 35.613281-35.609375 19.632813 0 35.609375 15.976562 35.609375 35.609375v33l-22.679687 22.679687h-25.863282l-22.679687-22.679687zm-128.109375 142.875 9.648438-16.269531 32.722656 18.890625c-7.058594 12.21875-7.472656 12.933593-14.523438 25.132812l-24.160156-13.964843zm144.027344 297.433594-6.082032 6.082031h-22.933593v-61.117188h29.015625zm68.402344 6.082031h-22.933594l-6.082032-6.082031v-55.035157h29.015626zm15-234.050781v-101.175781h-15v34.765624l-6.210938 6.207032h-26.777344v15h32.988282v203.136718h-29.015626v-95.761718h-39.386718v95.761718h-29.015625v-203.136718h32.980469v-15h-26.773438l-6.207031-6.207032v-34.765624h-15v101.175781l-59.179688-34.203125c9.542969-16.507813 7.125-12.328125 14.527344-25.136719 2.796875 1.613281 22.269531 12.855469 25.066406 14.472656l7.5-12.992187-16.933593-9.777344v-50l15.757812-15.757812h56.179688v-9.910157l1.644531 1.644531h38.289062l1.644531-1.644531v9.910157h56.183594l15.753906 15.757812v50l-16.929687 9.777344 7.5 12.992187c28.746094-16.597656-9.863281 5.695313 25.0625-14.472656 9.542969 16.503906 7.125 12.324219 14.527344 25.136719zm96.324218-55.675781-24.160156 13.964843c-7.058594-12.214843-7.472656-12.933593-14.523438-25.132812l32.722657-18.890625 9.648437 16.269531zm0 0"/><path d="m47.375 326.945312h-.476562l-10.914063-10.917968v-180.207032h-15v186.421876l19.703125 19.703124h21.6875v-189.25h-15zm0 0"/><path d="m104.785156 401.355469h-.472656l-10.917969-10.914063v-156.394531h-15v162.605469l19.703125 19.703125h21.6875v-167.054688h-15zm0 0"/><path d="m160.515625 486.761719h-.472656l-10.917969-10.917969v-209.585938h-15v215.800782l19.703125 19.703125h21.6875v-220.25h-15zm0 0"/><path d="m360.003906 455.84375-10.917968 10.917969h-.472657v-185.25h-15v200.25h21.6875l19.703125-19.703125v-195.800782h-15zm0 0"/><path d="m415.734375 390.441406-10.917969 10.914063h-.472656v-152.054688h-15v167.054688h21.6875l19.703125-19.703125v-162.605469h-15zm0 0"/><path d="m473.144531 316.027344-10.914062 10.917968h-.476563v-174.25h-15v189.25h21.6875l19.703125-19.703124v-186.421876h-15zm0 0"/><path d="m370.390625 39.964844c-13.5 0-25.488281 9.074218-29.160156 22.066406l-7.308594 27.484375c-.6875 2.574219-2.71875 4.601563-5.304687 5.296875l3.886718 14.488281c7.757813-2.082031 13.851563-8.1875 15.910156-15.929687l7.265626-27.3125c1.871093-6.535156 7.910156-11.09375 14.710937-11.09375h123.425781c-3.820312 45.242187-41.863281 80.890625-88.074218 80.890625h-30.953126v15h30.953126c57.007812 0 103.390624-46.382813 103.390624-103.390625v-7.5zm0 0"/><path d="m103.390625 150.855469h30.949219v-15h-30.949219c-46.214844 0-84.257813-35.648438-88.078125-80.890625h123.425781c6.800781 0 12.84375 4.5625 14.710938 11.097656l7.265625 27.3125c2.058594 7.742188 8.15625 13.84375 15.910156 15.925781l3.886719-14.488281c-2.585938-.695312-4.617188-2.722656-5.300781-5.292969l-7.28125-27.375-.03125-.113281c-3.667969-12.992188-15.660157-22.0625-29.160157-22.0625h-138.738281v7.5c0 57.007812 46.378906 103.386719 103.390625 103.386719zm0 0"/><path d="m265.550781 94.09375-10.605469-10.609375 10.230469-10.230469v-1.097656h1.097657l1.101562-1.097656 1.097656 1.097656h11.703125v7.3125zm14.625-31.9375h-15v-11.546875c0-.675781-.0625-1.351563-.191406-2.011719l14.730469-2.835937c.304687 1.589843.460937 3.222656.460937 4.847656zm-17.796875-18.714844c-2.042968-2.21875-4.816406-3.441406-7.8125-3.441406v-15c7.140625 0 14.011719 3.023438 18.855469 8.292969zm0 0" fill="#fff"/><path d="m296.265625 408.386719h-15v-30.285157h15zm0-40.285157h-15v-15h15zm0-25h-15v-15h15zm0 0" fill="#fff"/></svg>