<svg height="512pt" viewBox="-36 0 512 512" width="512pt" xmlns="http://www.w3.org/2000/svg"><path d="m386.828125 104.6875h-40.492187l-23.03125 23.035156-16.921876-16.921875h-23.203124v-40.011719c0-34.898437-28.390626-63.289062-63.289063-63.289062s-63.289063 28.390625-63.289063 63.289062v40.011719h-23.203124l-16.921876 16.917969-23.03125-23.03125h-40.492187l-42.347656 42.347656 105.871093 105.871094 28.3125-28.3125v279.90625h64.773438l10.328125-10.328125 10.328125 10.328125h64.773438v-279.90625l28.3125 28.3125 105.871093-105.871094zm0 0" fill="#ffb655"/><path d="m381.371094 190.3125 43.277344-43.277344-17.933594-17.933594h-20.265625l-33.144531 33.144532-27.03125-27.03125h-50.871094v-18.5c-1.089844 1.085937-2.1875 2.183594-3.316406 3.316406l11.09375-11.097656v-38.144532c0-10.199218-2.425782-19.847656-6.730469-28.390624-6.949219-6.503907-16.289063-10.484376-26.558594-10.484376-21.46875 0-38.875 17.402344-38.875 38.875v32.558594l13.367187 13.367188v18.5h-50.871093l-55.101563 55.097656 28.066406 28.066406 45.527344-45.523437c3.472656 1.4375 3.726563 1.542969 7.199219 2.984375v304.246094h30.246094c3.691406-3.691407 5.757812-5.757813 9.449219-9.449219v-158.929688h21.988281v158.929688l9.449219 9.449219h24.65625v-255.492188l5.585937 5.585938v-54.339844c3.472656-1.441406 3.726563-1.546875 7.199219-2.984375l45.527344 45.523437zm0 0" fill="#ff7956"/><path d="m113.332031 129.101562h-20.265625l-17.933594 17.933594 43.277344 43.277344 28.066406-28.066406zm0 0" fill="#ff7956"/><path d="m258.765625 70.789062v32.558594c-9.535156 9.535156-14.878906 14.878906-24.414063 24.414063h-28.925781c-9.53125-9.535157-14.878906-14.878907-24.410156-24.414063v-32.558594c0-21.46875 17.402344-38.875 38.875-38.875 21.46875 0 38.875 17.40625 38.875 38.875zm0 0" fill="#fff5cc"/><path d="m169.203125 480.085938h30.246094c3.6875-3.6875 5.757812-5.757813 9.449219-9.445313v-55.640625h-39.695313zm0 0" fill="#fff"/><path d="m296.273438 135.214844h-50.871094v-18.5c-3.34375 3.34375-6.777344 6.773437-11.046875 11.046875h-28.925781l-11.046876-11.046875v18.5h-50.871093l-55.101563 55.097656 28.066406 28.070312 45.527344-45.527343c3.472656 1.4375 3.726563 1.546875 7.199219 2.984375v239.160156h39.695313v-103.292969h21.988281v103.292969h39.691406v-239.160156c3.472656-1.4375 3.730469-1.546875 7.203125-2.984375l45.523438 45.527343 28.066406-28.070312zm0 0" fill="#57a4ff"/><path d="m118.410156 190.3125 55.097656-55.097656h-30l-55.097656 55.097656 28.066406 28.066406 15-15zm0 0" fill="#006df0"/><path d="m192.003906 172.855469-22.800781 22.796875v219.347656h30v-239.160156c-3.472656-1.4375-3.730469-1.546875-7.199219-2.984375zm0 0" fill="#006df0"/><path d="m245.402344 135.214844v-7.453125h-9.972656l-.539063-.539063-.539063.539063h-9.96875v7.453125h-29.855468l55.097656 55.097656 50.871094-50.871094-4.222656-4.226562zm0 0" fill="#006df0"/><path d="m351.371094 190.3125 43.277344-43.277344-17.933594-17.933594h-20.265625l-33.144531 33.144532zm0 0" fill="#fff"/><path d="m116.476562 162.246094-33.144531-33.144532h-20.265625l-17.933594 17.933594 43.277344 43.277344zm0 0" fill="#fff"/><path d="m230.886719 415v55.640625l9.445312 9.445313h30.246094v-65.085938zm0 0" fill="#fff"/><path d="m245.402344 135.214844v-18.5c-3.34375 3.34375-6.777344 6.773437-11.046875 11.046875h-28.925781l-11.046876-11.046875v18.5h-29.855468l55.097656 55.097656 55.101562-55.097656zm0 0" fill="#fff"/><path d="m169.203125 258.75h101.375v30.394531h-101.375zm0 0" fill="#fff"/><path d="m146.476562 127.722656 16.917969-16.921875h23.207031v-40.011719c0-29.730468 20.609376-54.738281 48.289063-61.492187-4.8125-1.175781-9.835937-1.796875-15-1.796875-34.898437 0-63.289063 28.390625-63.289063 63.289062v40.011719h-23.207031l-1.917969 1.917969zm0 0" fill="#ff7956"/><path d="m40.605469 147.035156 42.347656-42.347656h-30l-42.347656 42.347656 105.871093 105.871094 15-15zm0 0" fill="#ff7956"/><path d="m239.5625 504.5h20.65625l-10.328125-10.328125zm0 0" fill="#ff7956"/><path d="m146.476562 252.90625-1.6875-1.6875v253.28125h30v-279.90625zm0 0" fill="#ff7956"/><path d="m211.015625 103.347656v-32.558594c0-16.152343 9.851563-30.003906 23.875-35.875-4.617187-1.933593-9.683594-3-15-3-21.46875 0-38.875 17.402344-38.875 38.875v32.558594l24.414063 24.414063h28.925781l.535156-.539063c-9.199219-9.199218-14.523437-14.519531-23.875-23.875zm0 0" fill="#ffdaaa"/><g fill="#d1e7f8"><path d="m169.203125 415h20v65.085938h-20zm0 0"/><path d="m353.304688 162.246094 28.277343-28.277344-4.867187-4.867188h-20.265625l-33.144531 33.144532 28.066406 28.066406 15-15zm0 0"/><path d="m75.132812 147.035156 13.066407-13.066406-4.867188-4.867188h-20.265625l-17.933594 17.933594 43.277344 43.277344 15-15zm0 0"/><path d="m250.886719 415h-20v55.640625l9.445312 9.445313h20l-9.445312-9.445313zm0 0"/><path d="m194.527344 135.214844h-30l55.097656 55.097656 15-15zm0 0"/><path d="m169.203125 258.75h30v30.394531h-30zm0 0"/></g><path d="m287.492188 497h-54.164063l-13.4375-13.4375-13.4375 13.4375h-54.164063v-290.511719l-35.8125 35.8125-95.261718-95.265625 34.84375-34.847656h34.28125l26.136718 26.140625 20.027344-20.027344h27.597656v-21.15625h-15v6.15625h-18.8125l-13.8125 13.8125-19.925781-19.925781h-46.703125l-49.847656 49.847656 116.476562 116.476563 20.8125-20.8125v269.300781h75.378907l7.222656-7.222656 7.222656 7.222656h75.378907v-181.855469h-15zm0 0"/><path d="m389.933594 97.1875h-46.703125l-19.925781 19.925781-13.8125-13.8125h-18.8125v-32.511719c0-39.03125-31.753907-70.789062-70.789063-70.789062-39.03125 0-70.789063 31.757812-70.789063 70.789062v6.355469h15v-6.355469c0-30.761718 25.027344-55.789062 55.789063-55.789062s55.789063 25.027344 55.789063 55.789062v47.511719h27.597656l20.027344 20.027344 26.136718-26.140625h34.28125l34.847656 34.847656-95.265624 95.265625-35.8125-35.8125v103.652344h15v-67.441406l20.8125 20.8125 116.476562-116.476563zm0 0"/><path d="m140.402344 127.714844-23.925782 23.925781-30.039062-30.039063h-26.476562l-25.4375 25.433594 81.953124 81.953125 45.226563-45.226562v303.824219h40.851563l13.839843-13.839844v-154.539063h6.992188v154.539063l13.839843 13.839844h40.851563v-303.824219l45.226563 45.226562 81.953124-81.953125-25.4375-25.433594h-26.476562l-30.039062 30.039063-23.925782-23.925781h-46.476562v-7.894532l13.363281-13.367187v-35.664063c0-25.570312-20.804687-46.375-46.375-46.375s-46.375 20.804688-46.375 46.375v35.667969l13.363281 13.363281v7.894532zm-84.664063 19.320312 10.4375-10.433594h14.050781l25.644532 25.644532-17.460938 17.460937zm145.65625 320.496094-5.050781 5.054688h-19.640625v-50.085938h24.691406zm61.683594 5.054688h-19.640625l-5.050781-5.054688v-45.03125h24.691406zm70.832031-310.339844 25.648438-25.644532h14.050781l10.433594 10.433594-32.671875 32.671875zm-21.214844 0-8.707031 8.710937 10.605469 10.605469 8.710938-8.707031 17.457031 17.457031-17.457031 17.460938-43.765626-43.765626-16.464843 6.820313v236.671875h-24.691407v-103.292969h-36.988281v103.292969h-24.691406v-236.671875l-16.460937-6.820313-43.765626 43.765626-17.460937-17.457032 17.460937-17.460937 8.707032 8.707031 10.605468-10.605469-8.707031-8.710937 19.53125-19.53125h14.804688l58.207031 58.207031 58.203125-58.207031h15.335937zm-124.179687-91.457032c0-17.300781 14.074219-31.375 31.375-31.375s31.375 14.074219 31.375 31.375v29.453126l-20.019531 20.019531h-22.710938l-20.019531-20.019531zm13.804687 64.472657h35.140626l.441406-.441407v7.894532h18.714844l-36.992188 36.992187-36.992188-36.992187h19.246094v-7.894532zm0 0"/><path d="m189.203125 281.644531h61.375v15h-61.375zm0 0"/><path d="m189.203125 251.25h61.375v15h-61.375zm0 0"/><path d="m229.300781 108.0625-10.605469-10.605469 7.570313-7.570312v-19.097657c0-3.515624-2.859375-6.375-6.375-6.375v-15c11.785156 0 21.375 9.589844 21.375 21.375v25.3125zm0 0" fill="#fff"/><path d="m238.078125 188.570312h15v54.144532h-15zm0 0" fill="#fff"/><path d="m258.230469 392.980469h-15v-29.980469h15zm0-39.980469h-15v-15h15zm0-25h-15v-15h15zm0 0" fill="#fff"/></svg>