<svg height="512pt" viewBox="-50 0 512 512" width="512pt" xmlns="http://www.w3.org/2000/svg"><path d="m120.21875 193.429688c6.757812-6.757813 10.546875-10.546876 17.300781-17.300782h44.464844v-17.617187l10.519531 10.519531h27.542969l10.515625-10.519531v17.617187h44.46875c6.753906 6.753906 10.542969 10.542969 17.300781 17.300782v7.421874c1.328125-6.085937 2.035157-12.402343 2.035157-18.886718v-121.757813l-34.6875 34.6875c-24.65625-42.820312-53.40625-82.179687-53.40625-82.179687s-41.726563 57.121094-67.746094 108.597656l-20.347656-20.347656v81c0 6.492187.707031 12.816406 2.042968 18.910156-.003906-1.566406-.003906-7.445312-.003906-7.445312zm0 0" fill="#ff3f62"/><path d="m158.015625 293.503906h-67.242187v-37.792968h29.445312v-62.28125c6.757812-6.757813 10.546875-10.546876 17.300781-17.300782h44.464844v-17.617187l10.519531 10.519531h13.769532 13.773437l10.515625-10.519531v17.617187h44.46875c6.753906 6.753906 10.542969 10.542969 17.300781 17.300782v62.28125h29.445313v37.792968h-67.242188v145.640625h-37.792968v-82.222656h-10.46875-10.464844v82.222656h-37.796875zm0 0" fill="#ffb655"/><path d="m158.011719 293.503906v145.640625h30v-145.640625s-14.476563 0-30 0zm0 0" fill="#ff7956"/><path d="m150.21875 255.710938v-62.28125c6.757812-6.757813 10.542969-10.546876 17.300781-17.300782-13.167969 0-30 0-30 0-6.753906 6.753906-10.542969 10.542969-17.300781 17.300782v62.28125h-29.449219v37.792968h30v-37.792968zm0 0" fill="#ff7956"/><path d="m205.539062 218.414062 20.734376-20.730468 20.730468 20.730468-20.730468 20.730469zm0 0" fill="#ff7956"/><path d="m367.175781 261.492188c20.917969 0 37.875-16.957032 37.875-37.878907v-34.824219l-8.75 8.75c-11.183593-22.132812-29.125-46.695312-29.125-46.695312s-12.363281 16.925781-22.964843 35.335938l-14.914063-14.914063v52.351563c0 20.917968 16.957031 37.875 37.878906 37.875zm0 0" fill="#ff3f62"/><path d="m243.289062 114.785156v31c-9.074218 9.078125-14.164062 14.167969-23.242187 23.246094h-27.542969c-9.078125-9.078125-14.167968-14.167969-23.246094-23.246094v-31c0-20.445312 16.574219-37.015625 37.015626-37.015625 20.445312 0 37.015624 16.570313 37.015624 37.015625zm0 0" fill="#ffdaaa"/><g fill="#ff3f62"><path d="m216.742188 439.144531v56.359375c3.515624 3.511719 5.484374 5.484375 8.996093 8.996094h28.800781v-65.355469zm0 0"/><path d="m158.015625 504.5h28.796875c3.511719-3.511719 5.480469-5.484375 8.996094-8.996094v-56.359375h-37.792969zm0 0"/><path d="m158.015625 301.867188h96.523437v23.667968h-96.523437zm0 0"/><path d="m185.542969 218.414062 20.730469-20.730468 20.730468 20.730468-20.730468 20.730469zm0 0"/><path d="m358.972656 293.503906v-23.84375l-13.945312-13.949218h-23.246094v37.792968zm0 0"/><path d="m358.972656 293.503906v-23.84375l-13.945312-13.949218h-23.246094v37.792968zm0 0"/><path d="m53.578125 293.503906v-23.84375l13.949219-13.949218h23.242187v37.792968zm0 0"/><path d="m45.378906 261.492188c-20.921875 0-37.878906-16.957032-37.878906-37.878907v-34.824219l8.75 8.75c11.1875-22.132812 29.128906-46.695312 29.128906-46.695312s12.359375 16.925781 22.960938 35.335938l14.914062-14.914063v52.351563c0 20.917968-16.957031 37.875-37.875 37.875zm0 0"/></g><path d="m148.175781 103.179688c-3.367187 6.054687-6.613281 12.132812-9.648437 18.136718l-20.347656-20.351562v81c0 6.492187.707031 12.820312 2.039062 18.910156 0-1.566406 0-7.449219 0-7.449219 6.757812-6.753906 10.546875-10.542969 17.300781-17.300781h10.65625zm0 0" fill="#c70024"/><path d="m168.527344 121.316406c16.101562-31.863281 38.222656-65.886718 52.746094-87.191406-8.941407-13.117188-15-21.410156-15-21.410156s-31.894532 43.664062-57.304688 89.042968zm0 0" fill="#c70024"/><path d="m359.296875 223.613281v-52.351562l14.914063 14.917969c2.617187-4.546876 5.34375-9.003907 7.960937-13.136719-7.988281-12.601563-14.996094-22.199219-14.996094-22.199219s-12.363281 16.925781-22.964843 35.335938l-14.914063-14.914063v52.351563c0 20.917968 16.957031 37.875 37.878906 37.875 5.328125 0 10.398438-1.101563 14.996094-3.085938-13.457031-5.8125-22.875-19.199219-22.875-34.792969zm0 0" fill="#c70024"/><path d="m199.257812 145.785156v-31c0-15.105468 9.046876-28.09375 22.015626-33.851562-4.582032-2.035156-9.660157-3.164063-15-3.164063-20.441407 0-37.015626 16.570313-37.015626 37.015625v31c9.078126 9.078125 14.167969 14.167969 23.246094 23.246094h27.542969l1.230469-1.230469c-8.328125-8.324219-13.359375-13.355469-22.019532-22.015625zm0 0" fill="#fbb984"/><path d="m236.742188 495.503906v-56.359375h-20v56.359375c3.515624 3.511719 5.484374 5.484375 8.996093 8.996094h20c-3.511719-3.511719-5.480469-5.484375-8.996093-8.996094zm0 0" fill="#c70024"/><path d="m158.015625 439.144531h19.996094v65.355469h-19.996094zm0 0" fill="#c70024"/><path d="m158.015625 301.867188h29.996094v23.667968h-29.996094zm0 0" fill="#c70024"/><path d="m205.542969 218.414062 10.730469-10.730468-10-10-20.730469 20.730468 20.730469 20.730469 10-10zm0 0" fill="#c70024"/><path d="m321.78125 255.710938h20v37.792968h-20zm0 0" fill="#c70024"/><path d="m87.523438 255.710938h-19.996094l-13.949219 13.949218v23.84375h20v-23.84375zm0 0" fill="#c70024"/><path d="m37.5 223.613281v-34.824219l8.75 8.75c4.191406-8.300781 9.335938-16.9375 14.125-24.496093-7.988281-12.601563-14.996094-22.199219-14.996094-22.199219s-17.941406 24.5625-29.128906 46.695312l-8.75-8.75v34.828126c0 20.917968 16.957031 37.875 37.878906 37.875 5.328125 0 10.398438-1.101563 14.996094-3.085938-13.457031-5.8125-22.875-19.199219-22.875-34.792969zm0 0" fill="#c70024"/><path d="m213.773438 270.058594h-14.996094v24.308594h-20.765625v15h56.527343v-15h-20.765624zm0 0"/><path d="m178.011719 318.035156h56.527343v15h-56.527343zm0 0"/><path d="m174.9375 218.414062 31.335938 31.335938 31.339843-31.335938-31.339843-31.335937zm31.335938 10.125-10.125-10.125 10.125-10.125 10.128906 10.125zm0 0"/><path d="m299.832031 248.210938v-57.890626l-21.695312-21.691406h-40.070313v-7.011718l12.726563-12.726563v-34.105469c0-24.546875-19.972657-44.515625-44.519531-44.515625-24.542969 0-44.515626 19.96875-44.515626 44.515625v34.105469l12.726563 12.726563v7.011718h-40.070313l-21.691406 21.691406v57.890626h-48.304687l-18.339844 18.34375v34.449218h104.433594v210.996094h39.40625l13.386719-13.390625v-134.1875h5.941406v134.1875l13.386718 13.390625h39.40625v-210.996094h104.433594v-34.449218l-18.339844-18.34375zm-216.5625 37.792968h-22.191406v-13.238281l9.554687-9.554687h12.636719zm93.488281-171.21875c0-16.277344 13.242188-29.519531 29.519532-29.519531s29.515625 13.242187 29.515625 29.519531v27.894532l-18.851563 18.851562h-21.328125l-18.855469-18.851562zm11.550782 377.613282-4.601563 4.601562h-18.191406v-50.355469h22.792969zm58.730468 4.601562h-18.191406l-4.605468-4.601562v-45.757813h22.796874zm67.242188-210.996094h-52.242188v-75.773437h-15v29.410156l-4.710937 4.710937h-22.554687v15h27.265624v172.292969h-22.796874v-82.222656h-35.933594v82.222656h-22.796875v-172.292969h27.257812v-15h-22.546875l-4.710937-4.710937v-29.410156h-15v75.773437h-52.242188v-22.792968h29.449219v-66.675782l12.90625-12.90625h48.859375v-7.097656h33.582031v7.097656h48.859375l12.90625 12.90625v66.675782h29.449219zm37.191406 0h-22.191406v-22.792968h12.640625l9.550781 9.554687zm0 0"/><path d="m125.679688 119.070312 14.871093 14.871094 4.671875-9.242187c19.59375-38.769531 48.585938-81.3125 61.050782-99.058594 9.714843 13.820313 29.453124 42.679687 46.90625 72.996094l4.882812 8.480469 28.804688-28.804688v88.867188h15v-125.078126l-40.621094 40.621094c-14.765625-24.875-33.011719-52.660156-54.972656-82.722656-24.324219 33.296875-50.765626 73.277344-69.679688 108.773438l-25.914062-25.914063v84.328125h14.996093v-48.117188zm0 0"/><path d="m398.144531 185.089844c-10.796875-19.234375-22.179687-34.925782-30.972656-46.960938-4.617187 6.320313-13.757813 18.464844-24.472656 35.929688l-20.902344-20.898438v70.457032c0 4.933593.800781 9.808593 2.378906 14.488281l14.210938-4.789063c-1.054688-3.136718-1.589844-6.398437-1.589844-9.699218v-34.246094l9.03125 9.03125c5.582031-9.691406 10.621094-18.78125 21.34375-34.492188 16.160156 23.667969 21.878906 35.90625 27.109375 46.253906l3.269531-3.269531v16.722657c0 13.480468-9.046875 25.484374-22 29.195312l4.132813 14.417969c19.351562-5.542969 32.867187-23.476563 32.867187-43.613281v-52.933594zm0 0"/><path d="m18.269531 210.164062c5.167969-10.21875 10.890625-22.492187 27.109375-46.253906 10.71875 15.691406 15.792969 24.855469 21.34375 34.492188l9.03125-9.03125v34.242187c0 3.304688-.535156 6.566407-1.589844 9.703125l14.210938 4.789063c1.578125-4.683594 2.378906-9.558594 2.378906-14.492188v-70.453125l-20.902344 20.898438c-10.511718-17.136719-19.367187-28.9375-24.472656-35.929688-4.433594 6.066406-18.632812 24.976563-30.972656 46.957032l-14.40625-14.402344v52.929687c0 20.140625 13.515625 38.074219 32.867188 43.617188l4.128906-14.417969c-12.949219-3.710938-21.996094-15.71875-21.996094-29.199219v-16.71875zm0 0"/><path d="m216.027344 151.832031-10.605469-10.609375 7.867187-7.863281v-21.277344h15v27.488281zm0 0" fill="#fff"/><path d="m261.867188 120.558594h15v37.953125h-15zm0 0" fill="#fff"/><path d="m367.175781 243.992188c-11.238281 0-20.378906-9.140626-20.378906-20.378907h15c0 2.96875 2.410156 5.378907 5.378906 5.378907 2.964844 0 5.378907-2.410157 5.378907-5.378907h14.996093c0 11.238281-9.140625 20.378907-20.375 20.378907zm0 0" fill="#fff"/><path d="m45.378906 243.992188c-11.238281 0-20.378906-9.140626-20.378906-20.378907h15c0 2.96875 2.410156 5.378907 5.378906 5.378907 2.964844 0 5.378906-2.410157 5.378906-5.378907h14.996094c0 11.238281-9.140625 20.378907-20.375 20.378907zm0 0" fill="#fff"/></svg>