<svg height="512pt" viewBox="-64 0 512 512" width="512pt" xmlns="http://www.w3.org/2000/svg"><g fill="#ffdaaa"><path d="m167.265625 7.5h54.964844v112.9375h-54.964844zm0 0"/><path d="m222.230469 21.242188h54.964843v90.285156h-54.964843zm0 0"/><path d="m277.195312 33.675781h47.054688v73.496094h-47.054688zm0 0"/><path d="m167.265625 21.242188h-54.960937v99.195312h54.960937zm0 0"/><path d="m273.738281 504.5v-214.714844l50.511719-50.019531v-206.089844h-47.054688v-12.433593h-54.964843v-13.742188h-54.964844v13.742188h-54.960937v99.195312h-50.023438v119.082031l50.023438 50.511719v214.46875zm0 0"/></g><path d="m92.28125 239.519531v-119.082031h-30v119.082031l50.023438 50.511719v214.46875h30v-214.46875zm0 0" fill="#fbb984"/><path d="m302.308594 384.105469c0 60.96875-49.425782 110.394531-110.394532 110.394531s-110.390624-49.425781-110.390624-110.394531 49.421874-110.390625 110.390624-110.390625 110.394532 49.421875 110.394532 110.390625zm0 0" fill="#a4e276"/><path d="m302.308594 384.105469c0-55.878907-41.519532-102.0625-95.394532-109.378907-25.253906 3.429688-47.792968 15.398438-64.613281 32.90625v152.949219c16.820313 17.503907 39.359375 29.476563 64.613281 32.90625 53.875-7.316406 95.394532-53.5 95.394532-109.382812zm0 0" fill="#64c37d"/><path d="m273.738281 310c-20.199219-22.285156-49.375-36.285156-81.824219-36.285156-31.28125 0-59.523437 13.011718-79.609374 33.917968v152.949219c20.085937 20.90625 48.328124 33.917969 79.609374 33.917969 32.449219 0 61.625-14 81.824219-36.289062zm0 0" fill="#a4e276"/><path d="m225.933594 361.667969c0 24.351562-14.019532 44.09375-14.019532 44.09375s-14.015624-19.742188-14.015624-44.09375c0-24.355469 14.015624-44.097657 14.015624-44.097657s14.019532 19.742188 14.019532 44.097657zm0 0" fill="#64c37d"/><path d="m205.933594 361.667969c0 24.351562-14.019532 44.09375-14.019532 44.09375s-14.015624-19.742188-14.015624-44.09375c0-24.355469 14.015624-44.097657 14.015624-44.097657s14.019532 19.742188 14.019532 44.097657zm0 0" fill="#ff3f62"/><path d="m70.070312 291.855469h-17.570312v-17.570313h-27.429688v17.570313h-17.570312v27.429687h17.570312v17.570313h27.429688v-17.570313h17.570312zm0 0" fill="#a4e276"/><path d="m377.355469 414.429688h-14.914063v-14.914063h-23.28125v14.914063h-14.910156v23.277343h14.910156v14.914063h23.28125v-14.914063h14.914063zm0 0" fill="#a4e276"/><path d="m167.265625 7.5h30v112.9375h-30zm0 0" fill="#fbb984"/><path d="m222.230469 21.242188h30v90.285156h-30zm0 0" fill="#fbb984"/><path d="m277.195312 33.675781h30v73.496094h-30zm0 0" fill="#fbb984"/><path d="m112.304688 21.242188h30v99.195312h-30zm0 0" fill="#fbb984"/><path d="m111.523438 384.105469c0-55.878907 41.519531-102.0625 95.390624-109.378907-4.902343-.667968-9.910156-1.011718-15-1.011718-60.96875 0-110.390624 49.425781-110.390624 110.390625 0 60.96875 49.421874 110.394531 110.390624 110.394531 5.089844 0 10.097657-.34375 15-1.011719-53.871093-7.316406-95.390624-53.5-95.390624-109.382812zm0 0" fill="#64c37d"/><path d="m214.730469 201.03125v55.363281h15v-49.152343l43.558593-43.554688-10.605468-10.609375zm0 0"/><path d="m198.03125 313.230469-6.117188-8.613281-6.113281 8.613281c-.628906.882812-15.402343 21.996093-15.402343 48.4375 0 21.984375 10.214843 40.285156 14.015624 46.339843v11.292969h15v-11.292969c3.804688-6.054687 14.019532-24.355468 14.019532-46.339843 0-26.441407-14.773438-47.554688-15.402344-48.4375zm-6.117188 19.988281c3.226563 7.269531 6.519532 17.398438 6.519532 28.449219s-3.292969 21.179687-6.519532 28.449219c-3.222656-7.269532-6.515624-17.398438-6.515624-28.449219s3.292968-21.179688 6.515624-28.449219zm0 0"/><path d="m184.414062 429.300781h15v15h-15zm0 0"/><path d="m184.414062 454.300781h15v15h-15zm0 0"/><path d="m266.238281 345.71875h15v76.777344h-15zm0 0"/><path d="m104.800781 341.332031h15v85.550781h-15zm0 0"/><path d="m60 344.355469v-17.570313h17.570312v-42.429687h-17.570312v-17.570313h-42.429688v17.570313h-17.570312v42.429687h17.570312v17.570313zm-45-32.570313v-12.429687h17.570312v-17.570313h12.429688v17.570313h17.570312v12.429687h-17.570312v17.570313h-12.429688v-17.570313zm0 0"/><path d="m369.941406 406.929688v-14.914063h-38.28125v14.914063h-14.910156v38.277343h14.910156v14.914063h38.28125v-14.914063h14.914063v-38.277343zm-.085937 23.277343h-14.914063v14.914063h-8.28125v-14.914063h-14.910156v-8.277343h14.910156v-14.914063h8.28125v14.914063h14.914063zm0 0"/><path d="m328.714844 326.855469v10.714843h-10.714844v15h10.714844v10.714844h15v-10.714844h10.714844v-15h-10.714844v-10.714843zm0 0"/><path d="m51.566406 396.570312h-15v10.714844h-10.710937v15h10.710937v10.714844h15v-10.714844h10.714844v-15h-10.714844zm0 0"/><path d="m309.808594 384.105469c0-65.003907-52.886719-117.890625-117.894532-117.890625-65.007812 0-117.890624 52.886718-117.890624 117.890625 0 53.191406 35.402343 98.261719 83.882812 112.894531h-38.105469v-9.699219h-15v24.699219h176.4375v-26.449219h-15v11.449219h-40.3125c48.476563-14.632812 83.882813-59.707031 83.882813-112.894531zm-117.894532 102.894531c-56.734374 0-102.890624-46.15625-102.890624-102.894531 0-56.734375 46.15625-102.890625 102.890624-102.890625 56.734376 0 102.894532 46.15625 102.894532 102.890625 0 56.738281-46.15625 102.894531-102.894532 102.894531zm0 0"/><path d="m112.628906 279.703125-42.847656-43.265625v-108.5h101.054688v18.785156l-26.695313 26.691406h-53.261719v15h40.621094l22.445312 22.445313v40.179687h15v-46.390624l-17.410156-17.410157 34.300782-34.300781v-25h43.894531v-8.910156h54.964843v-4.355469h32.050782v121.964844l-44.394532 43.964843 10.554688 10.660157 48.839844-48.367188v-216.71875h-47.050782v-12.433593h-54.964843v-13.742188h-69.964844v13.742188h-54.960937v99.195312h-50.023438v129.667969l47.191406 47.652343zm204.121094-238.527344v58.496094h-32.054688v-58.496094zm-47.054688-12.433593v75.285156h-39.964843v-75.285156zm-54.964843 84.195312h-39.964844v-97.9375h39.964844zm-94.929688-84.195312h39.964844v84.195312h-39.964844zm0 0"/><path d="m275.039062 263.871094-10.554687-10.65625 27.265625-27.003906v-25.535157h15v31.792969zm31.710938-73.195313h-15v-15h15zm0-25h-15v-15h15zm0 0" fill="#fff"/><path d="m256.238281 412.144531h-15v-45.289062h15zm0-55.289062h-15v-15h15zm0-25h-15v-15h15zm0 0" fill="#fff"/></svg>