<svg height="512pt" viewBox="0 0 512 512" width="512pt" xmlns="http://www.w3.org/2000/svg"><path d="m362.890625 114.390625v105.523437c-26.214844 26.210938-40.910156 40.910157-67.125 67.121094h-79.53125c-26.214844-26.210937-40.910156-40.90625-67.125-67.121094v-105.523437c0-59.035156 47.859375-106.890625 106.890625-106.890625 59.035156 0 106.890625 47.855469 106.890625 106.890625zm0 0" fill="#ffdaaa"/><path d="m504.5 358.390625-49.957031-49.957031h-128.402344v-51.773438c-9.195313 9.195313-18.628906 18.628906-30.375 30.375h-79.53125l-30.375-30.375v51.773438h-128.402344c-19.511719 19.507812-30.449219 30.449218-49.957031 49.957031v146.109375h497zm0 0" fill="#ff3f62"/><path d="m461.726562 315.617188-7.183593-7.183594h-128.402344v-21.773438l-.375.375h-109.53125l-.375-.375v21.773438h-112.777344l182.914063 182.914062zm0 0" fill="#c70024"/><path d="m149.109375 122v39.910156c14.375 14.375 22.429687 22.433594 36.804687 36.804688h45.945313l24.136719-24.140625 24.140625 24.140625h45.953125c14.371094-14.371094 22.429687-22.429688 36.800781-36.804688v-39.910156l-106.894531 9zm0 0" fill="#787680"/><path d="m290.492188 173.714844-13.4375-13.4375c1.054687-2.886719 1.191406-3.265625 2.25-6.152344l58.585937-4.933594v2.367188l-22.160156 22.15625zm-94.222657 0-22.160156-22.15625v-2.367188l58.582031 4.933594c1.054688 2.886719 1.195313 3.265625 2.25 6.152344l-13.4375 13.4375zm0 0" fill="#fff"/><path d="m256 7.5c-59.035156 0-106.890625 47.855469-106.890625 106.890625v2.847656c25.304687-4.527343 45.714844-23.1875 52.761719-47.523437 12.273437 16.539062 31.949218 27.261718 54.128906 27.261718s41.855469-10.71875 54.128906-27.261718c7.046875 24.335937 27.457032 42.996094 52.761719 47.523437v-2.847656c0-59.035156-47.855469-106.890625-106.890625-106.890625zm0 0" fill="#ffb655"/><path d="m438.910156 308.433594h-112.769531v-51.773438c-9.195313 9.195313-18.628906 18.628906-30.375 30.375h-79.53125l-30.375-30.375v51.773438h-112.777344l182.914063 182.917968zm0 0" fill="#787680"/><path d="m179.109375 114.390625c0-53.945313 39.960937-98.554687 91.890625-105.847656-4.898438-.6875-9.90625-1.042969-15-1.042969-59.03125 0-106.886719 47.855469-106.886719 106.890625v105.519531l67.121094 67.125h30l-67.121094-67.125v-105.519531zm0 0" fill="#fbb984"/><path d="m87.457031 308.433594h-30c-19.511719 19.507812-30.449219 30.449218-49.957031 49.957031v146.109375h30v-146.109375c19.507812-19.507813 30.445312-30.449219 49.957031-49.957031zm0 0" fill="#c70024"/><path d="m179.109375 161.910156v-37.382812l-30-2.527344v39.910156c14.375 14.375 22.429687 22.433594 36.804687 36.804688h30c-14.375-14.371094-22.429687-22.429688-36.804687-36.804688zm0 0" fill="#57565c"/><path d="m271 8.542969c-4.902344-.6875-9.910156-1.042969-15-1.042969-59.03125 0-106.890625 47.855469-106.890625 106.890625v2.847656c11.460937-2.050781 21.917969-7 30.582031-14.0625 5.089844-48.808593 43.023438-87.851562 91.308594-94.632812zm0 0" fill="#ff7956"/><path d="m103.082031 308.433594h-30l182.914063 182.914062 15-15zm0 0" fill="#57565c"/><path d="m215.859375 286.660156-30-30v71.773438h30zm0 0" fill="#57565c"/><path d="m457.648438 300.933594h-124.007813v-41.167969l36.75-36.746094v-109.175781h-.003906c-.292969-62.824219-51.496094-113.84375-114.386719-113.84375s-114.09375 51.019531-114.386719 113.84375h-.003906v109.175781l36.75 36.75v41.164063h-124.007813l-54.351562 54.351562v156.714844h512v-156.71875zm-301.039063-170.777344 99.386719 8.371094 99.394531-8.371094v28.648438l-32.410156 32.410156h-39.738281l-27.246094-27.246094-27.242188 27.246094h-39.734375l-32.40625-32.410156v-28.648438zm16.613281-13.652344c13.386719-7.410156 24.375-18.832031 31.1875-32.664062 13.808594 13.089844 32.332032 20.636718 51.589844 20.636718s37.78125-7.546874 51.589844-20.636718c6.8125 13.832031 17.800781 25.253906 31.1875 32.664062l-82.78125 6.96875zm82.777344-101.503906c52.480469 0 95.589844 40.882812 99.152344 92.472656-18.046875-6.320312-32.417969-21.191406-37.820313-39.84375l-4.210937-14.535156-9.019532 12.152344c-11.421874 15.398437-28.957031 24.230468-48.101562 24.230468s-36.679688-8.832031-48.105469-24.230468l-9.015625-12.152344-4.210937 14.535156c-5.402344 18.652344-19.777344 33.523438-37.820313 39.84375 3.5625-51.589844 46.671875-92.472656 99.152344-92.472656zm-99.390625 165.019531 26.195313 26.195313h52.160156l21.03125-21.035156 21.03125 21.035156h52.164062l26.195313-26.195313v36.785157l-62.730469 62.730468h-73.316406l-62.730469-62.730468zm340.390625 316.980469h-71.597656v-82.265625h-15v82.265625h-146.902344v-2.546875l160.714844-160.714844-10.605469-10.605469-150.109375 150.105469v-44.410156h-15v44.417969l-150.113281-150.117188-10.609375 10.605469 160.722656 160.726563v2.539062h-146.902344v-82.265625h-15v82.265625h-71.597656v-135.503906l45.5625-45.5625h117.796875v13.921875h15v-55.089844l19.769531 19.769531h85.742188l19.769531-19.769531v55.089844h15v-13.921875h117.796875l45.5625 45.5625zm0 0"/><path d="m318.839844 181.214844 26.550781-26.550782v-13.628906l-71.488281 6.019532-5.535156 15.140624 19.019531 19.019532zm1.832031-23.046875-8.046875 8.046875h-19.027344l-5.316406-5.320313zm0 0"/><path d="m224.609375 181.214844 19.019531-19.019532-5.535156-15.140624-71.484375-6.019532v13.628906l26.550781 26.550782zm-.894531-20.320313-5.320313 5.320313h-19.019531l-8.042969-8.042969zm0 0"/><g fill="#fff"><path d="m483.828125 476.328125h-15v-45h15zm0-55h-15v-15h15zm0-25h-15v-15h15zm0 0"/><path d="m294.140625 50.542969c-11.5-6.898438-24.6875-10.542969-38.140625-10.542969v-15c16.171875 0 32.023438 4.382812 45.855469 12.679688zm0 0"/><path d="m295.871094 426.726562-10.609375-10.605468 36.210937-36.210938 10.605469 10.609375zm43.277344-43.28125-10.605469-10.605468 10.605469-10.605469 10.609374 10.605469zm17.679687-17.675781-10.605469-10.605469 10.605469-10.605468 10.605469 10.605468zm0 0"/></g></svg>