<svg height="512pt" viewBox="-27 0 511 512" width="512pt" xmlns="http://www.w3.org/2000/svg"><path d="m52.335938 274.558594c-17.316407 17.3125-27.023438 27.019531-44.335938 44.332031v185.609375h441.054688v-185.609375l-44.332032-44.332031zm0 0" fill="#bddbff"/><path d="m285.695312 504.5-22.015624-191.859375h-30.3125l-22.015626 191.859375zm0 0" fill="#57a4ff"/><path d="m259.660156 270.203125h-22.269531l-11.339844 14.230469 7.316407 28.207031h30.3125l7.316406-28.207031zm0 0" fill="#57a4ff"/><path d="m290.773438 274.558594v-60.144532c-8.160157 8.160157-16.53125 16.53125-26.957032 26.957032h-70.578125l-26.957031-26.957032v60.144532zm0 0" fill="#ffdaaa"/><path d="m323.386719 102.355469v79.445312c-23.265625 23.265625-36.304688 36.304688-59.570313 59.570313h-70.578125c-23.261719-23.265625-36.304687-36.304688-59.566406-59.570313v-79.445312c0-52.386719 42.46875-94.855469 94.855469-94.855469 52.390625 0 94.859375 42.46875 94.859375 94.855469zm0 0" fill="#ffdaaa"/><g fill="#fbb984"><path d="m163.671875 102.355469c0-47.28125 34.597656-86.488281 79.855469-93.675781-4.882813-.777344-9.894532-1.179688-15-1.179688-52.386719 0-94.855469 42.46875-94.855469 94.855469v79.449219l59.566406 59.566406h30l-59.566406-59.566406zm0 0"/><path d="m237.390625 157.855469h-42.296875c-3.289062-3.289063-5.132812-5.132813-8.421875-8.421875v-36.277344h59.140625v36.277344c-3.289062 3.289062-5.132812 5.132812-8.421875 8.421875zm0 0"/><path d="m279.667969 157.855469h42.292969c3.289062-3.289063 5.132812-5.132813 8.425781-8.421875v-36.277344h-59.144531v36.277344c3.289062 3.289062 5.136718 5.132812 8.425781 8.421875zm0 0"/></g><path d="m207.390625 157.855469h-42.296875c-3.289062-3.289063-5.132812-5.132813-8.421875-8.421875v-36.277344h59.140625v36.277344c-3.289062 3.289062-5.132812 5.132812-8.421875 8.421875zm0 0" fill="#fff"/><path d="m249.667969 157.855469h42.292969c3.289062-3.289063 5.132812-5.132813 8.425781-8.421875v-36.277344h-59.144531v36.277344c3.289062 3.289062 5.136718 5.132812 8.425781 8.421875zm0 0" fill="#fff"/><path d="m321.523438 83.570312c-8.714844-43.386718-47.039063-76.070312-92.996094-76.070312-18.289063 0-35.371094 5.175781-49.855469 14.144531v26.070313c0 19.800781 16.054687 35.855468 35.855469 35.855468zm0 0" fill="#787680"/><path d="m134.613281 88.941406c1.078125.085938 2.167969.128906 3.273438.128906 22.523437 0 40.785156-18.257812 40.785156-40.785156v-26.640625c-23.402344 14.484375-40.035156 38.863281-44.058594 67.296875zm0 0" fill="#787680"/><path d="m193.238281 241.371094-26.957031-26.957032v60.144532h30v-33.1875zm0 0" fill="#fbb984"/><path d="m217.390625 270.203125-51.109375-18.773437v23.128906l19.960938 34.761718zm0 0" fill="#bddbff"/><path d="m265.695312 504.5-22.015624-191.859375h-30.3125l-22.015626 191.859375zm0 0" fill="#787680"/><path d="m239.660156 270.203125h-22.269531l-11.339844 14.230469 7.316407 28.207031h30.3125l7.316406-28.207031zm0 0" fill="#787680"/><path d="m239.667969 270.203125 51.105469-18.773437v23.128906l-19.960938 34.761718zm0 0" fill="#bddbff"/><path d="m82.335938 274.558594h-30c-17.316407 17.3125-27.023438 27.019531-44.335938 44.332031v185.609375h30v-185.609375c17.3125-17.3125 27.019531-27.019531 44.335938-44.332031zm0 0" fill="#57a4ff"/><path d="m186.671875 149.433594v-36.277344h-30v36.277344c3.289063 3.289062 5.132813 5.132812 8.421875 8.421875h30c-3.289062-3.289063-5.132812-5.132813-8.421875-8.421875zm0 0" fill="#d1e7f8"/><path d="m271.242188 113.15625h-30v36.277344l8.425781 8.421875h30l-8.425781-8.421875zm0 0" fill="#d1e7f8"/><path d="m208.671875 47.714844v-26.070313c10.441406-6.464843 22.234375-10.960937 34.855469-12.964843-4.882813-.777344-9.894532-1.179688-15-1.179688-18.289063 0-35.367188 5.175781-49.855469 14.144531v26.070313c0 19.800781 16.054687 35.855468 35.855469 35.855468h30c-19.800782 0-35.855469-16.050781-35.855469-35.855468zm0 0" fill="#57565c"/><path d="m167.199219 76.644531c2.546875-9.066406 6.40625-17.578125 11.359375-25.328125.074218-1 .113281-2.011718.113281-3.03125v-26.640625c-23.402344 14.484375-40.03125 38.863281-44.058594 67.296875 1.082031.085938 2.171875.128906 3.273438.128906 11.503906 0 21.894531-4.761718 29.3125-12.425781zm0 0" fill="#57565c"/><path d="m186.28125 274.558594v-15.78125l-20-7.347656v23.128906l19.960938 34.761718 11.621093-14.59375zm0 0" fill="#57a4ff"/><path d="m213.367188 312.640625-22.015626 191.859375h20l22.015626-191.859375zm0 0" fill="#57565c"/><path d="m237.390625 270.203125h-20l-11.339844 14.230469 7.316407 28.207031h20l-7.316407-28.207031zm0 0" fill="#57565c"/><path d="m259.667969 270.203125 31.105469-11.425781v-7.347656l-51.105469 18.773437 31.144531 39.117187 8.378906-14.59375zm0 0" fill="#57a4ff"/><path d="m407.828125 267.058594h-109.554687c0-22.148438 0-27.402344 0-49.539063l32.613281-32.609375v-82.550781c0-56.441406-45.917969-102.359375-102.359375-102.359375-56.4375 0-102.355469 45.917969-102.355469 102.355469v82.554687l32.609375 32.609375v49.539063h-109.554688l-48.726562 48.726562v196.214844h456.054688v-196.214844zm-91.941406-164.703125v17.652343h-8v-14.351562h-74.144531v14.351562h-10.429688v-14.351562h-74.140625v14.351562h-8c0-19.195312-.0625-19.632812.203125-23.578124 16.132812-1.15625 30.09375-10.265626 37.96875-23.425782 7.878906 10.929688 20.710938 18.066406 35.183594 18.066406h86.996094v-15h-86.996094c-15.636719 0-28.355469-12.722656-28.355469-28.355468v-21.734375c12.554687-6.992188 26.996094-10.980469 42.355469-10.980469 48.167968 0 87.359375 39.1875 87.359375 87.355469zm-23 18.300781v25.667969l-4.03125 4.03125h-36.082031l-4.03125-4.03125v-25.667969zm-84.574219 0v25.667969l-4.03125 4.03125h-36.078125l-4.03125-4.03125v-25.667969zm-37.140625-84.132812v11.761718c0 16.332032-11.828125 29.945313-27.363281 32.746094 4.414062-17.53125 14.140625-32.972656 27.363281-44.507812zm-30 98.484374h8v17.53125l12.816406 12.816407h48.507813l12.816406-12.816407v-17.53125h10.429688v17.53125l12.820312 12.816407h48.503906l12.820313-12.816407v-17.53125h8v43.6875l-55.175781 55.175782h-64.363282l-55.175781-55.175782zm32.609375 97.515626 16.351562 16.347656h76.792969l16.347657-16.351563v13.675781l-44.941407 16.507813h-19.609375l-44.941406-16.507813zm78.226562 41.136718 31.265626-11.484375v10.382813l-13.46875 23.457031c-.148438-.191406-17.789063-22.339844-17.796876-22.355469zm-64.757812 22.355469-13.46875-23.457031v-10.382813l31.265625 11.484375s-17.660156 22.183594-17.796875 22.355469zm33.753906-18.3125h15.042969l6.75 8.476563-4.917969 18.960937h-18.707031l-4.917969-18.957031zm220.550782 219.296875h-61.851563v-128.105469h-15v128.105469h-92.316406l-18.960938-165.214844-14.902343 1.710938 18.761718 163.503906h-57.523437l18.761719-163.503906-14.902344-1.710938-18.957032 165.214844h-92.3125v-128.105469h-15v128.105469h-61.851562v-175l39.9375-39.941406h106.503906l23.292969 40.570312 17.328125-21.765625 5.003906 19.28125h41.917969l5-19.289062 17.335937 21.773437 23.292969-40.570312h106.503907l39.9375 39.941406zm0 0"/><path d="m277.117188 63.285156c-11.960938-14.796875-29.671876-23.285156-48.589844-23.285156v-15c23.472656 0 45.433594 10.519531 60.253906 28.855469zm0 0" fill="#fff"/><path d="m431.554688 479.5h-15v-90.253906h15zm0-100.253906h-15v-15h15zm0-25h-15v-15h15zm0 0" fill="#fff"/><path d="m231.5625 492.121094-5.914062-51.566406 14.902343-1.707032 5.914063 51.566406zm-7.054688-61.5-1.710937-14.902344 14.902344-1.710938 1.707031 14.902344zm-2.851562-24.835938-1.710938-14.902344 14.902344-1.710937 1.710938 14.902344zm0 0" fill="#fff"/></svg>