<svg height="512pt" viewBox="-46 0 512 512" width="512pt" xmlns="http://www.w3.org/2000/svg"><path d="m237.648438 121.433594v-20.402344c-3.691407 3.6875-7.476563 7.472656-12.1875 12.183594h-31.902344l-12.183594-12.183594v20.402344s-53.035156 0-99.441406 0v43.78125h71.671875v146.191406s-16.234375 60.589844-30.066407 112.21875c14.328126 3.835938 28.90625 7.742188 42.332032 11.339844l31.945312-118.871094h23.65625l31.761719 118.847656c13.402344-3.589844 27.949219-7.488281 42.246094-11.316406-13.832031-51.628906-30.066407-112.21875-30.066407-112.21875v-146.191406h71.671876v-43.78125zm0 0" fill="#a4e276"/><path d="m81.933594 121.433594h30v43.78125h-30zm0 0" fill="#64c37d"/><path d="m153.539062 423.625c13.832032-51.628906 30.066407-112.21875 30.066407-112.21875v-146.191406s-12.410157 0-30 0v146.191406s-16.234375 60.589844-30.066407 112.21875c14.328126 3.835938 28.90625 7.742188 42.332032 11.339844l2.015625-7.496094c-4.777344-1.28125-9.574219-2.566406-14.347657-3.84375zm0 0" fill="#64c37d"/><path d="m252.386719 50.375v35.914062c-10.515625 10.511719-16.410157 16.410157-26.925781 26.925782h-31.902344c-10.515625-10.515625-16.410156-16.414063-26.925782-26.925782v-35.914062c0-23.679688 19.195313-42.875 42.878907-42.875 23.679687 0 42.875 19.195312 42.875 42.875zm0 0" fill="#ffdaaa"/><g fill="#ffe477"><path d="m153.605469 258.367188h111.808593v28.429687h-111.808593zm0 0"/><path d="m209.507812 163.867188c23.433594 0 42.429688-18.996094 42.429688-42.433594h-14.289062v-20.40625c-3.691407 3.691406-7.476563 7.472656-12.1875 12.1875h-31.902344l-12.183594-12.1875v20.40625s-11.945312 0-14.300781 0c0 23.4375 18.996093 42.433594 42.433593 42.433594zm0 0"/><path d="m269.707031 496.582031c4.984375 2.878907 7.777344 4.492188 12.761719 7.371094l32.222656-8.632813s-8.945312-33.378906-19.210937-71.695312c-14.296875 3.828125-28.84375 7.726562-42.246094 11.316406zm0 0"/><path d="m104.328125 495.320312 32.222656 8.632813c4.984375-2.878906 7.777344-4.492187 12.761719-7.371094l16.558594-61.617187c-13.425782-3.597656-28.003906-7.503906-42.332032-11.339844-10.265624 38.316406-19.210937 71.695312-19.210937 71.695312zm0 0"/><path d="m23.304688 121.433594-15.804688 15.804687v27.976563h74.433594v-43.78125c-27.359375 0-58.628906 0-58.628906 0zm0 0"/><path d="m411.519531 137.238281-15.804687-15.804687h-58.628906v43.78125h74.433593zm0 0"/></g><path d="m252.078125 86.597656c21.726563 6.929688 41.148437 19.023438 56.824219 34.835938h-71.253906v-20.402344zm-98.472656 224.808594v-146.191406s-31.179688 0-72.921875 0c-7.152344 16.808594-11.105469 35.300781-11.105469 54.722656 0 53.957031 30.539063 100.78125 75.277344 124.132812 5.195312-19.402343 8.75-32.664062 8.75-32.664062zm27.769531-189.972656v-20.402344l-14.433594-14.433594c-21.726562 6.929688-41.148437 19.023438-56.824218 34.835938zm40.097656 194.660156h-23.65625l-11.261718 41.902344c7.46875 1.234375 15.136718 1.875 22.957031 1.875 7.886719 0 15.621093-.652344 23.152343-1.90625zm116.867188-150.878906h-72.925782v146.191406s3.554688 13.261719 8.753907 32.664062c44.738281-23.351562 75.277343-70.175781 75.277343-124.132812 0-19.421875-3.957031-37.914062-11.105468-54.722656zm0 0" fill="#ffb655"/><path d="m196.632812 86.289062v-35.914062c0-18.402344 11.597657-34.097656 27.878907-40.175781-4.667969-1.746094-9.722657-2.699219-15-2.699219-23.683594 0-42.878907 19.195312-42.878907 42.875v35.914062c10.515626 10.511719 16.410157 16.410157 26.925782 26.925782h30c-10.515625-10.515625-16.410156-16.410156-26.925782-26.925782zm0 0" fill="#fbb984"/><path d="m153.605469 258.367188h30v28.429687h-30zm0 0" fill="#ffb655"/><path d="m197.074219 121.433594h14.300781v-8.21875h-17.816406l-12.183594-12.183594v20.402344s-11.945312 0-14.300781 0c0 23.4375 19 42.433594 42.433593 42.433594 5.28125 0 10.335938-.964844 15-2.726563-16.03125-6.0625-27.433593-21.550781-27.433593-39.707031zm0 0" fill="#ffb655"/><path d="m299.707031 496.582031-16.472656-61.640625c4.636719-1.242187 9.40625-2.519531 14.253906-3.816406-.660156-2.472656-1.332031-4.976562-2.007812-7.5-14.296875 3.828125-28.84375 7.726562-42.246094 11.316406l16.472656 61.640625c4.984375 2.878907 7.777344 4.492188 12.761719 7.371094l20.492188-5.492187c-1-.578126-2.0625-1.191407-3.253907-1.878907zm0 0" fill="#ffb655"/><path d="m134.332031 495.320312s7.800781-29.128906 17.199219-64.195312c-9.179688-2.460938-18.636719-4.996094-27.992188-7.5-10.265624 38.316406-19.210937 71.695312-19.210937 71.695312l32.222656 8.632813c3.796875-2.191406 6.320313-3.652344 9.507813-5.492187zm0 0" fill="#ffb655"/><path d="m53.304688 121.433594c-16.773438 0-30 0-30 0l-15.804688 15.804687v27.976563h30v-27.976563zm0 0" fill="#ffb655"/><path d="m337.085938 121.433594h30v43.78125h-30zm0 0" fill="#ffb655"/><path d="m267.648438 101.03125 5.664062-5.667969c-6.773438-3.476562-13.871094-6.417969-21.230469-8.765625l-14.433593 14.433594v20.402344h30zm0 0" fill="#ff7956"/><path d="m175.707031 95.363281-8.765625-8.765625c-21.726562 6.929688-41.148437 19.023438-56.824218 34.835938h30.003906c10.363281-10.457032 22.363281-19.285156 35.585937-26.070313zm0 0" fill="#ff7956"/><path d="m216.558594 357.996094 8.078125-30.066406-3.164063-11.835938h-23.65625l-11.261718 41.902344c7.46875 1.230468 15.136718 1.875 22.957031 1.875 5.066406 0 10.070312-.269532 15-.796875-2.675781-.285157-5.328125-.644531-7.953125-1.078125zm0 0" fill="#ff7956"/><path d="m295.414062 311.40625v-146.191406h-30v146.191406s3.554688 13.261719 8.753907 32.664062c9.113281-4.757812 17.636719-10.488281 25.429687-17.054687-2.597656-9.699219-4.183594-15.609375-4.183594-15.609375zm0 0" fill="#ff7956"/><path d="m99.578125 219.9375c0-19.421875 3.957031-37.914062 11.105469-54.722656h-30c-7.152344 16.808594-11.105469 35.300781-11.105469 54.722656 0 53.957031 30.539063 100.78125 75.277344 124.132812 1.726562-6.453124 3.273437-12.222656 4.566406-17.054687-30.476563-25.667969-49.84375-64.113281-49.84375-107.078125zm0 0" fill="#ff7956"/><path d="m173.605469 279.296875h71.808593v15h-71.808593zm0 0"/><path d="m173.605469 250.867188h71.808593v15h-71.808593zm0 0"/><path d="m214.9375 189.898438-21.464844 21.46875c-2.992187 2.992187-7.863281 2.992187-10.859375 0-2.996093-3-3-7.859376 0-10.859376 2.996094-2.992187 7.867188-2.992187 10.859375 0l10.605469-10.605468c-8.839844-8.84375-23.226563-8.84375-32.070313 0-8.863281 8.859375-8.863281 23.207031 0 32.070312 8.863282 8.863282 23.207032 8.867188 32.074219 0l21.464844-21.464844c2.992187-2.992187 7.863281-2.996093 10.855469 0 3 2.996094 3.003906 7.859376 0 10.859376-2.992188 2.992187-7.863282 2.992187-10.855469 0l-10.609375 10.605468c8.863281 8.863282 23.207031 8.867188 32.074219 0 8.863281-8.859375 8.867187-23.207031 0-32.074218-8.84375-8.839844-23.226563-8.839844-32.074219 0zm0 0"/><path d="m398.824219 113.933594h-153.679688v-9.796875l14.742188-14.742188v-39.019531c0-27.777344-22.597657-50.375-50.375-50.375-27.78125 0-50.378907 22.597656-50.378907 50.375v39.019531l14.742188 14.742188v9.796875h-153.675781l-20.199219 20.199218v38.582032h146.105469v137.703125c-2.246094 8.382812-48.734375 181.898437-50.960938 190.203125l42.46875 11.378906 18.136719-10.472656c12.339844-45.910156 44.695312-166.3125 47.820312-177.933594h12.144532c2.757812 10.316406 45.316406 169.570312 47.550781 177.929688l18.144531 10.476562 42.46875-11.378906c-2.199218-8.199219-49.519531-184.8125-50.960937-190.203125v-137.703125h146.105469v-38.582032zm-324.390625 43.777344h-59.433594v-17.363282l11.410156-11.414062h48.023438zm68.441406 333.929687-7.382812 4.261719-21.976563-5.886719 15.328125-57.207031 27.835938 7.460937zm66.636719-476.640625c19.503906 0 35.375 15.871094 35.375 35.375v32.804688l-22.53125 22.535156h-25.691407l-22.53125-22.535156v-32.804688c0-19.503906 15.871094-35.375 35.378907-35.375zm-19.058594 105.714844h38.117187l1.574219-1.578125v9.796875h13.484375c-3.441406 15.671875-17.433594 27.433594-34.121094 27.433594s-30.679687-11.761719-34.121093-27.433594h13.488281v-9.796875zm93.074219 375.1875-7.375-4.261719-13.738282-51.394531 27.765626-7.4375 15.324218 57.207031zm46.058594-338.191406h-71.671876v154.683593l.257813.957031c.082031.3125 14.800781 55.230469 28.125 104.96875-14.328125 3.835938-14.230469 3.8125-27.753906 7.433594l-31.308594-117.160156h-35.167969l-31.492187 117.1875-27.847657-7.460938c13.324219-49.738281 28.039063-104.660156 28.121094-104.972656l.257813-.957031v-154.679687h-71.671875v-28.773438h70.703125c3.628906 23.984375 24.386719 42.429688 49.371093 42.429688 24.984376 0 45.738282-18.445313 49.367188-42.429688h70.710938zm74.433593 0h-59.433593v-28.773438h48.023437l11.410156 11.410156zm0 0"/><path d="m66.65625 183.359375c-3.039062 11.902344-4.578125 24.207031-4.578125 36.578125 0 46.902344 22.65625 91.441406 60.609375 119.144531l8.84375-12.117187c-34.097656-24.886719-54.453125-64.898438-54.453125-107.027344 0-11.117188 1.382813-22.175781 4.113281-32.867188zm0 0"/><path d="m287.492188 326.964844 8.84375 12.117187c37.949218-27.703125 60.609374-72.242187 60.609374-119.144531 0-12.371094-1.542968-24.675781-4.582031-36.578125l-14.53125 3.710937c2.726563 10.6875 4.113281 21.746094 4.113281 32.867188 0 42.128906-20.355468 82.140625-54.453124 107.027344zm0 0"/><path d="m220.410156 93.515625-10.605468-10.605469 10.082031-10.082031v-.53125h.53125l1.664062-1.667969 1.667969 1.667969h11.136719v6.742187zm14.476563-31.222656h-15v-11.917969c0-.601562-.050781-1.199219-.152344-1.78125l14.78125-2.566406c.246094 1.429687.371094 2.890625.371094 4.351562zm-17.660157-18.839844c-1.972656-2.195313-4.785156-3.453125-7.714843-3.453125v-15c7.179687 0 14.054687 3.070312 18.871093 8.421875zm0 0" fill="#fff"/><path d="m269.085938 133.9375h53.707031v15h-53.707031zm0 0" fill="#fff"/><path d="m263.742188 411.421875-9.5625-35.679687 14.492187-3.882813 9.558594 35.679687zm-12.148438-45.339844-3.882812-14.488281 14.488281-3.882812 3.882812 14.488281zm-6.46875-24.148437-3.882812-14.488282 14.488281-3.882812 3.882812 14.488281zm0 0" fill="#fff"/><path d="m295.6875 306.964844-10.542969-10.667969c9.105469-9.003906 16.453125-19.453125 21.835938-31.058594l13.609375 6.3125c-6.140625 13.234375-14.515625 25.148438-24.902344 35.414063zm28.957031-45.265625-14.105469-5.101563c1.585938-4.375 2.894532-8.90625 3.894532-13.457031l14.652344 3.21875c-1.140626 5.1875-2.636719 10.351563-4.441407 15.339844zm6.269531-25.832031-14.875-1.933594c.601563-4.613282.902344-9.320313.902344-13.996094h15c0 5.320312-.34375 10.675781-1.027344 15.929688zm0 0" fill="#fff"/></svg>