<svg height="512pt" viewBox="-27 0 511 512" width="512pt" xmlns="http://www.w3.org/2000/svg"><path d="m183.3125 178.832031c-5.222656 5.21875-8.148438 8.144531-13.371094 13.363281v65.519532h-8.449218v37.796875h47.148437v147.535156h37.476563v-97.53125h20.765624v97.53125h37.476563v-225.820313c3.277344-1.359374 3.519531-1.460937 6.800781-2.820312l42.984375 42.988281 26.5-26.503906-52.023437-52.023437h-48.035156v-17.46875c-3.15625 3.15625-6.398438 6.398437-10.429688 10.429687h-27.3125l-10.433594-10.429687v17.46875zm0 0" fill="#ff3f62"/><path d="m199.941406 257.714844v-65.519532c5.214844-5.210937 8.140625-8.136718 13.351563-13.34375l-29.980469-.019531c-5.222656 5.21875-8.148438 8.144531-13.371094 13.363281v65.519532h-8.449218v37.796875h30v-37.796875zm0 0" fill="#c70024"/><path d="m208.640625 295.511719h30v147.535156h-30zm0 0" fill="#c70024"/><path d="m293.207031 118.035156v30.742188c-9.003906 9-14.050781 14.046875-23.050781 23.050781h-27.3125c-9-9.003906-14.046875-14.050781-23.050781-23.050781v-30.742188c0-20.273437 16.433593-36.707031 36.707031-36.707031s36.707031 16.433594 36.707031 36.707031zm0 0" fill="#ffdaaa"/><path d="m208.640625 504.5h28.558594c3.484375-3.484375 5.4375-5.4375 8.917969-8.921875v-52.53125h-37.476563zm0 0" fill="#fff"/><path d="m380.644531 230.890625 40.867188-40.863281-16.9375-16.933594h-19.132813l-31.296875 31.296875zm0 0" fill="#fff"/><path d="m266.882812 443.042969v52.535156l8.917969 8.921875h28.558594v-61.457031zm0 0" fill="#fff"/><path d="m280.585938 178.867188v-17.46875c-3.15625 3.15625-6.394532 6.398437-10.429688 10.429687h-27.3125l-10.429688-10.429687v17.46875h-28.1875l52.023438 52.023437 52.023438-52.023437zm0 0" fill="#fff"/><path d="m208.640625 295.511719h95.71875v28.699219h-95.71875zm0 0" fill="#fff"/><path d="m8 37.5h141.203125v141.203125h-141.203125zm0 0" fill="#ffb655"/><path d="m59.78125 59.28125h89.421875v97.640625h-89.421875zm0 0" fill="#ff7956"/><path d="m29.78125 59.28125h97.640625v97.640625h-97.640625zm0 0" fill="#ffb655"/><path d="m8 37.5h30v141.203125h-30zm0 0" fill="#ff7956"/><path d="m29.78125 59.28125h30v97.640625h-30zm0 0" fill="#ff7956"/><path d="m359.4375 7.5h91.5v91.5h-91.5zm0 0" fill="#ffb655"/><path d="m389.042969 7.5h32.292969v25.027344h-32.292969zm0 0" fill="#fff"/><path d="m161.492188 257.714844v37.792968h-58.195313v-23.84375l13.949219-13.949218zm0 0" fill="#fff"/><path d="m249.792969 148.777344v-30.742188c0-14.929687 8.914062-27.777344 21.707031-33.511718-4.578125-2.054688-9.65625-3.195313-15-3.195313-20.273438 0-36.707031 16.433594-36.707031 36.707031v30.742188c9.003906 9 14.050781 14.046875 23.050781 23.050781h27.3125l1.34375-1.34375c-8.183594-8.179687-13.164062-13.164063-21.707031-21.707031zm0 0" fill="#fbb984"/><g fill="#d1e7f8"><path d="m208.640625 443.042969h20v61.457031h-20zm0 0"/><path d="m384.144531 204.390625 25.863281-25.863281-5.433593-5.433594h-19.132813l-31.296875 31.296875 26.5 26.5 15-15zm0 0"/><path d="m286.882812 443.042969h-20v52.535156l8.917969 8.921875h20l-8.917969-8.921875zm0 0"/><path d="m234.222656 178.867188h-30l52.027344 52.023437 15-15zm0 0"/><path d="m208.640625 295.511719h30v28.695312h-30zm0 0"/><path d="m147.246094 257.714844h-30l-13.949219 13.949218v23.847657h30v-23.847657zm0 0"/></g><path d="m265.679688 153.527344-10.605469-10.609375 7.027343-7.023438v-17.859375c0-3.089844-2.511718-5.601562-5.601562-5.601562v-15c11.359375 0 20.601562 9.242187 20.601562 20.601562v24.070313zm0 0" fill="#fff"/><path d="m273.253906 229.246094h15v51.121094h-15zm0 0" fill="#fff"/><path d="m293.121094 422.25h-15v-25.515625h15zm0-35.515625h-15v-15h15zm0-25h-15v-15h15zm0 0" fill="#fff"/><path d="m382.335938 165.59375-28.191407 28.191406-22.417969-22.417968h-43.640624v-6.863282l12.621093-12.621094v-33.847656c0-24.378906-19.832031-44.207031-44.207031-44.207031-24.378906 0-44.207031 19.828125-44.207031 44.207031v33.847656l12.617187 12.621094v6.859375l-44.699218-.035156-17.769532 17.761719v61.125h-48.304687l-18.339844 18.34375v34.453125h105.34375v208.988281h39.164063l13.3125-13.3125v-145.671875h5.761718v145.671875l13.316406 13.3125h39.164063v-286.285156l42.285156 42.285156 77.972657-77.972656-24.433594-24.433594zm-228.34375 122.417969h-43.195313v-13.242188l9.554687-9.554687h33.640626zm73.300781-169.976563c0-16.105468 13.101562-29.207031 29.207031-29.207031s29.207031 13.101563 29.207031 29.207031v27.636719l-18.65625 18.65625h-21.101562l-18.65625-18.65625zm12.617187 68.335938v-7.042969h33.175782v7.039063h17.082031l-33.917969 33.917968-33.925781-33.925781zm-1.292968 306.101562-4.527344 4.527344h-17.949219v-46.457031h22.476563zm58.242187 4.527344h-17.953125l-4.523438-4.527344v-41.929687h22.476563zm57.285156-250.214844-41.226562-41.226562-16.058594 6.652344v223.332031h-22.480469v-97.53125h-35.761718v97.53125h-22.480469v-217.921875h-15v70.390625h-32.148438v-22.796875h8.453125v-69.910156l8.972656-8.972657 14.679688.011719 55.152344 55.152344 55.136718-55.128906h14.128907l18.023437 18.023437-7.925781 7.925781 10.609375 10.609375 7.925781-7.929687 15.894531 15.894531zm26.5-26.5-15.894531-15.894531 23.796875-23.796875h12.921875l9.433594 9.433594zm0 0"/><path d="m228.640625 316.707031h55.71875v15h-55.71875zm0 0"/><path d="m228.640625 288.011719h55.71875v15h-55.71875zm0 0"/><path d="m96.789062 186.203125v32.675781h15v-32.675781h44.914063v-156.203125h-156.203125v58.085938h15v-32.480469l6.78125 6.78125v91.425781l-6.78125 6.78125v-52.511719h-15v78.121094h44.914062v23.675781h15v-23.675781h10.6875v43.675781h15v-43.675781zm38.132813-32.390625v-91.421875l6.78125-6.78125v104.988281zm-10.605469-102.03125h-91.425781l-6.78125-6.78125h104.988281zm-87.035156 97.640625v-82.640625h9.410156v82.640625zm24.410156-82.640625h9.410156v82.640625h-9.410156zm24.410156 0h9.410157v82.640625h-9.410157zm24.410157 0h9.410156v82.640625h-9.410156zm13.804687 97.640625 6.78125 6.78125h-104.988281l6.78125-6.78125zm0 0"/><path d="m458.4375 52.28125v-52.28125h-106.5v106.5h20.0625v20.675781h15v-20.675781h10.6875v31.675781h15v-31.675781h10.691406v11.675781h15v-11.675781h20.0625v-34.21875h-15v19.21875h-76.5v-76.5h14.601563v25.027344h47.292969v-25.027344h14.605468v37.28125zm-44.601562-27.253906h-17.296876v-10.027344h17.296876zm0 0"/><path d="m373.925781 71.429688h27.363281v15h-27.363281zm0 0"/></svg>