<svg height="512pt" viewBox="-38 0 512 512" width="512pt" xmlns="http://www.w3.org/2000/svg"><path d="m239.59375 50.609375v36.109375c-10.570312 10.570312-16.5 16.5-27.070312 27.070312h-32.078126c-10.574218-10.570312-16.5-16.5-27.074218-27.070312v-36.109375c0-23.808594 19.300781-43.109375 43.113281-43.109375 23.808594 0 43.109375 19.300781 43.109375 43.109375zm0 0" fill="#ffdaaa"/><path d="m140.273438 411.429688v93.070312h33.542968c4.089844-4.089844 6.382813-6.386719 10.476563-10.476562v-82.59375zm0 0" fill="#787680"/><path d="m140.273438 368.570312h44.015624v42.859376h-44.015624zm0 0" fill="#c6c5ca"/><path d="m276.5625 122.054688h-51.789062v-20.515626c-3.710938 3.707032-7.511719 7.511719-12.25 12.25h-32.078126l-12.25-12.25v20.515626h-51.789062c-7.871094 7.871093-12.28125 12.28125-20.148438 20.148437v154.96875l15.890626 15.890625h28.125v55.507812h44.015624v-50.792968h24.386719v176.246094l10.476563 10.476562h33.539062v-191.4375h28.125l15.894532-15.890625v-154.96875zm0 0" fill="#787680"/><path d="m196.480469 186.714844v22.070312c6.445312 6.441406 10.054687 10.054688 16.5 16.5h39.710937v-38.570312zm0 0" fill="#e0e0e2"/><path d="m252.691406 122.054688h-27.917968v-20.515626c-3.710938 3.707032-7.511719 7.511719-12.25 12.25h-16.042969v72.925782h56.210937zm0 0" fill="#c6c5ca"/><path d="m224.773438 122.054688v-20.515626c-3.710938 3.707032-7.511719 7.511719-12.25 12.25h-16.042969v72.925782h30v-64.660156zm0 0" fill="#898890"/><path d="m236.484375 155.308594c0 6.378906-5.171875 11.550781-11.550781 11.550781s-11.550782-5.171875-11.550782-11.550781c0-6.382813 5.171876-11.550782 11.550782-11.550782s11.550781 5.167969 11.550781 11.550782zm0 0" fill="#ff3f62"/><path d="m196.484375 7.5v60.929688h43.109375v-17.820313c0-23.808594-19.300781-43.109375-43.109375-43.109375zm0 0" fill="#c6c5ca"/><path d="m252.691406 122.054688v49.800781h44.019532v-29.652344l-20.148438-20.148437zm0 0" fill="#bddbff"/><path d="m252.691406 265.570312v47.492188h28.125l15.894532-15.890625v-31.601563zm0 0" fill="#787680"/><path d="m252.691406 171.855469h44.019532v93.714843h-44.019532zm0 0" fill="#c6c5ca"/><g fill="#bddbff"><path d="m368.054688 213.855469h61.429687v32.554687h-61.429687zm0 0"/><path d="m309.984375 28.089844h61.429687v32.554687h-61.429687zm0 0"/><path d="m68.929688 406.277344h-61.429688v-32.554688h61.429688zm0 0"/></g><path d="m183.371094 50.609375c0-18.535156 11.699218-34.335937 28.113281-40.425781-4.671875-1.734375-9.726563-2.683594-15-2.683594-23.808594 0-43.113281 19.300781-43.113281 43.109375v36.109375l27.074218 27.070312h30l-27.074218-27.070312zm0 0" fill="#fbb984"/><path d="m140.273438 411.429688h30v93.070312h-30zm0 0" fill="#57565c"/><path d="m140.273438 368.570312h30v42.859376h-30zm0 0" fill="#898890"/><path d="m142.148438 313.0625-15.890626-15.890625v-154.96875c7.871094-7.867187 12.28125-12.277344 20.148438-20.148437h-30c-7.867188 7.871093-12.277344 12.28125-20.148438 20.148437v154.96875l15.890626 15.890625h28.125v55.507812h30v-55.507812zm0 0" fill="#57565c"/><path d="m226.480469 208.785156v-22.070312h-30v22.070312c6.445312 6.441406 10.054687 10.054688 16.5 16.5h30c-6.441407-6.445312-10.054688-10.058594-16.5-16.5zm0 0" fill="#c6c5ca"/><path d="m196.484375 7.5v60.929688h20v-56.019532c-5.976563-3.136718-12.78125-4.910156-20-4.910156zm0 0" fill="#898890"/><path d="m276.5625 122.054688h-23.871094v49.800781h30v-43.667969zm0 0" fill="#57a4ff"/><path d="m282.691406 265.570312h-30v47.492188h28.125l1.875-1.875zm0 0" fill="#57565c"/><path d="m252.691406 171.855469h30v93.714843h-30zm0 0" fill="#898890"/><path d="m368.054688 213.855469h30v32.554687h-30zm0 0" fill="#57a4ff"/><path d="m309.984375 28.089844h30v32.554687h-30zm0 0" fill="#57a4ff"/><path d="m7.5 373.722656h30v32.554688h-30zm0 0" fill="#57a4ff"/><path d="m224.933594 174.355469c10.503906 0 19.050781-8.542969 19.050781-19.046875s-8.546875-19.050782-19.050781-19.050782-19.050782 8.542969-19.050782 19.050782c0 10.503906 8.546876 19.046875 19.050782 19.046875zm0-23.097657c2.230468 0 4.050781 1.816407 4.050781 4.050782 0 2.230468-1.816406 4.046875-4.050781 4.046875s-4.050782-1.816407-4.050782-4.046875c0-2.234375 1.816407-4.050782 4.050782-4.050782zm0 0"/><path d="m360.554688 206.355469v16.277343h-56.34375v-83.535156l-24.542969-24.542968h-47.394531v-9.910157l14.820312-14.820312v-37.957031h55.390625v16.277343h76.429687v-47.554687h-76.429687v16.277344h-57.285156c-6.003907-21.25-25.570313-36.867188-48.714844-36.867188-27.90625 0-50.613281 22.703125-50.613281 50.609375v39.214844l14.824218 14.820312v9.910157h-47.394531l-24.542969 24.542968v161.179688l20.285157 20.285156h23.730469v61.9375h-56.34375v-16.277344h-76.429688v47.554688h76.429688v-16.277344h56.34375v114.5h44.148437l14.871094-14.871094v-171.851562h9.382812v171.851562l14.871094 14.871094h44.144531v-191.4375h23.734375l20.285157-20.285156v-62.644532h56.34375v16.273438h76.429687v-47.554688h-76.429687zm-43.070313-170.765625h46.429687v17.554687h-46.429687zm-256.054687 363.1875h-46.429688v-17.554688h46.429688zm212.023437-269.222656 15.757813 15.757812v19.042969h-29.019532v-34.800781zm-57.363281 88.230468-12.109375-12.105468v-11.464844h41.210937v4.285156h-20.605468v15h20.605468v4.285156zm16.003906-167.175781v10.320313h-28.109375v-45.132813c16.046875 3.449219 28.109375 17.75 28.109375 34.8125zm-71.222656 0c0-17.0625 12.066406-31.359375 28.113281-34.8125v11.417969h-10.929687v15h10.929687v8.140625h-10.929687v15h10.929687v10.574219h16.898437v8.355468h15v-8.355468h11.210938v7.683593l-22.679688 22.675781h-25.863281l-22.679687-22.675781zm15.917968 440.308594-6.082031 6.082031h-22.933593v-78.070312h29.019531v71.988281zm0-108.417969h-14.507812v15h14.507812v6.429688h-29.015624v-27.859376h29.015624zm68.402344 114.5h-22.933594l-6.082031-6.082031v-180.640625h-39.386719v50.792968h-7.007812v-17.785156h-15v17.785156h-7.007812v-193.867187h-15v138.359375h-17.519532l-11.496094-11.5v-148.75l15.753907-15.753906h56.179687v-9.914063l1.648438 1.644531h38.289062l1.644532-1.644531v9.914063h27.917968v49.65625h-41.210937v-45.425782h-15v17.855469h-17.78125v15h17.78125v13.570313h-17.78125v15h17.78125v16.675781l20.894531 20.894531h9.679688v17.785156h15v-17.785156h10.636718zm44.019532-202.9375-11.5 11.5h-17.519532v-32.492188h29.019532zm-29.019532-35.992188v-78.714843h29.019532v78.714843zm161.792969-19.160156h-46.429687v-17.554687h46.429687zm0 0"/><path d="m154.78125 427.855469h15v52.289062h-15zm0 0" fill="#fff"/><path d="m282.210938 253.535156h-15v-19.640625h15zm0-29.640625h-15v-15h15zm0-25h-15v-15h15zm0 0" fill="#fff"/><path d="m239.191406 422.144531h-15v-41.714843h15zm0-51.714843h-15v-15h15zm0-25h-15v-15h15zm0 0" fill="#fff"/></svg>