<svg height="512pt" viewBox="0 0 512 512" width="512pt" xmlns="http://www.w3.org/2000/svg"><path d="m362.890625 114.390625v105.523437c-26.214844 26.210938-40.910156 40.910157-67.125 67.121094h-79.53125c-26.214844-26.210937-40.910156-40.90625-67.125-67.121094v-105.523437c0-59.035156 47.859375-106.890625 106.890625-106.890625 59.035156 0 106.890625 47.855469 106.890625 106.890625zm0 0" fill="#ffdaaa"/><path d="m341.351562 74.039062c0-.023437 0-.042968 0-.066406 0-7.953125-6.445312-14.398437-14.398437-14.398437-2.617187 0-5.070313.703125-7.1875 1.921875-.476563-1.289063-1.027344-2.546875-1.648437-3.765625-8.085938-15.921875-32.117188-10.179688-32.117188 7.679687 0-17.859375-24.03125-23.601562-32.117188-7.679687-.617187 1.21875-1.167968 2.476562-1.648437 3.769531-2.117187-1.222656-4.570313-1.925781-7.1875-1.925781-7.953125 0-14.398437 6.449219-14.398437 14.398437v.066406c-16.222657 1.042969-29.0625 14.53125-29.0625 31.019532 0 17.167968 13.917968 31.085937 31.085937 31.085937h39.234375c7.785156 0 14.09375-6.308593 14.09375-14.09375 0 7.785157 6.308594 14.09375 14.09375 14.09375h39.234375c9.417969 0 17.859375-4.191406 23.5625-10.808593v-10.945313c0-12.203125-2.046875-23.929687-5.8125-34.851563-4.515625-3.148437-9.902344-5.125-15.726563-5.5zm0 0" fill="#fbb984"/><path d="m311.351562 74.039062c0-.023437 0-.042968 0-.066406 0-7.953125-6.445312-14.398437-14.398437-14.398437-2.617187 0-5.070313.703125-7.1875 1.921875-.476563-1.289063-1.027344-2.546875-1.648437-3.765625-8.085938-15.921875-32.117188-10.179688-32.117188 7.679687 0-17.859375-24.03125-23.601562-32.117188-7.679687-.617187 1.21875-1.167968 2.476562-1.648437 3.769531-2.117187-1.222656-4.570313-1.925781-7.1875-1.925781-7.953125 0-14.398437 6.449219-14.398437 14.398437v.066406c-16.222657 1.042969-29.0625 14.53125-29.0625 31.019532 0 17.167968 13.917968 31.085937 31.085937 31.085937h39.234375c7.785156 0 14.09375-6.308593 14.09375-14.09375 0 7.785157 6.308594 14.09375 14.09375 14.09375h39.234375c17.167969 0 31.085937-13.917969 31.085937-31.085937 0-16.488282-12.839843-29.976563-29.0625-31.019532zm0 0" fill="#ffe477"/><path d="m504.5 358.390625-49.957031-49.957031h-128.402344v-51.773438c-9.195313 9.195313-18.628906 18.628906-30.375 30.375h-79.53125l-30.375-30.375v51.773438h-128.402344c-19.511719 19.507812-30.449219 30.449218-49.957031 49.957031v146.109375h497zm0 0" fill="#57a4ff"/><path d="m393.101562 488.429688c0-59.152344-47.949218-107.101563-107.101562-107.101563s-107.101562 47.949219-107.101562 107.101563c0 5.460937.410156 10.828124 1.199218 16.070312h211.804688c.789062-5.242188 1.199218-10.609375 1.199218-16.070312zm0 0" fill="#006df0"/><path d="m363.101562 488.429688c0-59.152344-47.949218-107.101563-107.101562-107.101563s-107.101562 47.949219-107.101562 107.101563c0 5.460937.410156 10.828124 1.199218 16.070312h211.804688c.789062-5.242188 1.199218-10.609375 1.199218-16.070312zm0 0" fill="#ffe477"/><path d="m179.109375 114.390625c0-53.945313 39.960937-98.554687 91.890625-105.847656-4.898438-.6875-9.90625-1.042969-15-1.042969-59.03125 0-106.886719 47.855469-106.886719 106.890625v105.519531l67.121094 67.125h30l-67.121094-67.125v-105.519531zm0 0" fill="#fbb984"/><path d="m201.585938 105.058594c0-16.488282 12.839843-29.976563 29.0625-31.019532 0-.023437 0-.042968 0-.066406 0-7.953125 6.445312-14.398437 14.398437-14.398437 2.617187 0 5.070313.703125 7.1875 1.921875.476563-1.289063 1.027344-2.546875 1.648437-3.765625.0625-.128907.132813-.257813.199219-.386719-5.851562-11.128906-23.5-12.808594-30.199219.386719-.621093 1.21875-1.171874 2.476562-1.648437 3.765625-2.117187-1.21875-4.570313-1.921875-7.1875-1.921875-7.953125 0-14.398437 6.445312-14.398437 14.398437v.066406c-16.226563 1.042969-29.0625 14.53125-29.0625 31.019532 0 17.167968 13.917968 31.085937 31.085937 31.085937h30c-17.167969 0-31.085937-13.917969-31.085937-31.085937zm0 0" fill="#ffb655"/><path d="m87.457031 308.433594h-30c-19.511719 19.507812-30.449219 30.449218-49.957031 49.957031v146.109375h30v-146.109375c19.507812-19.507813 30.445312-30.449219 49.957031-49.957031zm0 0" fill="#006df0"/><path d="m215.859375 286.660156-30-30v68.769532h30zm0 0" fill="#006df0"/><path d="m271 382.367188c-4.902344-.683594-9.910156-1.039063-15-1.039063-59.152344 0-107.101562 47.949219-107.101562 107.101563 0 5.460937.410156 10.828124 1.199218 16.070312h30c-.789062-5.242188-1.199218-10.609375-1.199218-16.070312 0-54.0625 40.050781-98.765626 92.101562-106.0625zm0 0" fill="#ffb655"/><path d="m179.085938 105.058594c0-10.757813 7.28125-19.957032 17.277343-22.730469l10.140625 20.644531 13.464844-6.613281-11.679688-23.777344c.777344-3.785156 4.582032-6.261719 8.425782-5.304687l6.0625 12.339844 13.464844-6.613282-5.753907-11.714844c.027344-.050781.054688-.105468.082031-.160156 2.5-4.917968 7.148438-5.773437 10.664063-4.933594 3.511719.84375 7.265625 3.703126 7.265625 9.214844h15c0-5.511718 3.753906-8.375 7.265625-9.214844 3.515625-.839843 8.167969.011719 10.667969 4.933594.027344.054688.050781.109375.078125.160156l-5.75 11.714844 13.460937 6.613282 6.0625-12.339844c3.847656-.960938 7.648438 1.519531 8.425782 5.304687l-11.675782 23.773438 13.460938 6.613281 10.140625-20.640625c9.996093 2.769531 17.277343 11.972656 17.277343 22.730469 0 13.003906-10.578124 23.582031-23.582031 23.582031h-39.238281c-3.632812 0-6.59375-2.957031-6.59375-6.59375h-15c0 3.636719-2.957031 6.59375-6.59375 6.59375h-8.671875v15h8.671875c5.382812 0 10.3125-1.980469 14.09375-5.246094 3.785156 3.269531 8.714844 5.246094 14.09375 5.246094h39.238281c21.273438 0 38.582031-17.308594 38.582031-38.582031 0-18.230469-12.792968-33.734375-30.0625-37.636719-3.164062-10.078125-13.292968-16.757813-24.183593-15.101563-8.695313-13.90625-27.113281-14.660156-37.667969-4.675781-10.6875-10.109375-29.0625-9.097656-37.667969 4.675781-10.921875-1.65625-21.027343 5.050782-24.183593 15.101563-17.269532 3.902344-30.0625 19.40625-30.0625 37.636719 0 21.273437 17.308593 38.582031 38.585937 38.582031h10.5625v-15h-10.5625c-13.007813.003906-23.585937-10.578125-23.585937-23.582031zm0 0"/><path d="m457.648438 300.933594h-124.007813v-41.167969l36.75-36.746094v-108.628906c0-63.074219-51.316406-114.390625-114.390625-114.390625s-114.390625 51.316406-114.390625 114.390625v108.628906l36.75 36.75v41.164063h-124.007813l-54.351562 54.351562v156.714844h512v-156.71875zm-301.039063-186.542969c0-54.804687 44.585937-99.390625 99.390625-99.390625s99.390625 44.585938 99.390625 99.390625v102.414063l-62.730469 62.730468h-73.320312l-62.730469-62.730468zm340.390625 382.609375h-71.597656v-82.265625h-15v82.265625h-146.902344v-68.171875h-15v68.171875h-146.902344v-82.265625h-15v82.265625h-71.597656v-135.503906l45.5625-45.5625h117.796875v13.921875h15v-55.089844l19.769531 19.769531h85.742188l19.769531-19.769531v55.089844h15v-13.921875h117.796875l45.5625 45.5625zm0 0"/><path d="m248.496094 75.308594v11.273437h-11.273438v15h11.273438v11.273438h15v-11.273438h11.273437v-15h-11.273437v-11.273437zm0 0"/><path d="m256 373.828125c-61.769531 0-112.296875 48.863281-114.519531 110.402344l14.992187.539062c1.941406-53.800781 45.660156-95.941406 99.527344-95.941406s97.585938 42.140625 99.527344 95.941406l14.988281-.539062c-2.214844-61.472657-52.6875-110.402344-114.515625-110.402344zm0 0"/><g fill="#fff"><path d="m290.714844 267.339844-10.609375-10.605469 50.285156-50.285156v-9.179688h15v15.394531zm54.675781-80.070313h-15v-15h15zm0-25h-15v-15h15zm0 0"/><path d="m483.828125 476.328125h-15v-45h15zm0-55h-15v-15h15zm0-25h-15v-15h15zm0 0"/><path d="m330.164062 480.308594c-2.316406-21.328125-13.804687-40.664063-31.515624-53.054688l8.597656-12.289062c21.257812 14.867187 35.042968 38.09375 37.828125 63.726562zm-39.261718-57.800782c-4.003906-2.128906-8.222656-3.898437-12.539063-5.257812l4.503907-14.308594c5.195312 1.636719 10.269531 3.761719 15.082031 6.324219zm-21.347656-7.449218c-4.441407-.816406-9-1.230469-13.554688-1.230469v-15c5.460938 0 10.9375.496094 16.269531 1.480469zm0 0"/></g></svg>