<svg height="512pt" viewBox="-45 0 511 512" width="512pt" xmlns="http://www.w3.org/2000/svg"><path d="m302.765625 92.929688h-183.332031v-61.683594c9.273437-9.273438 14.472656-14.472656 23.746094-23.746094h135.839843c9.273438 9.273438 14.472657 14.472656 23.746094 23.746094zm0 0" fill="#ffb655"/><path d="m73.292969 92.929688h275.609375v34.621093h-275.609375zm0 0" fill="#ffb655"/><path d="m98.648438 422.492188 27.363281-27.359376-51.480469-51.476562 51.46875-51.46875v-95.1875h-62.757812l23.714843 95.730469h-38.128906c-15.941406 15.945312-24.882813 24.886719-40.828125 40.832031v170.9375h172.636719zm0 0" fill="#ffb655"/><path d="m323.550781 422.492188-27.359375-27.359376 51.476563-51.476562-51.46875-51.46875v-95.1875h62.757812l-23.714843 95.730469h38.128906c15.945312 15.945312 24.882812 24.886719 40.828125 40.832031v170.9375h-172.636719zm0 0" fill="#ffb655"/><path d="m211.101562 504.5-85.101562-212.3125-51.46875 51.46875 51.476562 51.476562-27.359374 27.359376 81.992187 82.007812zm0 0" fill="#ffdaaa"/><path d="m211.101562 504.5 85.097657-212.3125 51.46875 51.46875-51.476563 51.476562 27.359375 27.359376-81.988281 82.007812zm0 0" fill="#ffdaaa"/><g fill="#ff7956"><path d="m173.179688 7.5h-30c-9.273438 9.273438-14.46875 14.472656-23.746094 23.746094v61.683594h30v-61.683594c9.277344-9.273438 14.472656-14.472656 23.746094-23.746094zm0 0"/><path d="m73.292969 92.929688h30v34.621093h-30zm0 0"/><path d="m116.957031 292.730469-23.714843-95.730469h-30l23.714843 95.730469zm0 0"/><path d="m78.828125 292.730469h-30c-15.941406 15.945312-24.882813 24.886719-40.828125 40.832031v170.9375h30v-170.941406c15.945312-15.945313 24.886719-24.882813 40.828125-40.828125zm0 0"/><path d="m326.191406 395.132812 51.476563-51.476562-51.46875-51.46875v-95.1875h-30v95.1875l51.46875 51.46875-51.476563 51.476562 27.359375 27.359376-81.988281 82.007812h30l81.988281-82.007812zm0 0"/></g><path d="m156.007812 395.132812-51.476562-51.476562 30.054688-30.054688-8.585938-21.414062-51.46875 51.46875 51.476562 51.476562-27.359374 27.359376 81.992187 82.007812h30l-81.992187-82.007812zm0 0" fill="#fbb984"/><path d="m296.199219 292.1875-85.097657 212.3125h30l76.515626-190.898438zm0 0" fill="#fbb984"/><path d="m356.402344 85.429688h-46.136719v-57.289063l-28.140625-28.140625h-142.050781l-28.140625 28.140625v57.289063h-46.140625v49.621093h290.605469v-49.621093zm-229.46875-51.078126 19.355468-19.351562h129.625l19.351563 19.351562v51.078126h-168.328125v-51.078126zm214.46875 85.699219h-260.609375v-19.621093h260.605469v19.621093zm0 0"/><path d="m290.960938 147.917969h15v29.082031h-15zm0 0"/><path d="m116.238281 147.917969h15v29.082031h-15zm0 0"/><path d="m275.925781 297.730469v-47.285157l5.578125-5.578124-10.605468-10.605469-30.402344 30.402343h-58.792969l-30.398437-30.402343-10.609376 10.609375 5.578126 5.574218v47.285157h15v-32.285157l14.21875 14.21875h71.214843l14.21875-14.21875v32.285157zm0 0"/><path d="m376.476562 285.230469h-31.648437l23.714844-95.730469h-79.84375v82.6875h15v-67.6875h45.671875l-23.710938 95.730469h44.605469l36.433594 36.4375v160.332031h-55.773438v-117.390625h-15v117.390625h-76.257812l74.492187-74.507812-27.363281-27.359376 51.480469-51.476562-64.808594-64.808594-82.367188 205.496094-82.367187-205.496094-64.808594 64.808594 51.476563 51.476562-27.359375 27.359376 74.492187 74.507812h-76.257812v-117.390625h-15v117.390625h-55.777344v-160.332031l36.4375-36.4375h44.605469l-23.714844-95.730469h45.671875v67.6875h15v-82.6875h-79.84375l23.714844 95.730469h-31.648438l-45.222656 45.222656v181.546875h421.199219v-181.546875zm-192.730468 211.769531-74.492188-74.503906 27.359375-27.363282-51.476562-51.476562 38.128906-38.128906 76.75 191.472656zm38.441406 0 76.746094-191.476562 38.128906 38.128906-51.476562 51.480468 27.359374 27.359376-74.492187 74.507812zm0 0"/><path d="m398.675781 481.476562h-15v-79.167968h15zm0-89.167968h-15v-15h15zm0-25h-15v-15h15zm0 0" fill="#fff"/><path d="m282.539062 75.429688h-40.011718v-15h40.011718zm-50.011718 0h-15v-15h15zm-25 0h-15v-15h15zm0 0" fill="#fff"/></svg>