<svg height="512pt" viewBox="-77 0 512 512" width="512pt" xmlns="http://www.w3.org/2000/svg"><path d="m187.800781 192.585938 25.371094-43.941407h-37.363281l-43.785156 75.84375h37.308593l-25.367187 43.941407h37.359375l43.789062-75.84375zm0 0" fill="#ffe477"/><path d="m245.050781 59.445312c0-.078124.003907-.15625.003907-.234374 0-28.558594-23.152344-51.710938-51.710938-51.710938-22.25 0-41.214844 14.054688-48.511719 33.765625-3.046875-1.757813-6.574219-2.769531-10.339843-2.769531-11.441407 0-20.714844 9.277344-20.714844 20.714844v.097656c-23.339844 1.5-41.808594 20.902344-41.808594 44.621094 0 24.695312 20.019531 44.714843 44.71875 44.714843h123.757812c24.699219 0 44.71875-20.019531 44.71875-44.714843 0-23.144532-17.578124-42.179688-40.113281-44.484376zm0 0" fill="#bddbff"/><path d="m214.675781 327.679688v30.242187c-8.855469 8.851563-13.820312 13.816406-22.675781 22.671875h-26.867188c-8.855468-8.855469-13.816406-13.820312-22.671874-22.671875v-30.242187c0-19.941407 16.164062-36.109376 36.105468-36.109376s36.109375 16.167969 36.109375 36.109376zm0 0" fill="#ffdaaa"/><path d="m41.328125 352.097656-30.722656-30.726562 16.65625-16.65625h18.824219l21.3125 21.3125zm0 0" fill="#ff3f62"/><path d="m41.328125 352.097656-30.722656-30.726562 16.65625-16.65625h18.824219l21.3125 21.3125zm0 0" fill="#ffdaaa"/><path d="m225.644531 442.257812 90.160157-90.160156-26.070313-26.070312s-61.488281 61.488281-61.488281 61.488281h-25.984375v-17.183594c-3.105469 3.105469-6.292969 6.292969-10.261719 10.261719h-26.867188l-10.261718-10.261719v17.183594h-25.984375l-61.488281-61.488281-26.070313 26.066406 90.160156 90.160156v62.246094h94.15625zm0 0" fill="#787680"/><path d="m315.804688 352.097656 30.722656-30.726562-16.65625-16.65625h-18.820313l-21.316406 21.3125zm0 0" fill="#ffdaaa"/><path d="m192.496094 462.644531c0 7.691407-6.234375 13.929688-13.929688 13.929688-7.691406 0-13.929687-6.238281-13.929687-13.929688 0-7.695312 6.238281-13.929687 13.929687-13.929687 7.695313 0 13.929688 6.234375 13.929688 13.929687zm0 0" fill="#e0e0e2"/><path d="m205.808594 148.644531h-30l-43.785156 75.84375h30zm0 0" fill="#ffb655"/><path d="m169.332031 224.488281-25.367187 43.941407h30l25.367187-43.941407zm0 0" fill="#ffb655"/><path d="m101.972656 103.929688c0-23.71875 18.46875-43.125 41.808594-44.621094 0-.03125-.003906-.066406-.003906-.097656 0-11.441407 9.277344-20.714844 20.714844-20.714844 3.769531 0 7.296874 1.011718 10.339843 2.769531 5.585938-15.089844 18.011719-26.867187 33.511719-31.558594-4.746094-1.4375-9.785156-2.207031-15-2.207031-22.25 0-41.214844 14.050781-48.511719 33.765625-3.042969-1.757813-6.570312-2.769531-10.339843-2.769531-11.4375 0-20.714844 9.273437-20.714844 20.714844 0 .03125.003906.0625.003906.097656-23.339844 1.496094-41.808594 20.902344-41.808594 44.621094 0 24.695312 20.019532 44.714843 44.714844 44.714843h30c-24.695312 0-44.714844-20.019531-44.714844-44.714843zm0 0" fill="#57a4ff"/><path d="m172.460938 357.917969v-30.238281c0-14.589844 8.652343-27.160157 21.105468-32.855469-4.566406-2.089844-9.648437-3.253907-15-3.253907-19.941406 0-36.105468 16.167969-36.105468 36.109376v30.238281c8.855468 8.855469 13.816406 13.820312 22.671874 22.675781h26.867188l1.566406-1.566406zm0 0" fill="#fbb984"/><path d="m40.605469 321.371094 11.070312-11.066406-5.589843-5.589844h-18.824219l-16.65625 16.65625 30.722656 30.726562 15-15zm0 0" fill="#fbb984"/><path d="m71.328125 352.097656 11.070313-11.070312-15-15-26.070313 26.070312 90.160156 90.160156v62.242188h30v-62.242188zm0 0" fill="#57565c"/><path d="m319.734375 326.027344 15.726563-15.722656-5.589844-5.589844h-18.820313l-21.316406 21.3125 26.070313 26.070312 15-15zm0 0" fill="#fbb984"/><path d="m116.6875 156.144531h123.757812c28.792969 0 52.21875-23.425781 52.21875-52.214843 0-24.683594-16.976562-45.527344-40.429687-50.886719-3.09375-29.761719-28.324219-53.042969-58.890625-53.042969-22.113281 0-42.339844 12.484375-52.457031 31.734375-15.238281-3.550781-30.246094 5.996094-33.828125 20.867187-24.332032 4.546876-42.589844 25.988282-42.589844 51.324219 0 28.792969 23.425781 52.21875 52.21875 52.21875zm-2.425781-89.351562 7.125-.457031-.109375-7.203126c.0625-10.117187 11.070312-16.414062 19.804687-11.371093l7.699219 4.441406 3.082031-8.335937c6.390625-17.265626 23.058594-28.867188 41.480469-28.867188 24.375 0 44.210938 19.832031 44.210938 44.1875l-.003907 7.03125 6.734375.6875c19.027344 1.945312 33.378906 17.859375 33.378906 37.019531 0 20.523438-16.695312 37.21875-37.21875 37.21875h-123.757812c-20.523438 0-37.21875-16.695312-37.21875-37.21875 0-19.570312 15.285156-35.878906 34.792969-37.132812zm0 0"/><path d="m357.132812 321.371094-24.15625-24.15625h-25.035156c-21.558594 21.5625-75.699218 75.703125-82.800781 82.800781h-15.378906v-6.574219l12.414062-12.414062v-33.347656c0-24.046876-19.5625-43.609376-43.609375-43.609376-24.042968 0-43.605468 19.566407-43.605468 43.609376v33.347656l12.414062 12.414062v6.574219h-15.378906c-8.222656-8.222656-72.988282-72.984375-82.800782-82.800781h-25.039062l-24.15625 24.15625c6.292969 6.292968 117.261719 117.261718 123.988281 123.992187v66.636719h109.15625v-66.636719c5.242188-5.242187 119.011719-119.011719 123.988281-123.992187zm-42.976562-9.15625h12.609375l9.15625 9.15625-20.117187 20.117187c-10.066407-10.0625-7.085938-7.085937-15.460938-15.460937zm-164.195312 15.464844c0-15.773438 12.832031-28.609376 28.605468-28.609376 15.773438 0 28.609375 12.835938 28.609375 28.609376v27.132812l-18.28125 18.28125h-20.65625l-18.277343-18.28125zm-119.589844-15.464844h12.609375l13.808593 13.8125c-10.0625 10.066406-7.082031 7.085937-15.460937 15.460937l-20.113281-20.117187zm202.773437 111.933594v-12.003907h-15v84.855469h-79.15625v-84.855469h-15v12.003907l-72.050781-72.050782c10.0625-10.066406 7.082031-7.085937 15.460938-15.460937l58.378906 58.378906h36.59375v-6.921875h32.390625v6.921875h36.59375l58.378906-58.378906c10.066406 10.0625 7.085937 7.082031 15.460937 15.460937zm0 0"/><path d="m186.066406 442.566406v-30.425781h-15v30.425781c-8.128906 3.046875-13.929687 10.898438-13.929687 20.078125 0 11.816407 9.613281 21.429688 21.429687 21.429688s21.429688-9.613281 21.429688-21.429688c0-9.179687-5.800782-17.03125-13.929688-20.078125zm-7.5 26.507813c-3.546875 0-6.429687-2.886719-6.429687-6.429688 0-3.546875 2.882812-6.429687 6.429687-6.429687s6.429688 2.882812 6.429688 6.429687c0 3.542969-2.882813 6.429688-6.429688 6.429688zm0 0"/><path d="m185.652344 275.929688 52.449218-90.84375h-37.3125l7.328126-12.691407-12.988282-7.5-20.316406 35.191407h37.308594l-35.128906 60.84375h-20.039063l25.371094-43.941407h-37.3125l25.746093-44.59375-12.988281-7.5-38.738281 67.09375h37.3125l-25.371094 43.941407zm0 0"/><g fill="#fff"><path d="m227.550781 73.019531h-15c0-11.304687 0-13.472656 0-13.917969-.054687-10.53125-8.671875-19.101562-19.207031-19.101562v-15c18.761719 0 34.109375 15.265625 34.210938 34.027344v.125c-.003907.40625-.003907 13.867187-.003907 13.867187zm0 0"/><path d="m186.949219 360.894531-10.609375-10.605469 5.835937-5.832031v-16.777343c0-1.988282-1.621093-3.609376-3.609375-3.609376v-15c10.261719 0 18.609375 8.351563 18.609375 18.609376v22.992187zm0 0"/></g></svg>