<svg height="512pt" viewBox="-50 0 512 512" width="512pt" xmlns="http://www.w3.org/2000/svg"><path d="m245.234375 95.203125v32.558594c-9.535156 9.535156-14.878906 14.878906-24.414063 24.414062h-28.925781c-9.535156-9.535156-14.878906-14.878906-24.414062-24.414062v-32.558594c0-21.46875 17.40625-38.875 38.878906-38.875 21.46875 0 38.875 17.40625 38.875 38.875zm0 0" fill="#ffdaaa"/><path d="m155.671875 504.5h30.242187c3.691407-3.6875 5.761719-5.757812 9.449219-9.445312v-55.640626h-39.691406zm0 0" fill="#ff3f62"/><path d="m282.738281 159.628906h-50.871093v-18.5c-3.34375 3.34375-6.773438 6.773438-11.046876 11.046875h-28.925781l-11.046875-11.046875v18.5h-50.871094l-55.097656 55.097656 28.066406 28.070313 45.523438-45.527344c3.472656 1.4375 3.730469 1.546875 7.203125 2.984375v239.160156h39.691406v-103.292968h21.988281v103.292968h39.695313v-239.160156c3.46875-1.4375 3.726563-1.546875 7.199219-2.984375l45.527344 45.527344 28.066406-28.070313zm0 0" fill="#b87fd9"/><path d="m104.878906 214.726562 55.097656-55.097656h-30l-55.097656 55.097656 28.066406 28.066407 15-15zm0 0" fill="#933ec5"/><path d="m178.46875 197.269531-22.796875 22.796875v219.347656h30v-239.160156c-3.472656-1.441406-3.730469-1.546875-7.203125-2.984375zm0 0" fill="#933ec5"/><path d="m337.839844 214.726562 43.277344-43.277343-17.933594-17.933594h-20.265625l-33.148438 33.144531zm0 0" fill="#ff3f62"/><path d="m102.945312 186.660156-33.144531-33.144531h-20.265625l-17.933594 17.933594 43.277344 43.277343zm0 0" fill="#ff3f62"/><path d="m217.351562 439.414062v55.640626l9.449219 9.445312h30.246094v-65.085938zm0 0" fill="#ff3f62"/><path d="m155.671875 283.164062h101.375v30.394532h-101.375zm0 0" fill="#ff3f62"/><path d="m405.214844 23.25v-15.75h-97.125v30h20.441406c6.699219 0 12.128906 5.429688 12.128906 12.128906 0 5.453125-3.640625 10.234375-8.898437 11.6875l-23.671875 6.542969v18.5h97.125v-18.503906l-21.589844-5.964844c-6.488281-1.792969-10.980469-7.695313-10.980469-14.425781 0-8.265625 6.699219-14.964844 14.964844-14.964844h8.355469c3.613281-3.613281 5.636718-5.636719 9.25-9.25zm0 0" fill="#787680"/><path d="m291.074219 34.429688h17.015625v-26.929688h-33.015625v10.929688c6.246093 6.246093 9.75 9.75 16 16zm0 0" fill="#c6c5ca"/><path d="m7.5 23.25v-15.75h97.128906v30h-20.445312c-6.699219 0-12.128906 5.429688-12.128906 12.128906 0 5.453125 3.640624 10.234375 8.898437 11.6875l23.671875 6.542969v18.5h-97.125v-18.503906l21.59375-5.964844c6.484375-1.792969 10.976562-7.695313 10.976562-14.425781 0-8.265625-6.699218-14.964844-14.964843-14.964844h-8.355469c-3.613281-3.613281-5.636719-5.636719-9.25-9.25zm0 0" fill="#787680"/><path d="m121.644531 34.429688h-17.015625v-26.929688h33.015625v10.929688c-6.25 6.246093-9.753906 9.75-16 16zm0 0" fill="#c6c5ca"/><path d="m197.480469 127.761719v-32.558594c0-16.152344 9.855469-30.003906 23.878906-35.875-4.617187-1.933594-9.683594-3-15-3-21.472656 0-38.878906 17.40625-38.878906 38.875v32.558594l24.414062 24.414062h28.925781l.539063-.535156c-9.203125-9.203125-14.523437-14.527344-23.878906-23.878906zm0 0" fill="#fbb984"/><g fill="#c70024"><path d="m155.671875 439.414062h20v65.085938h-20zm0 0"/><path d="m339.769531 186.660156 28.28125-28.277344-4.867187-4.867187h-20.265625l-33.148438 33.144531 28.070313 28.066406 15-15zm0 0"/><path d="m61.601562 171.449219 13.0625-13.066407-4.863281-4.867187h-20.265625l-17.933594 17.933594 43.277344 43.277343 15-15zm0 0"/><path d="m237.351562 439.414062h-20v55.636719l9.449219 9.449219h20l-9.449219-9.449219zm0 0"/><path d="m155.671875 283.164062h30v30.394532h-30zm0 0"/></g><path d="m361.761719 61.316406c5.257812-1.453125 8.898437-6.238281 8.898437-11.691406 0-6.695312-5.429687-12.125-12.128906-12.125h-20.441406v-30h-30v30h20.441406c6.699219 0 12.128906 5.429688 12.128906 12.125 0 5.453125-3.640625 10.238281-8.898437 11.691406l-23.671875 6.539063v18.503906h30v-18.503906zm0 0" fill="#57565c"/><path d="m290.074219 18.429688v-10.929688h-15v10.929688c6.246093 6.246093 9.75 9.75 16 16h15c-6.25-6.25-9.753907-9.753907-16-16zm0 0" fill="#898890"/><path d="m59.09375 61.890625c6.484375-1.792969 10.976562-7.695313 10.976562-14.425781 0-8.265625-6.699218-14.964844-14.964843-14.964844h-8.355469l-9.25-9.25v-15.75h-30v15.75l9.25 9.25h8.355469c8.265625 0 14.964843 6.699219 14.964843 14.964844 0 6.730468-4.492187 12.632812-10.976562 14.425781l-21.59375 5.964844v18.503906h30v-18.503906zm0 0" fill="#57565c"/><path d="m104.628906 7.5h15v26.929688h-15zm0 0" fill="#898890"/><path d="m339.8125 146.015625-30.039062 30.039063-23.925782-23.925782h-46.480468v-7.894531l13.367187-13.367187v-35.664063c0-25.570313-20.804687-46.375-46.375-46.375-25.574219 0-46.375 20.804687-46.375 46.375v35.664063l13.363281 13.367187v7.894531h-46.476562l-23.925782 23.925782-30.039062-30.039063h-26.480469l-25.433593 25.433594 81.953124 81.953125 45.226563-45.226563v303.824219h40.851563l13.839843-13.839844v-154.539062h6.988281v154.539062l13.839844 13.839844h40.855469v-303.824219l45.226563 45.226563 81.949218-81.953125-25.433594-25.433594zm-133.453125-82.1875c17.296875 0 31.375 14.074219 31.375 31.375v29.453125l-20.019531 20.019531h-22.714844l-20.019531-20.019531v-29.453125c.003906-17.300781 14.078125-31.375 31.378906-31.375zm-164.152344 107.621094 10.433594-10.433594h14.050781l25.648438 25.644531-17.460938 17.460938zm145.65625 320.496093-5.054687 5.054688h-19.636719v-50.085938h24.691406zm61.683594 5.054688h-19.640625l-5.054688-5.054688v-45.03125h24.691407v50.085938zm60.226563-264.8125-43.765626-43.765625-16.460937 6.820313v236.671874h-24.691406v-103.292968h-36.992188v103.292968h-24.691406v-236.671874l-16.460937-6.820313-43.765626 43.765625-17.460937-17.460938 17.460937-17.457031 8.710938 8.707031 10.605469-10.605468-8.707031-8.710938 19.53125-19.53125h55.265624v-7.894531l.4375.441406h35.140626l.441406-.441406v7.894531h55.265625l19.53125 19.53125-8.707031 8.710938 10.605468 10.605468 8.707032-8.707031 17.460937 17.457031zm28.066406-28.066406-17.460938-17.460938 25.644532-25.644531h14.050781l10.4375 10.433594zm0 0"/><path d="m175.671875 306.058594h61.375v15h-61.375zm0 0"/><path d="m175.671875 275.664062h61.375v15h-61.375zm0 0"/><path d="m206.355469 269.164062c13.433593 0 24.363281-10.929687 24.363281-24.363281v-24.609375h-15v24.609375c0 5.164063-4.199219 9.363281-9.363281 9.363281-5.164063 0-9.367188-4.199218-9.367188-9.363281v-24.609375h-15v24.609375c0 13.433594 10.933594 24.363281 24.367188 24.363281zm0 0"/><path d="m194.484375 215.441406 12.988281 7.5 21.230469-36.773437h-18.714844l8.238281-14.273438-12.988281-7.5-21.234375 36.773438h18.71875zm0 0"/><path d="m356.652344 135.242188c3.492187 0 6.773437 1.359374 9.242187 3.828124l10.605469-10.601562c-5.300781-5.304688-12.351562-8.226562-19.847656-8.226562-7.5 0-14.550782 2.921874-19.851563 8.226562l10.605469 10.601562c2.472656-2.464843 5.753906-3.828124 9.246094-3.828124zm0 0"/><path d="m320.871094 112.535156 10.609375 10.605469c13.878906-13.878906 36.464843-13.878906 50.34375 0l10.605469-10.605469c-19.726563-19.726562-51.828126-19.726562-71.558594 0zm0 0"/><path d="m36.214844 128.46875 10.605468 10.601562c2.46875-2.46875 5.75-3.828124 9.242188-3.828124s6.777344 1.359374 9.246094 3.828124l10.605468-10.601562c-5.304687-5.304688-12.351562-8.226562-19.851562-8.226562-7.496094 0-14.546875 2.921874-19.847656 8.226562zm0 0"/><path d="m81.238281 123.144531 10.605469-10.609375c-19.730469-19.726562-51.832031-19.726562-71.558594 0l10.605469 10.609375c13.882813-13.882812 36.46875-13.882812 50.347656 0zm0 0"/><path d="m387.609375 40h11.460937l13.644532-13.644531v-26.355469h-145.140625v21.535156l20.394531 20.394532h12.621094v3.070312h27.945312c2.550782 0 4.625 2.074219 4.625 4.628906 0 2.070313-1.394531 3.90625-3.394531 4.457032l-29.175781 8.0625v31.710937h112.125v-31.710937l-27.09375-7.488282c-3.222656-.890625-5.476563-3.847656-5.476563-7.195312 0-4.113282 3.347657-7.464844 7.464844-7.464844zm-93.429687-13.070312-11.605469-11.605469v-.324219h18.015625v11.929688zm87.449218 42.191406 16.085938 4.445312v5.289063h-82.125v-5.289063l18.171875-5.019531c8.476562-2.34375 14.398437-10.125 14.398437-18.917969 0-10.824218-8.804687-19.628906-19.628906-19.628906h-12.941406v-15h82.125v5.144531l-4.855469 4.855469h-5.25c-12.386719 0-22.464844 10.078125-22.464844 22.464844 0 10.070312 6.777344 18.972656 16.484375 21.65625zm0 0"/><path d="m112.128906 62.148438-29.179687-8.0625c-2-.554688-3.394531-2.386719-3.394531-4.460938 0-2.550781 2.078124-4.625 4.628906-4.625h27.945312v-3.070312h12.621094l20.394531-20.394532v-21.535156h-145.144531v26.355469l13.644531 13.644531h11.460938c4.117187 0 7.464843 3.351562 7.464843 7.464844 0 3.347656-2.25 6.304687-5.476562 7.195312l-27.09375 7.488282v31.707031h112.128906zm0-47.148438h18.015625v.320312l-11.609375 11.609376h-6.40625zm-15 63.855469h-82.128906v-5.289063l16.089844-4.445312c9.703125-2.683594 16.480468-11.585938 16.480468-21.65625 0-12.386719-10.078124-22.464844-22.464843-22.464844h-5.25l-4.855469-4.855469v-5.144531h82.128906v15h-12.945312c-10.824219 0-19.628906 8.804688-19.628906 19.628906 0 8.792969 5.921874 16.574219 14.398437 18.917969l18.175781 5.019531zm0 0"/><path d="m215.769531 132.480469-10.605469-10.609375 7.570313-7.570313v-19.097656c0-3.515625-2.859375-6.375-6.375-6.375v-15c11.785156 0 21.375 9.585937 21.375 21.375v25.3125zm0 0" fill="#fff"/><path d="m244.699219 417.394531h-15v-29.980469h15zm0-39.980469h-15v-15h15zm0-25h-15v-15h15zm0 0" fill="#fff"/></svg>