<svg height="512pt" viewBox="0 0 512 512" width="512pt" xmlns="http://www.w3.org/2000/svg"><path d="m504.5 7.5c-24.851562 0-24.851562 8-49.703125 8-24.855469 0-24.855469-8-49.707031-8-24.847656 0-24.847656 8-49.699219 8s-24.851563-8-49.699219-8-24.847656 8-49.699218 8c-24.847657 0-24.847657-8-49.695313-8-24.851563 0-24.851563 8-49.699219 8-24.851562 0-24.851562-8-49.699218-8-24.851563 0-24.851563 8-49.699219 8-24.847657 0-24.847657-8-49.699219-8v497h497zm0 0" fill="#bddbff"/><path d="m194.757812 347.230469s-20.148437 25.367187-45 25.367187c-24.855468 0-45-25.367187-45-25.367187s20.144532-25.367188 45-25.367188c24.851563 0 45 25.367188 45 25.367188zm0 0" fill="#57a4ff"/><path d="m385.898438 407.816406s17.1875 21.636719 38.386718 21.636719c21.199219 0 38.386719-21.636719 38.386719-21.636719s-17.1875-21.640625-38.386719-21.640625c-21.199218 0-38.386718 21.640625-38.386718 21.640625zm0 0" fill="#57a4ff"/><path d="m359.121094 139.289062h-48.40625v-17.925781l12.945312-12.945312v-31.542969c0-20.796875-16.859375-37.660156-37.660156-37.660156s-37.660156 16.859375-37.660156 37.660156v31.542969c5.097656 5.097656 8.957031 8.957031 12.945312 12.949219v17.921874h-48.410156l-67.390625 67.390626 45.226563 45.226562 26.757812-26.757812-18.46875-18.46875 34.011719-34.011719c1.875.777343 2.011719.835937 3.886719 1.609375l.082031 298.507812h29.25c3.566406-3.566406 5.570312-5.566406 9.136719-9.136718v-140.757813h10.632812 10.632812v140.757813c3.566407 3.566406 5.570313 5.570312 9.136719 9.136718h29.25l.082031-298.507812c1.875-.773438 2.015626-.832032 3.886719-1.609375l34.011719 34.011719-37.914062 37.914062v20.066406l16.722656 16.726563 74.707031-74.707031zm0 0" fill="#57a4ff"/><path d="m7.5 7.5v497h30v-491.421875c-8.464844-2.351563-14.222656-5.578125-30-5.578125zm0 0" fill="#57a4ff"/><path d="m305.019531 406.402344h-38.386719v-83.511719h-10.632812-10.632812v83.511719h-38.386719l-.082031-232.125c-1.875-.773438-2.015626-.832032-3.886719-1.609375l-34.011719 34.011719 18.46875 18.46875-26.757812 26.757812-45.226563-45.226562 67.390625-67.390626h48.410156v-17.921874l10.703125 10.699218h28.023438c4.136719-4.136718 7.460937-7.460937 10.699219-10.699218v17.921874h48.410156l67.390625 67.390626-45.226563 45.226562-26.757812-26.757812 18.46875-18.46875-34.007813-34.011719c-1.875.777343-2.015625.835937-3.886719 1.609375zm0 0" fill="#a4e276"/><path d="m145.484375 206.679688 67.394531-67.390626h-30l-67.394531 67.390626 45.230469 45.226562 15-15zm0 0" fill="#64c37d"/><path d="m233.011719 172.667969-26.105469 26.105469.074219 207.628906h30l-.082031-232.125c-1.875-.773438-2.011719-.832032-3.886719-1.609375zm0 0" fill="#64c37d"/><path d="m293.660156 76.875v31.542969c-9.234375 9.234375-14.414062 14.414062-23.648437 23.648437h-28.023438c-9.234375-9.234375-14.414062-14.414062-23.648437-23.648437v-31.542969c0-20.796875 16.859375-37.660156 37.660156-37.660156s37.660156 16.859375 37.660156 37.660156zm0 0" fill="#ffdaaa"/><g fill="#57a4ff"><path d="m305.085938 244.59375v20.070312l16.722656 16.722657 29.480468-29.480469-26.757812-26.757812zm0 0"/><path d="m206.914062 244.59375v20.070312l-16.722656 16.722657-29.476562-29.480469 26.757812-26.757812zm0 0"/><path d="m206.898438 261.339844h98.203124v23.914062h-98.203124zm0 0"/><path d="m266.632812 406.402344v57.246094c3.566407 3.566406 5.570313 5.570312 9.136719 9.136718h29.25v-66.382812zm0 0"/><path d="m206.980469 472.785156h29.25c3.566406-3.566406 5.570312-5.570312 9.136719-9.136718v-57.246094h-38.386719zm0 0"/></g><path d="m164.757812 347.230469s-20.148437 25.367187-45 25.367187c-24.855468 0-45-25.367187-45-25.367187s20.144532-25.367188 45-25.367188c24.851563 0 45 25.367188 45 25.367188zm0 0" fill="#ffb655"/><path d="m248.339844 108.417969v-31.542969c0-15.46875 9.324218-28.757812 22.660156-34.554688-4.597656-1.996093-9.667969-3.105468-15-3.105468-20.800781 0-37.660156 16.863281-37.660156 37.664062v31.539063c9.234375 9.238281 14.414062 14.414062 23.648437 23.652343h28.023438c.335937-.335937.664062-.664062.988281-.992187-8.628906-8.628906-13.761719-13.761719-22.660156-22.660156zm0 0" fill="#fbb984"/><path d="m206.898438 261.339844h30v23.914062h-30zm0 0" fill="#006df0"/><path d="m286.632812 463.648438v-57.246094h-20v57.246094c3.566407 3.566406 5.570313 5.570312 9.136719 9.136718h20c-3.566406-3.566406-5.570312-5.570312-9.136719-9.136718zm0 0" fill="#006df0"/><path d="m206.980469 406.402344h20v66.382812h-20zm0 0" fill="#006df0"/><path d="m104.757812 347.230469s12.519532-15.765625 30-22.441407c-4.695312-1.789062-9.742187-2.925781-15-2.925781-24.855468 0-45 25.367188-45 25.367188s20.144532 25.367187 45 25.367187c5.257813 0 10.304688-1.136718 15-2.929687-17.480468-6.671875-30-22.4375-30-22.4375zm0 0" fill="#ff7956"/><path d="m164.757812 347.230469s-13.015624-16.371094-31.019531-22.804688c-4.703125 6.382813-7.484375 14.265625-7.484375 22.804688 0 8.535156 2.78125 16.421875 7.484375 22.804687 18.003907-6.433594 31.019531-22.804687 31.019531-22.804687zm0 0" fill="#ffe477"/><path d="m355.898438 407.816406s17.1875 21.636719 38.386718 21.636719c21.199219 0 38.386719-21.636719 38.386719-21.636719s-17.1875-21.640625-38.386719-21.640625c-21.199218 0-38.386718 21.640625-38.386718 21.640625zm0 0" fill="#ffb655"/><path d="m372.898438 407.816406s11.097656-13.964844 26.460937-19.457031c4.007813 5.449219 6.382813 12.171875 6.382813 19.457031 0 7.28125-2.375 14.007813-6.382813 19.453125-15.363281-5.492187-26.460937-19.453125-26.460937-19.453125zm0 0" fill="#ff7956"/><path d="m355.898438 407.816406s11.097656-13.964844 26.460937-19.457031c4.007813 5.449219 6.382813 12.171875 6.382813 19.457031 0 7.28125-2.375 14.007813-6.382813 19.453125-15.363281-5.492187-26.460937-19.453125-26.460937-19.453125zm0 0" fill="#ffe477"/><path d="m236.851562 178.523438 19.140626-19.140626 19.144531 19.140626-19.144531 19.144531zm0 0" fill="#fff"/><path d="m454.796875 48c-17.535156 0-27.523437-3.214844-34.816406-5.5625-5.195313-1.671875-7.566407-2.4375-14.890625-2.4375-7.324219 0-9.695313.765625-14.890625 2.4375-4.292969 1.378906-9.628907 3.097656-16.792969 4.242188l-2.363281-14.8125c6.027343-.964844 10.363281-2.359376 14.558593-3.707032 5.699219-1.835937 9.8125-3.160156 19.488282-3.160156 9.679687 0 13.792968 1.324219 19.488281 3.15625 7.050781 2.273438 15.039063 4.84375 30.21875 4.84375 11.351563 0 18.460937-1.503906 22.820313-2.632812l3.765624 14.519531c-8.191406 2.125-16.640624 3.113281-26.585937 3.113281zm-99.40625 0c-2.96875 0-5.859375-.09375-8.589844-.273438l.996094-14.964843c2.398437.15625 4.953125.238281 7.59375.238281 2.234375 0 4.414063-.058594 6.480469-.171875l.832031 14.976563c-2.34375.128906-4.804687.195312-7.3125.195312zm-19.300781-1.535156c-6.519532-1.132813-11.503906-2.738282-15.511719-4.027344l4.601563-14.277344c3.929687 1.265625 7.992187 2.574219 13.480468 3.527344zm0 0" fill="#fff"/><path d="m264.769531 111.90625-10.609375-10.605469 6.539063-6.535156v-17.890625c0-2.589844-2.105469-4.699219-4.699219-4.699219v-15c10.863281 0 19.699219 8.839844 19.699219 19.699219v24.101562zm0 0" fill="#fff"/><path d="m366.703125 213.640625-13.601563-13.597656 10.605469-10.609375 13.601563 13.601562zm-20.671875-20.667969-10.605469-10.609375 10.605469-10.605469 10.605469 10.605469zm-17.675781-17.679687-10.609375-10.605469 10.609375-10.609375 10.605469 10.609375zm0 0" fill="#fff"/><path d="m512 243.882812v-243.882812h-7.5c-13.605469 0-20.800781 2.316406-27.148438 4.359375-6.070312 1.953125-11.308593 3.640625-22.558593 3.640625-11.246094 0-16.488281-1.6875-22.554688-3.640625-6.347656-2.042969-13.546875-4.359375-27.148437-4.359375-13.605469 0-20.800782 2.316406-27.148438 4.359375-6.066406 1.953125-11.304687 3.640625-22.550781 3.640625s-16.484375-1.6875-22.550781-3.640625c-6.351563-2.042969-13.546875-4.359375-27.148438-4.359375-13.601562 0-20.800781 2.316406-27.148437 4.359375-6.066407 1.953125-11.304688 3.640625-22.550781 3.640625-11.246094 0-16.484376-1.6875-22.550782-3.640625-6.347656-2.042969-13.542968-4.359375-27.144531-4.359375-13.605469 0-20.800781 2.316406-27.148437 4.359375-6.066407 1.953125-11.304688 3.640625-22.550782 3.640625-11.25 0-16.488281-1.6875-22.550781-3.640625-6.351563-2.042969-13.546875-4.359375-27.148437-4.359375-13.601563 0-20.800782 2.316406-27.148438 4.359375-6.066406 1.953125-11.304688 3.640625-22.550781 3.640625-11.246094 0-16.484375-1.6875-22.550781-3.640625-6.351563-2.042969-13.546876-4.359375-27.148438-4.359375h-7.5v512h512v-248.117188h-15v233.117188h-482v-481.699219c6.453125.570313 10.519531 1.878907 15.050781 3.339844 6.347657 2.042969 13.546875 4.359375 27.148438 4.359375 13.601562 0 20.796875-2.316406 27.148437-4.359375 6.0625-1.953125 11.304688-3.640625 22.550782-3.640625 11.246093 0 16.484374 1.6875 22.550781 3.640625 6.347656 2.042969 13.542969 4.359375 27.148437 4.359375 13.601563 0 20.796875-2.316406 27.144532-4.359375 6.066406-1.953125 11.304687-3.640625 22.554687-3.640625 11.246094 0 16.484375 1.6875 22.546875 3.640625 6.351562 2.042969 13.546875 4.359375 27.148438 4.359375 13.601562 0 20.796874-2.316406 27.148437-4.359375 6.0625-1.953125 11.300781-3.640625 22.550781-3.640625 11.246094 0 16.484375 1.6875 22.550782 3.640625 6.351562 2.042969 13.546874 4.359375 27.148437 4.359375s20.796875-2.316406 27.144531-4.359375c6.066406-1.953125 11.304688-3.640625 22.554688-3.640625 11.246094 0 16.484375 1.6875 22.550781 3.640625 6.351563 2.042969 13.546875 4.359375 27.152344 4.359375s20.800781-2.316406 27.152343-4.359375c4.527344-1.460937 8.597657-2.769531 15.050782-3.339844v228.582031zm0 0"/><path d="m226.898438 277.753906h58.203124v15h-58.203124zm0 0"/><path d="m285.101562 253.839844h-21.601562v-27.152344h-15v27.152344h-21.601562v15h58.203124zm0 0"/><path d="m259.132812 466.757812 13.53125 13.527344h39.855469c0-94.085937-.007812-50.246094.042969-197.535156l9.246094 9.242188c52.101562-52.101563 85.070312-85.070313 85.3125-85.3125l-74.890625-74.890626h-44.015625v-7.316406l12.945312-12.949218v-34.648438c0-24.902344-20.257812-45.160156-45.160156-45.160156s-45.160156 20.257812-45.160156 45.160156v34.648438l12.945312 12.949218v7.3125h-44.015625l-74.890625 74.894532c.191406.191406 19.164063 19.160156 85.3125 85.3125l9.246094-9.246094c.050781 147.261718.042969 103.445312.042969 197.539062h39.855469l13.53125-13.53125v-136.363281h6.265624zm38.386719-1.472656h-18.640625l-4.746094-4.742187v-46.640625h23.386719zm15.066407-238.796875.011718-39.601562 19.792969 19.792969c-26.660156 26.660156-15.0625 15.066406-19.804687 19.808593zm0 35.070313v-13.855469l11.945312-11.945313 16.148438 16.148438-18.871094 18.875zm-86.746094-184.683594c0-16.628906 13.527344-30.160156 30.160156-30.160156s30.160156 13.53125 30.160156 30.160156v28.4375l-15.765625 15.765625-3.492187 3.488281h-21.804688l-19.257812-19.253906zm-26.425782 184.683594-9.222656 9.222656-18.871094-18.875 16.148438-16.148438 11.945312 11.945313zm-19.808593-54.878906 19.796875-19.792969.011718 39.601562c-4.640624-4.644531 7.65625 7.65625-19.808593-19.808593zm58.261719 253.863281-4.746094 4.742187h-18.640625v-51.382812h23.386719zm0-145.152344v83.511719h-23.390626l-.066406-190.140625 11.597656 11.597656h20.53125v-15h-14.320312l-17.816406-17.820313-.007813-18.269531-13.144531-5.449219-42.855469 42.859376 18.46875 18.46875-16.152343 16.152343-34.621094-34.621093 59.890625-59.890626h52.804687v-7.316406l.097656.09375h34.234376l.09375-.09375v7.316406h52.804687l59.890625 59.890626-34.621094 34.621093-16.152344-16.152343 18.472657-18.46875-42.859375-42.855469-13.144532 5.445312-.007812 18.269531-17.816406 17.820313h-14.320313v15h20.535157l11.597656-11.597656-.070313 190.140625h-23.386719v-83.511719zm0 0"/><path d="m100.808594 392.21875 12.574218-12.578125c2.082032.296875 4.210938.457031 6.375.457031 28.148438 0 49.957032-27.050781 50.871094-28.203125l3.707032-4.664062-3.707032-4.664063c-.769531-.972656-16.402344-20.367187-38.167968-26.417968l-18.566407-18.5625-10.605469 10.605468 7.140626 7.140625c-15.699219 3.234375-28.601563 13.84375-35.675782 20.835938-5.214844-5.144531-13.574218-12.253907-23.832031-16.914063l-6.210937 13.652344c8.523437 3.875 15.628906 10.070312 19.882812 14.324219-4.257812 4.253906-11.359375 10.449219-19.882812 14.324219l6.210937 13.652343c10.257813-4.664062 18.617187-11.769531 23.828125-16.914062 4.972656 4.910156 12.816406 11.609375 22.488281 16.277343l-7.035156 7.039063zm35.9375-31.675781c-4-8.378907-3.996094-18.285157.023437-26.667969 7.609375 3.882812 13.945313 9.464844 17.859375 13.386719-4.269531 4.269531-10.601562 9.570312-17.882812 13.28125zm-16.988282-31.179688c.851563 0 1.703126.035157 2.542969.109375-4.730469 11.277344-4.738281 24.21875 0 35.511719-.847656.074219-1.695312.113281-2.546875.113281-14.820312 0-28.246094-11.269531-34.839844-17.867187 6.601563-6.601563 20.023438-17.867188 34.84375-17.867188zm0 0"/><path d="m452.546875 382.945312c-8.394531 3.816407-15.324219 9.519532-19.871094 13.898438-5.964843-5.742188-16.035156-13.753906-28.25-16.863281l4.6875-4.6875-10.605469-10.609375-15.640624 15.640625c-18.773438 5.359375-32.179688 21.988281-32.84375 22.828125l-3.703126 4.664062 3.703126 4.664063c.792968 1 19.722656 24.472656 44.261718 24.472656 1.707032 0 3.390625-.113281 5.042969-.324219l10.339844 10.34375 10.605469-10.605468-4.925782-4.929688c7.273438-3.753906 13.257813-8.734375 17.328125-12.648438 4.546875 4.375 11.476563 10.078126 19.871094 13.898438l6.210937-13.65625c-6.621093-3.007812-12.226562-7.703125-15.84375-11.210938 3.628907-3.511718 9.25-8.222656 15.84375-11.21875zm-73.300781 14.992188c2.660156 6.269531 2.664062 13.484375 0 19.753906-5.414063-2.941406-10-6.851562-13.117188-9.878906 3.117188-3.027344 7.703125-6.933594 13.117188-9.875zm15.039062 24.015625c-.195312 0-.390625 0-.585937-.007813 3.328125-8.878906 3.453125-19.042968 0-28.261718.195312-.007813.390625-.007813.585937-.007813 11.699219 0 22.417969 8.570313 28.152344 14.140625-5.738281 5.570313-16.457031 14.136719-28.152344 14.136719zm0 0"/><path d="m285.746094 178.523438-29.75-29.746094-29.75 29.746094 29.75 29.75zm-29.75-8.535157 8.535156 8.535157-8.535156 8.535156-8.535156-8.535156zm0 0"/></svg>