<svg height="512pt" viewBox="-14 0 512 512.001" width="512pt" xmlns="http://www.w3.org/2000/svg"><path d="m332.878906 201.402344h-28.363281v31.984375l-24.6875 24.6875h-19.992187v-13.21875c-2.390626 2.390625-4.84375 4.839843-7.894532 7.894531h-20.667968l-7.894532-7.894531v13.21875h-19.992187l-24.6875-24.6875v-31.984375h-28.363281v43.734375l55.054687 55.050781v157.804688h72.433594v-157.804688l55.054687-55.050781zm0 0" fill="#a4e276"/><path d="m277.605469 294c0 8.835938-7.164063 16-16 16-8.835938 0-16-7.164062-16-16s7.164062-16 16-16c8.835937 0 16 7.164062 16 16zm0 0" fill="#64c37d"/><path d="m432.578125 165.992188c0 24.609374-19.953125 44.5625-44.5625 44.5625-24.613281 0-44.5625-19.953126-44.5625-44.5625 0-24.613282 19.949219-44.5625 44.5625-44.5625 24.609375 0 44.5625 19.949218 44.5625 44.5625zm0 0" fill="#787680"/><path d="m441.460938 77.683594h-111.757813l-74.121094-70.183594h-163.003906l-85.078125 70.183594v72.824218l17.46875 17.46875h21.277344c-.03125-.660156-.050782-1.320312-.050782-1.984374 0-24.613282 19.953126-44.5625 44.5625-44.5625 24.613282 0 44.5625 19.953124 44.5625 44.5625 0 .664062-.019531 1.324218-.046874 1.984374h208.226562c-.027344-.660156-.046875-1.320312-.046875-1.984374 0-24.613282 19.949219-44.5625 44.5625-44.5625 24.609375 0 44.5625 19.953124 44.5625 44.5625 0 .664062-.023437 1.324218-.050781 1.984374h25.722656l17.464844-17.46875v-38.570312zm0 0" fill="#ff3f62"/><g fill="#c70024"><path d="m120.757812 121.429688c-5.261718 0-10.3125.914062-15 2.585937 17.230469 6.160156 29.5625 22.628906 29.5625 41.976563 0 .664062-.019531 1.324218-.050781 1.984374h30c.03125-.660156.050781-1.320312.050781-1.984374 0-24.609376-19.949218-44.5625-44.5625-44.5625zm0 0"/><path d="m46.640625 159.652344-9.140625-9.144532v-72.824218l85.078125-70.183594h-30l-85.078125 70.183594v72.824218l17.46875 17.46875h21.277344c-.03125-.660156-.050782-1.320312-.050782-1.984374 0-2.152344.152344-4.269532.445313-6.339844zm0 0"/><path d="m418.015625 121.429688c-5.265625 0-10.3125.914062-15 2.585937 17.230469 6.160156 29.5625 22.628906 29.5625 41.976563 0 .664062-.023437 1.324218-.050781 1.984374h25.722656l4.269531-4.273437c-1.191406-23.546875-20.660156-42.273437-44.503906-42.273437zm0 0"/><path d="m326.480469 77.828125h-106.660157v-49.320313h54.574219zm0 0"/><path d="m76.601562 77.828125h108.40625v-49.320313h-48.621093zm0 0"/><path d="m209.820312 102.785156h36.785157v19.730469h-36.785157zm0 0"/></g><path d="m269.386719 212.039062v23.265626c-6.8125 6.8125-10.632813 10.632812-17.445313 17.445312h-20.667968c-6.8125-6.8125-10.632813-10.632812-17.445313-17.445312v-23.265626c0-15.339843 12.4375-27.777343 27.777344-27.777343 15.34375 0 27.78125 12.4375 27.78125 27.777343zm0 0" fill="#ffdaaa"/><path d="m241.605469 457.992188.003906 37.058593 9.449219 9.449219h26.765625v-46.507812zm0 0" fill="#ffe477"/><path d="m241.605469 457.992188-.003907 37.058593-9.453124 9.449219h-26.765626v-46.507812zm0 0" fill="#ffe477"/><path d="m205.390625 346.347656h72.433594v21.714844h-72.433594zm0 0" fill="#ffe477"/><path d="m332.878906 201.402344v-33.425782h-18.125l-10.238281 10.238282v23.1875zm0 0" fill="#ffdaaa"/><path d="m150.335938 201.402344v-33.425782h18.125l10.238281 10.238282v23.1875zm0 0" fill="#ffdaaa"/><path d="m296.480469 77.828125h-106.660157v-49.320313h54.574219zm0 0" fill="#bddbff"/><path d="m46.601562 77.828125h108.40625v-49.320313h-48.621093zm0 0" fill="#bddbff"/><path d="m135.320312 165.992188c0 24.609374-19.953124 44.5625-44.5625 44.5625-24.613281 0-44.5625-19.953126-44.5625-44.5625 0-24.613282 19.949219-44.5625 44.5625-44.5625 24.609376 0 44.5625 19.949218 44.5625 44.5625zm0 0" fill="#787680"/><path d="m111.296875 165.992188c0 11.34375-9.195313 20.539062-20.539063 20.539062s-20.542968-9.195312-20.542968-20.539062 9.199218-20.542969 20.542968-20.542969 20.539063 9.199219 20.539063 20.542969zm0 0" fill="#c6c5ca"/><path d="m408.554688 165.992188c0 11.34375-9.195313 20.539062-20.539063 20.539062s-20.542969-9.195312-20.542969-20.539062 9.199219-20.542969 20.542969-20.542969 20.539063 9.199219 20.539063 20.542969zm0 0" fill="#c6c5ca"/><path d="m430.09375 95.320312v12.605469c3.851562 3.851563 6.011719 6.011719 9.863281 9.863281h35.757813v-5.851562l-16.617188-16.617188zm0 0" fill="#ffe477"/><path d="m189.820312 102.785156h36.785157v19.730469h-36.785157zm0 0" fill="#e0e0e2"/><path d="m296.660156 281.351562 36.21875 149.894532-55.054687 18.09375v-149.152344zm-91.269531 18.835938-16.292969-16.289062-35.675781 147.347656 51.960937 17.679687zm0 0" fill="#ffe477"/><path d="m7.5 95.285156h25.964844v39.644532h-25.964844zm0 0" fill="#ffe477"/><path d="m430.09375 95.320312v12.605469c3.851562 3.851563 6.011719 6.011719 9.863281 9.863281h35.757813v-5.851562l-16.617188-16.617188zm0 0" fill="#ffb655"/><path d="m7.5 95.285156h25.964844v39.644532h-25.964844zm0 0" fill="#ffb655"/><path d="m180.335938 245.136719v-10.109375l-1.636719-1.640625v-31.984375h-28.363281v43.734375l55.054687 55.050781v157.804688h30v-157.804688zm0 0" fill="#64c37d"/><path d="m373.449219 165.992188c0-19.347657 12.332031-35.816407 29.5625-41.976563-4.683594-1.671875-9.734375-2.585937-15-2.585937-24.609375 0-44.5625 19.953124-44.5625 44.5625 0 24.609374 19.953125 44.5625 44.5625 44.5625 5.265625 0 10.316406-.914063 15-2.585938-17.230469-6.160156-29.5625-22.628906-29.5625-41.976562zm0 0" fill="#57565c"/><path d="m243.828125 235.304688v-23.265626c0-9.8125 5.09375-18.441406 12.78125-23.382812-4.328125-2.78125-9.476563-4.394531-15-4.394531-15.34375 0-27.78125 12.4375-27.78125 27.777343v23.265626l17.445313 17.445312h20.667968c1.714844-1.714844 3.234375-3.234375 4.667969-4.664062zm0 0" fill="#fbb984"/><path d="m261.605469 457.992188h-20l.003906 37.058593 9.449219 9.449219h20l-9.449219-9.449219zm0 0" fill="#ffb655"/><path d="m205.382812 457.992188h20v46.507812h-20zm0 0" fill="#ffb655"/><path d="m205.390625 346.347656h30v21.714844h-30zm0 0" fill="#ffb655"/><path d="m189.820312 28.507812h30v49.320313h-30zm0 0" fill="#57a4ff"/><path d="m106.386719 28.507812-59.785157 49.320313h30l59.785157-49.320313zm0 0" fill="#57a4ff"/><path d="m76.195312 165.992188c0-19.347657 12.332032-35.816407 29.5625-41.976563-4.6875-1.671875-9.738281-2.585937-15-2.585937-24.613281 0-44.5625 19.953124-44.5625 44.5625 0 24.609374 19.953126 44.5625 44.5625 44.5625 5.261719 0 10.3125-.914063 15-2.585938-17.230468-6.160156-29.5625-22.628906-29.5625-41.976562zm0 0" fill="#57565c"/><path d="m90.21875 165.992188c0-7.714844 4.25-14.433594 10.539062-17.945313-2.957031-1.652344-6.371093-2.59375-10-2.59375-11.34375 0-20.539062 9.195313-20.539062 20.539063 0 11.347656 9.195312 20.542968 20.539062 20.542968 3.628907 0 7.042969-.941406 10-2.59375-6.289062-3.515625-10.539062-10.234375-10.539062-17.949218zm0 0" fill="#898890"/><path d="m387.472656 165.992188c0-7.714844 4.253906-14.433594 10.542969-17.945313-2.960937-1.652344-6.371094-2.59375-10-2.59375-11.34375 0-20.542969 9.195313-20.542969 20.539063 0 11.347656 9.195313 20.542968 20.542969 20.542968 3.628906 0 7.039063-.941406 10-2.59375-6.289063-3.515625-10.542969-10.234375-10.542969-17.949218zm0 0" fill="#898890"/><path d="m189.820312 102.785156h20v19.730469h-20zm0 0" fill="#c6c5ca"/><path d="m183.425781 431.246094 21.960938-90.71875.003906-40.339844-16.292969-16.289062-35.671875 147.347656 51.957031 17.679687v-10.207031zm0 0" fill="#ffb655"/><path d="m307.824219 327.5625-11.164063-46.210938-18.835937 18.835938v149.152344l30-9.859375zm0 0" fill="#ffb655"/><path d="m257.605469 294c0 8.835938-7.164063 16-16 16-8.835938 0-16-7.164062-16-16s7.164062-16 16-16c8.835937 0 16 7.164062 16 16zm0 0" fill="#ffb655"/><path d="m225.390625 338.847656h32.433594v15h-32.433594zm0 0"/><path d="m225.390625 360.5625h32.433594v15h-32.433594zm0 0"/><path d="m247.382812 21.007812h-65.0625v64.320313h132.988282zm-50.0625 15h44.085938l36.246094 34.320313h-80.332032zm0 0"/><path d="m162.507812 21.007812h-58.816406l-77.96875 64.320313h136.785156zm-15 49.320313h-80.03125l41.605469-34.320313h38.425781zm0 0"/><path d="m90.757812 194.03125c15.460938 0 28.039063-12.578125 28.039063-28.039062 0-15.460938-12.578125-28.042969-28.039063-28.042969-15.460937 0-28.042968 12.582031-28.042968 28.042969 0 15.460937 12.582031 28.039062 28.042968 28.039062zm0-41.082031c7.191407 0 13.039063 5.851562 13.039063 13.042969 0 7.191406-5.847656 13.039062-13.039063 13.039062-7.191406 0-13.042968-5.847656-13.042968-13.039062 0-7.191407 5.851562-13.042969 13.042968-13.042969zm0 0"/><path d="m388.011719 137.949219c-15.460938 0-28.039063 12.582031-28.039063 28.042969 0 15.460937 12.578125 28.039062 28.039063 28.039062 15.464843 0 28.042969-12.578125 28.042969-28.039062 0-15.460938-12.578126-28.042969-28.042969-28.042969zm0 41.082031c-7.1875 0-13.039063-5.847656-13.039063-13.039062 0-7.191407 5.851563-13.042969 13.039063-13.042969 7.191406 0 13.042969 5.851562 13.042969 13.042969 0 7.191406-5.851563 13.039062-13.042969 13.039062zm0 0"/><path d="m198.699219 160.476562h85.816406v15h-85.816406zm0 0"/><path d="m462.203125 87.820312-17.636719-17.636718h-111.875l-74.121094-70.183594h-168.6875l-89.882812 74.148438v79.464843l21.859375 21.863281h17.699219c4.472656 24.195313 25.730468 42.578126 51.199218 42.578126 28.707032 0 52.0625-23.355469 52.0625-52.0625 0-28.707032-23.355468-52.0625-52.0625-52.0625-26.84375 0-49.007812 20.421874-51.773437 46.546874h-10.910156l-13.074219-13.074218v-4.972656h25.964844v-54.644532h-25.964844v-6.566406l80.273438-66.21875h157.320312l74.121094 70.183594h111.640625l2.636719 2.636718h-18.398438v23.210938l14.257812 14.257812h31.363282v22.113282l-13.074219 13.074218h-15.351563c-2.765624-26.125-24.929687-46.546874-51.773437-46.546874s-49.007813 20.421874-51.773437 46.546874h-24.59375l-14.632813 14.632813v55.171875l-20.292969 20.296875h-9.386718v-2.617187l9.550781-9.546876v-26.371093c0-19.453125-15.828125-35.277344-35.277344-35.277344-19.453125 0-35.277344 15.824219-35.277344 35.277344v26.371093l9.546875 9.546876v2.617187h-9.382812l-20.296875-20.296875v-55.171875l-14.632813-14.632813h-28.726562v87.765626l55.050781 55.054687c0 9.789063-.007813 197.359375-.007813 208.703125h37.375l6.347657-6.347656 6.347656 6.347656h37.375v-208.703125l55.050781-55.054687v-61.246094c8.089844 18.277344 26.398438 31.058594 47.636719 31.058594 25.46875 0 46.726563-18.382813 51.199219-42.578126h22.140625l21.859375-21.863281v-44.78125zm-371.445313 41.109376c20.4375 0 37.0625 16.625 37.0625 37.0625s-16.625 37.0625-37.0625 37.0625-37.0625-16.625-37.0625-37.0625 16.625-37.0625 37.0625-37.0625zm-64.792968-26.144532v24.644532h-10.964844v-24.644532zm195.363281 109.253906c0-11.179687 9.097656-20.277343 20.28125-20.277343 11.179687 0 20.277344 9.097656 20.277344 20.277343v20.160157l-13.050781 13.050781h-14.457032l-13.050781-13.050781zm-63.492187-36.5625h7.515624l5.847657 5.84375v12.582032h-13.363281zm76.265624 316.464844-5.058593 5.058594h-16.160157v-31.507812h21.222657zm36.222657 5.058594h-16.160157l-5.054687-5.058594-.003906-26.449218h21.21875zm55.054687-254.972656-40.054687 40.054687v-5.0625h-15v173.472657h-21.21875v-56.984376h-15v56.984376h-21.214844v-173.472657h-15v5.0625l-40.054687-40.050781v-33.128906h13.363281v27.59375l29.082031 29.082031h30.597656v-5.328125h21.457032v5.328125h30.597656l29.082031-29.082031v-27.59375h13.363281zm-13.363281-48.125v-12.582032l5.847656-5.84375h7.515625v18.425782zm75.996094 9.152344c-20.433594 0-37.0625-16.625-37.0625-37.0625 0-20.433594 16.628906-37.0625 37.0625-37.0625 20.4375 0 37.066406 16.628906 37.066406 37.0625 0 20.4375-16.628906 37.0625-37.066406 37.0625zm55.054687-92.765626-5.472656-5.472656v-1.996094h18.394531l7.46875 7.46875zm0 0"/><path d="m182.320312 130.015625h51.785157v-34.730469h-51.785157zm15-19.730469h21.785157v4.730469h-21.785157zm0 0"/><path d="m294.875 305.894531 29.085938 120.386719-28.476563 9.363281 4.683594 14.25 41.625-13.683593-32.339844-133.839844zm0 0"/><path d="m176.296875 304.902344-31.773437 131.238281 38.449218 13.082031 4.832032-14.203125-25.480469-8.667969 28.550781-117.917968zm0 0"/><path d="m241.605469 270.5c-12.957031 0-23.5 10.542969-23.5 23.5s10.542969 23.5 23.5 23.5 23.5-10.542969 23.5-23.5-10.542969-23.5-23.5-23.5zm0 32c-4.6875 0-8.5-3.8125-8.5-8.5s3.8125-8.5 8.5-8.5 8.5 3.8125 8.5 8.5-3.8125 8.5-8.5 8.5zm0 0"/><path d="m393.863281 109.328125h-67.5v-15h67.5zm-77.5 0h-15v-15h15zm-25 0h-15v-15h15zm0 0" fill="#fff"/><path d="m290.078125 381.199219 14.582031-3.523438 9.894532 40.941407-14.582032 3.523437zm0 0" fill="#fff"/></svg>