<svg height="512pt" viewBox="-16 0 512 512.002" width="512pt" xmlns="http://www.w3.org/2000/svg"><path d="m132.5625 121.5c-.347656 6.96875-.535156 14.308594-.535156 21.898438 0 7.589843.1875 14.929687.535156 21.898437h51.179688v267.375h43.800781v-113.984375h24.265625v113.984375h43.796875v-267.371094h51.179687c.347656-6.972656.539063-14.3125.539063-21.902343 0-7.589844-.191407-14.929688-.539063-21.898438h-78.960937v-20.417969c-3.691407 3.691407-7.476563 7.476563-12.191407 12.191407h-31.917968l-12.191406-12.191407v20.417969zm0 0" fill="#ffe477"/><path d="m269.6875 146.796875c-17.523438 0-31.730469 14.207031-31.730469 31.734375 0 17.523438 14.207031 31.730469 31.730469 31.730469 10.707031 0 20.171875-5.300781 25.917969-13.421875v-31.542969h2.929687c-5.011718-10.917969-16.042968-18.5-28.847656-18.5zm0 0" fill="#ffb655"/><path d="m282.574219 50.402344v35.929687c-10.519531 10.523438-16.417969 16.417969-26.941407 26.941407h-31.917968c-10.519532-10.523438-16.417969-16.417969-26.941406-26.941407v-35.929687c0-23.691406 19.207031-42.898438 42.902343-42.898438 23.691407 0 42.898438 19.207032 42.898438 42.898438zm0 0" fill="#ffdaaa"/><path d="m183.742188 258.5h111.863281v28.445312h-111.863281zm0 0" fill="#57a4ff"/><path d="m183.742188 504.496094h33.375c4.070312-4.070313 6.351562-6.355469 10.425781-10.425782v-61.394531h-43.800781zm0 0" fill="#57a4ff"/><path d="m251.808594 432.671875v61.398437l10.425781 10.425782h33.371094v-71.824219zm0 0" fill="#57a4ff"/><path d="m318.703125 121.5c1.710937-34.339844 7.347656-59.542969 14.039063-59.542969 6.695312 0 12.332031 25.203125 14.042968 59.542969zm0 43.800781c1.710937 34.335938 7.347656 59.539063 14.039063 59.539063 6.695312 0 12.332031-25.203125 14.042968-59.539063zm0 0" fill="#bddbff"/><path d="m33.523438 294.234375c1.714843-34.335937 7.347656-59.542969 14.042968-59.542969 6.691406 0 12.328125 25.207032 14.039063 59.542969zm0 43.800781c1.714843 34.339844 7.347656 59.542969 14.042968 59.542969 6.691406 0 12.328125-25.203125 14.039063-59.542969zm0 0" fill="#bddbff"/><path d="m127.988281 310.046875-15.8125-15.8125h-58.660156v43.800781h74.472656zm0 0" fill="#57a4ff"/><path d="m33.519531 338.035156c-.347656-6.96875-.535156-14.3125-.535156-21.898437 0-7.589844.1875-14.933594.535156-21.902344h19.996094v43.800781zm0 0" fill="#ffe477"/><path d="m417.742188 294.234375c1.710937-34.335937 7.347656-59.542969 14.042968-59.542969 6.691406 0 12.328125 25.207032 14.039063 59.542969zm0 43.800781c1.710937 34.339844 7.347656 59.542969 14.042968 59.542969 6.691406 0 12.328125-25.203125 14.039063-59.542969zm0 0" fill="#bddbff"/><path d="m351.359375 310.046875 15.8125-15.8125h58.660156v43.800781h-74.472656zm0 0" fill="#57a4ff"/><path d="m445.832031 338.035156c.34375-6.96875.53125-14.3125.53125-21.898437 0-7.589844-.1875-14.933594-.53125-21.902344h-20v43.800781zm0 0" fill="#ffe477"/><path d="m132.5625 121.5c1.714844-34.339844 7.351562-59.542969 14.042969-59.542969 6.691406 0 12.328125 25.203125 14.042969 59.542969zm0 43.800781c1.714844 34.335938 7.351562 59.539063 14.042969 59.539063 6.691406 0 12.328125-25.203125 14.042969-59.539063zm0 0" fill="#bddbff"/><path d="m271.402344 178.53125c0 17.523438-14.207032 31.730469-31.730469 31.730469s-31.730469-14.207031-31.730469-31.730469c0-17.527344 14.207032-31.734375 31.730469-31.734375s31.730469 14.207031 31.730469 31.734375zm0 0" fill="#fff"/><g fill="#ffb655"><path d="m33.519531 338.035156c-.347656-6.96875-.535156-14.3125-.535156-21.898437 0-7.589844.1875-14.933594.535156-21.902344h19.996094v43.800781zm0 0"/><path d="m445.832031 338.035156c.34375-6.96875.53125-14.3125.53125-21.898437 0-7.589844-.1875-14.933594-.53125-21.902344h-20v43.800781zm0 0"/><path d="m162.578125 121.5h-30.015625c-.347656 6.96875-.535156 14.308594-.535156 21.898438 0 7.589843.1875 14.929687.535156 21.898437h30.015625c-.347656-6.96875-.535156-14.308594-.535156-21.898437 0-7.589844.191406-14.929688.535156-21.898438zm0 0"/><path d="m183.742188 165.300781h30.015624v267.371094h-30.015624zm0 0"/></g><path d="m226.792969 86.332031v-35.929687c0-18.410156 11.601562-34.113282 27.890625-40.199219-4.671875-1.746094-9.726563-2.699219-15.007813-2.699219-23.695312 0-42.898437 19.207032-42.898437 42.898438v35.929687l26.9375 26.941407h30.015625zm0 0" fill="#fbb984"/><path d="m183.742188 258.5h30.015624v28.445312h-30.015624zm0 0" fill="#006df0"/><path d="m183.742188 432.671875h20.011718v71.824219h-20.011718zm0 0" fill="#006df0"/><path d="m271.816406 432.671875h-20.007812v61.398437l10.425781 10.425782h20.007813l-10.425782-10.425782zm0 0" fill="#006df0"/><path d="m340.25 73.566406c-2.191406-7.371094-4.757812-11.609375-7.503906-11.609375-6.695313 0-12.328125 25.203125-14.042969 59.542969h15.007813c1.011718-20.257812 3.386718-37.332031 6.539062-47.933594zm0 0" fill="#57a4ff"/><path d="m333.710938 165.300781h-15.007813c1.710937 34.335938 7.347656 59.539063 14.039063 59.539063 2.746093 0 5.316406-4.238282 7.507812-11.609375-3.152344-10.601563-5.527344-27.675781-6.539062-47.929688zm0 0" fill="#57a4ff"/><path d="m55.070312 246.304688c-2.191406-7.371094-4.757812-11.613282-7.503906-11.613282-6.695312 0-12.328125 25.207032-14.042968 59.542969h15.007812c1.011719-20.253906 3.386719-37.332031 6.539062-47.929687zm0 0" fill="#57a4ff"/><path d="m48.53125 338.035156h-15.007812c1.714843 34.339844 7.347656 59.542969 14.042968 59.542969 2.746094 0 5.3125-4.242187 7.503906-11.609375-3.152343-10.601562-5.527343-27.679688-6.539062-47.933594zm0 0" fill="#57a4ff"/><path d="m53.515625 294.234375h30.015625v43.800781h-30.015625zm0 0" fill="#006df0"/><path d="m432.75 338.035156h-15.007812c1.710937 34.339844 7.347656 59.542969 14.042968 59.542969 2.742188 0 5.3125-4.242187 7.503906-11.609375-3.152343-10.601562-5.527343-27.679688-6.539062-47.933594zm0 0" fill="#57a4ff"/><path d="m439.289062 246.304688c-2.191406-7.371094-4.761718-11.613282-7.503906-11.613282-6.695312 0-12.332031 25.207032-14.042968 59.542969h15.007812c1.011719-20.253906 3.386719-37.332031 6.539062-47.929687zm0 0" fill="#57a4ff"/><path d="m397.191406 294.234375h-30.019531l-15.8125 15.8125v27.988281h30.015625v-27.988281zm0 0" fill="#006df0"/><path d="m154.109375 73.566406c-2.191406-7.371094-4.757813-11.609375-7.503906-11.609375-6.691407 0-12.328125 25.203125-14.042969 59.542969h15.007812c1.011719-20.257812 3.386719-37.332031 6.539063-47.933594zm0 0" fill="#57a4ff"/><path d="m147.570312 165.300781h-15.007812c1.714844 34.335938 7.351562 59.539063 14.042969 59.539063 2.746093 0 5.3125-4.238282 7.503906-11.609375-3.152344-10.601563-5.527344-27.675781-6.539063-47.929688zm0 0" fill="#57a4ff"/><path d="m237.957031 178.53125c0-12.097656 6.765625-22.613281 16.722657-27.964844-4.46875-2.40625-9.578126-3.769531-15.007813-3.769531-17.523437 0-31.730469 14.207031-31.730469 31.734375 0 17.523438 14.207032 31.730469 31.730469 31.730469 5.429687 0 10.539063-1.363281 15.007813-3.769531-9.957032-5.351563-16.722657-15.867188-16.722657-27.960938zm0 0" fill="#d1e7f8"/><path d="m250.578125 93.566406-10.609375-10.613281 10.085938-10.089844v-.53125h.53125l1.667968-1.664062 1.667969 1.664062h11.144531v6.75zm14.488281-31.238281h-15.011718v-11.925781c0-.601563-.050782-1.199219-.152344-1.78125l14.789062-2.570313c.246094 1.429688.375 2.898438.375 4.355469zm-17.671875-18.855469c-1.972656-2.191406-4.785156-3.449218-7.71875-3.449218v-15.007813c7.183594 0 14.066407 3.070313 18.882813 8.425781zm0 0" fill="#fff"/><path d="m281.210938 408.371094h-15.007813v-38.226563h15.007813zm0-48.234375h-15.007813v-15.007813h15.007813zm0-25.011719h-15.007813v-15.007812h15.007813zm0 0" fill="#fff"/><path d="m203.753906 250.996094h71.84375v15.007812h-71.84375zm0 0"/><path d="m203.753906 279.441406h71.84375v15.007813h-71.84375zm0 0"/><path d="m41.464844 286.730469c1.332031-18.910157 3.808594-32.136719 6.070312-39.378907 1.625 5.136719 3.578125 13.859376 5.066406 27.675782l14.921876-1.605469c-1.324219-12.304687-3.230469-22.703125-5.507813-30.0625-1.367187-4.421875-5.003906-16.171875-14.449219-16.171875-8.636718 0-13.929687 8.984375-17.695312 30.039062-5.855469 32.699219-5.855469 85.113282 0 117.820313 3.765625 21.054687 9.058594 30.035156 17.695312 30.035156 9.445313 0 13.082032-11.746093 14.449219-16.171875 2.277344-7.359375 4.183594-17.753906 5.507813-30.058594l-14.921876-1.605468c-1.488281 13.816406-3.441406 22.535156-5.066406 27.675781-2.261718-7.242187-4.738281-20.46875-6.066406-39.378906h94.027344v-38.601563l-20.210938-20.210937zm4.546875 43.800781h-5.300781c-.289063-9.183594-.300782-19.203125 0-28.792969h5.300781zm74.472656 0h-59.464844v-28.792969h48.046875l11.417969 11.417969zm0 0"/><path d="m239.671875 139.292969c-21.636719 0-39.234375 17.601562-39.234375 39.238281 0 21.632812 17.597656 39.234375 39.234375 39.234375 21.632813 0 39.234375-17.601563 39.234375-39.234375 0-21.636719-17.601562-39.238281-39.234375-39.238281zm0 63.464843c-13.359375 0-24.226563-10.867187-24.226563-24.226562s10.867188-24.230469 24.226563-24.230469 24.226563 10.871094 24.226563 24.230469-10.867188 24.226562-24.226563 24.226562zm0 0"/><path d="m375.019531 207.953125c3.109375-16.648437 4.824219-38.367187 4.824219-61.15625s-1.714844-44.507813-4.824219-61.15625l-14.753906 2.757813c2.945313 15.765624 4.566406 36.507812 4.566406 58.398437 0 21.894531-1.621093 42.632813-4.566406 58.402344zm0 0"/><path d="m474.527344 254.980469-14.753906 2.753906c2.945312 15.769531 4.566406 36.507813 4.566406 58.398437 0 21.894532-1.621094 42.632813-4.566406 58.402344l14.753906 2.753906c3.109375-16.648437 4.820312-38.367187 4.820312-61.15625 0-22.785156-1.710937-44.503906-4.820312-61.152343zm0 0"/><path d="m4.824219 254.980469c-3.109375 16.648437-4.824219 38.367187-4.824219 61.152343 0 22.789063 1.714844 44.507813 4.824219 61.15625l14.753906-2.753906c-2.945313-15.769531-4.570313-36.507812-4.570313-58.402344 0-21.890624 1.625-42.628906 4.570313-58.398437zm0 0"/><path d="m119.082031 205.199219c-2.945312-15.769531-4.566406-36.507813-4.566406-58.402344 0-21.890625 1.621094-42.632813 4.566406-58.398437l-14.75-2.757813c-3.109375 16.648437-4.824219 38.367187-4.824219 61.15625s1.714844 44.507813 4.824219 61.15625zm0 0"/><path d="m350.441406 84.488281c-3.769531-21.054687-9.0625-30.039062-17.695312-30.039062-9.449219 0-13.082032 11.75-14.453125 16.171875-2.277344 7.363281-4.179688 17.757812-5.503907 30.0625l14.921876 1.605468c1.484374-13.816406 3.4375-22.535156 5.066406-27.675781 2.257812 7.242188 4.734375 20.472657 6.066406 39.378907h-63.511719v-9.804688l14.746094-14.75v-39.035156c0-27.789063-22.609375-50.402344-50.402344-50.402344s-50.402343 22.613281-50.402343 50.402344v39.039062l14.746093 14.75v9.804688l-63.515625-.003906c1.332032-18.90625 3.808594-32.132813 6.070313-39.378907 1.625 5.140625 3.578125 13.863281 5.066406 27.675781l14.921875-1.605468c-1.324219-12.304688-3.230469-22.699219-5.507812-30.058594-1.367188-4.421875-5.003907-16.171875-14.449219-16.171875-8.636719 0-13.929688 8.980469-17.695313 30.035156-5.855468 32.691407-5.855468 85.113281 0 117.820313 3.765625 21.054687 9.058594 30.039062 17.695313 30.039062 9.445312 0 13.082031-11.75 14.449219-16.171875 2.277343-7.363281 4.183593-17.757812 5.507812-30.0625l-14.921875-1.605469c-1.488281 13.816407-3.441406 22.539063-5.066406 27.675782-2.261719-7.242188-4.738281-20.46875-6.070313-39.378906h35.734375v339.199218h43.984375l14.820313-14.824218v-170.984376h9.257812v170.984376l14.824219 14.824218h43.984375v-339.203125h35.734375c-1.332031 18.910157-3.808594 32.136719-6.070312 39.382813-1.625-5.140625-3.578126-13.863282-5.066407-27.675782l-14.921875 1.605469c1.324219 12.304688 3.230469 22.699219 5.507813 30.058594 1.367187 4.421875 5.003906 16.171875 14.449219 16.171875 8.636718 0 13.925781-8.980469 17.695312-30.035156 5.855469-32.691406 5.859375-85.113282.003906-117.820313zm-110.765625-69.480469c19.515625 0 35.394531 15.878907 35.394531 35.394532v32.824218l-20.792968 20.789063-1.753906 1.753906h-25.703126l-22.542968-22.546875v-32.820312c.003906-19.515625 15.878906-35.394532 35.398437-35.394532zm-19.636719 475.953126-6.03125 6.03125h-22.761718v-56.816407h28.792968zm68.0625 6.03125h-22.761718l-6.027344-6.03125v-50.785157h28.789062zm.003907-339.199219v267.375h-28.792969v-113.980469h-39.273438v113.980469h-28.792968v-267.375h-51.496094c-.289062-9.183594-.300781-19.203125 0-28.789063h79.277344v-9.804687l1.578125 1.578125h38.136719l1.578124-1.578125v9.804687h79.277344c.289063 9.183594.304688 19.199219 0 28.789063zm0 0"/><path d="m431.785156 227.191406-.269531-.003906v.003906c-9.246094.21875-12.828125 11.785156-14.183594 16.167969-2.277343 7.359375-4.179687 17.757813-5.503906 30.0625l14.921875 1.605469c1.445312-13.4375 3.332031-22.058594 4.929688-27.246094 2.222656 7.328125 4.632812 20.40625 5.9375 38.949219h-73.550782l-20.210937 20.207031v38.601562h93.761719c-1.304688 18.539063-3.710938 31.617188-5.9375 38.949219-1.597657-5.191406-3.484376-13.808593-4.929688-27.246093l-14.921875 1.605468c1.324219 12.304688 3.226563 22.703125 5.503906 30.0625 1.355469 4.378906 4.9375 15.949219 14.1875 16.167969l.265625.003906v-.003906c8.476563-.183594 13.699219-9.195313 17.429688-30.03125 5.851562-32.699219 5.855468-85.117187 0-117.824219-3.730469-20.835937-8.953125-29.847656-17.429688-30.03125zm-13.457031 103.339844h-59.464844v-17.375l11.417969-11.417969h48.046875zm15.007813 0v-28.792969h5.035156c.289062 9.1875.300781 19.207031 0 28.792969zm0 0"/></svg>