<svg height="512pt" viewBox="0 -45 512.001 512" width="512pt" xmlns="http://www.w3.org/2000/svg"><path d="m198.96875 47.3125v58.339844h-54.617188c-9.765624-9.761719-15.238281-15.234375-25-25v-33.339844c0-21.988281 17.824219-39.8125 39.808594-39.8125s39.808594 17.824219 39.808594 39.8125zm0 0" fill="#ffdaaa"/><path d="m258.710938 123.335938v40.644531h31.859374l15-15v-25.644531zm0 0" fill="#ff3f62"/><path d="m305.375 217.640625c-5.855469-5.859375-9.140625-9.144531-15-15h-31.664062v40.644531h46.664062zm0 0" fill="#ff3f62"/><path d="m234.023438 202.640625-26.644532-26.644531v57.484375l9.808594 9.804687h41.523438v-40.644531zm0 0" fill="#57a4ff"/><path d="m504.5 149.25-126.964844 14.675781c-7.503906-15.984375-23.957031-26.929687-42.910156-26.382812-23.171875.675781-43.585938 20.894531-44.464844 44.0625-.992187 26.144531 19.90625 47.652343 45.832032 47.652343 18.371093 0 34.222656-10.800781 41.542968-26.402343l126.964844 14.679687zm0 0" fill="#ffe477"/><path d="m10.605469 396.582031 18.136719 18.132813h21.214843l37.277344-37.28125-28.742187-28.738282zm0 0" fill="#ff3f62"/><path d="m158.105469 396.582031 18.132812 18.132813h21.214844l37.28125-37.28125-28.742187-28.738282zm0 0" fill="#ff3f62"/><path d="m172.105469 123.335938v-17.683594h-27.757813l-5.5-5.503906v23.1875h-5.277344c-5.859374 5.859374-9.140624 9.140624-15 15v150.28125l-60.078124 60.078124 28.742187 28.738282 77.117187-77.113282h28.027344l15-15v-121.339843h51.332032v-40.644531zm0 0" fill="#57a4ff"/><path d="m207.378906 279.785156v5.535156l-15 15h-21.949218l41.96875 41.964844-6.40625 6.410156 28.742187 28.738282 35.144531-35.148438zm0 0" fill="#57a4ff"/><path d="m207.378906 247.066406v24.164063h-88.808594v-24.164063zm0 0" fill="#ffe477"/><path d="m207.378906 279.785156v5.535156l-15 15h-21.949218l41.96875 41.964844-6.40625 6.410156 28.742187 28.738282 35.144531-35.148438zm0 0" fill="#006df0"/><path d="m149.351562 47.3125c0-16.679688 10.257813-30.964844 24.808594-36.886719-4.628906-1.886719-9.691406-2.925781-15-2.925781-21.988281 0-39.808594 17.824219-39.808594 39.8125v33.339844l24.996094 25h30.003906l-25-25zm0 0" fill="#fbb984"/><path d="m258.710938 123.335938h30v40.644531h-30zm0 0" fill="#c70024"/><path d="m258.710938 202.640625h20v40.644531h-20zm0 0" fill="#c70024"/><path d="m227.378906 195.996094-20-20v57.484375l9.808594 9.804687h20l-9.808594-9.804687zm0 0" fill="#006df0"/><path d="m407.535156 163.925781 96.964844-11.210937v-3.46875l-98.664062 11.410156c.609374 1.0625 1.175781 2.152344 1.699218 3.269531zm0 0" fill="#ffb655"/><path d="m407.535156 202.855469c-.523437 1.117187-1.089844 2.207031-1.699218 3.273437l98.664062 11.40625v-3.46875zm0 0" fill="#ffb655"/><path d="m320.160156 181.605469c.703125-18.566407 13.953125-35.234375 31.109375-41.472657-5.183593-1.832031-10.792969-2.757812-16.644531-2.589843-23.171875.675781-43.585938 20.894531-44.464844 44.0625-.992187 26.144531 19.90625 47.652343 45.832032 47.652343 5.253906 0 10.300781-.882812 15-2.507812-18.496094-6.398438-31.625-24.300781-30.832032-45.144531zm0 0" fill="#ffb655"/><path d="m40.609375 396.582031 32.886719-32.886719-15.003906-15-47.886719 47.886719 18.136719 18.132813h21.214843l4.390625-4.394532zm0 0" fill="#c70024"/><path d="m188.105469 396.582031 32.886719-32.886719-15-15-47.886719 47.886719 18.132812 18.132813h21.214844l4.394531-4.394532zm0 0" fill="#c70024"/><path d="m88.496094 348.695312 60.074218-60.078124v-150.28125l15-15h5.277344v-17.683594h-24.496094l-5.503906-5.503906v23.1875h-5.277344c-5.855468 5.855468-9.140624 9.140624-15 15v150.28125l-60.078124 60.078124 28.742187 28.738282 15-15zm0 0" fill="#006df0"/><path d="m118.570312 247.066406h30v24.164063h-30zm0 0" fill="#ffb655"/><path d="m381.738281 155.890625c-9.871093-16.410156-27.867187-26.402344-47.332031-25.84375-27.019531.785156-50.714844 24.265625-51.742188 51.273437-1.152343 30.351563 23.035157 55.4375 53.328126 55.4375 18.757812 0 36.164062-9.996093 45.738281-25.867187l130.269531 15.0625v-85.121094zm115.261719 53.226563-123.960938-14.332032-2.292968 4.882813c-6.300782 13.417969-19.941406 22.089843-34.753906 22.089843-21.554688 0-39.175782-17.8125-38.339844-39.867187.726562-19.078125 18.105468-36.292969 37.191406-36.847656.375-.011719.75-.019531 1.125-.019531 14.867188 0 28.433594 8.578124 34.777344 22.089843l2.289062 4.882813 123.964844-14.332032zm0 0"/><path d="m195.488281 307.820312 19.390625-19.394531v-116.945312h58.304688v-15h-6.972656v-25.644531h39.359374v-15h-125.964843v-2.683594h26.863281v-65.84375c0-26.085938-21.222656-47.308594-47.308594-47.308594-26.085937 0-47.308594 21.222656-47.308594 47.308594v36.449218l19.492188 19.496094v12.582032h-.878906l-19.394532 19.394531v150.28125c-17 17-96.652343 96.648437-111.070312 111.066406l25.632812 25.636719h27.429688c1.394531-1.398438 110.796875-110.796875 114.394531-114.394532zm-68.636719-260.507812c0-17.816406 14.492188-32.3125 32.308594-32.3125s32.3125 14.496094 32.3125 32.3125v50.839844h-44.015625l-20.605469-20.605469zm-80 359.902344h-15.003906l-10.632812-10.632813 37.277344-37.28125c11.902343 11.902344 8.917968 8.914063 18.136718 18.132813zm40.382813-40.386719c-11.902344-11.902344-8.914063-8.914063-18.136719-18.132813l56.972656-56.972656v-150.28125l10.605469-10.605468h9.667969v-17.683594h18.261719v17.683594h86.605469v25.644531h-107.644532v15.003906h56.3125v110.730469l-10.605468 10.605468h-28.03125zm0 0"/><path d="m327.226562 252.371094h15v37.84375h-15zm0 0"/><path d="m327.226562 76.566406h15v37.832032h-15zm0 0"/><path d="m362.734375 119.894531 18.914063-32.757812 12.992187 7.5-18.917969 32.757812zm0 0"/><path d="m362.730469 246.875 12.988281-7.5 18.917969 32.757812-12.992188 7.5zm0 0"/><path d="m229.59375 291.390625-10.609375 10.605469 40.292969 40.289062-24.542969 24.542969-18.136719-18.132813 6.410156-6.410156-27.273437-27.269531-10.605469 10.605469 16.664063 16.664062c-5.832031 5.832032-45.96875 45.96875-54.292969 54.292969l25.632812 25.636719h27.425782c16.125-16.121094 64.3125-64.3125 79.929687-79.929688zm-35.246094 115.824219h-15l-10.632812-10.632813 37.277344-37.28125 18.132812 18.132813zm0 0"/><path d="m138.570312 239.566406h48.808594v15h-48.808594zm0 0"/><path d="m138.570312 263.730469h48.808594v15h-48.808594zm0 0"/><path d="m266.210938 210.140625h6.765624v-15h-35.847656l-4.445312-4.449219-10.605469 10.609375 8.839844 8.839844h20.292969v25.644531h-23.828126v15h77.992188v-15h-39.164062zm0 0"/><g fill="#fff"><path d="m181.46875 80.652344h-15v-33.339844c0-4.03125-3.277344-7.308594-7.308594-7.308594v-15.003906c12.300782 0 22.308594 10.011719 22.308594 22.3125zm0 0"/><path d="m490.859375 190.890625h-31.859375v-15h31.859375zm-41.859375 0h-15v-15h15zm-25 0h-15v-15h15zm0 0"/><path d="m237.113281 151.070312h-31.859375v-15h31.859375zm-41.859375 0h-15v-15h15zm-25 0h-15v-15h15zm0 0"/><path d="m335.992188 211.757812c-10.953126 0-21.042969-6.414062-25.699219-16.335937l13.578125-6.375c2.199218 4.683594 6.957031 7.710937 12.121094 7.710937 3.667968 0 7.085937-1.457031 9.632812-4.101562 2.542969-2.636719 3.863281-6.125 3.722656-9.820312l14.988282-.566407c.296874 7.804688-2.507813 15.1875-7.902344 20.792969-5.402344 5.605469-12.660156 8.695312-20.441406 8.695312zm0 0"/><path d="m174.902344 181.140625h15v47.117187h-15zm0 0"/></g></svg>