<svg height="512pt" viewBox="0 -49 512 512" width="512pt" xmlns="http://www.w3.org/2000/svg"><path d="m502.28125 207.472656s-110.265625 133.699219-246.28125 133.699219-246.28125-133.699219-246.28125-133.699219 110.265625-133.695312 246.28125-133.695312 246.28125 133.695312 246.28125 133.695312zm0 0" fill="#fff"/><path d="m152.300781 207.472656c0 69.332032 52.773438 126.335938 120.339844 133.039063 34.433594-2.714844 66.929687-13.5625 96.050781-27.976563 31.058594-24.484375 51-62.445312 51-105.0625 0-42.617187-19.941406-80.578125-51-105.058594-29.117187-14.417968-61.617187-25.265624-96.050781-27.976562-67.566406 6.699219-120.339844 63.703125-120.339844 133.035156zm0 0" fill="#d1e7f8"/><path d="m389.695312 207.472656c0 73.839844-59.855468 133.699219-133.695312 133.699219s-133.695312-59.859375-133.695312-133.699219 59.855468-133.695312 133.695312-133.695312 133.695312 59.855468 133.695312 133.695312zm0 0" fill="#57a4ff"/><path d="m285.992188 320.449219c41.960937 0 75.980468-34.019531 75.976562-75.980469v-69.859375l-17.550781 17.550781c-22.4375-44.398437-58.425781-93.660156-58.425781-93.660156s-24.796876 33.945312-46.058594 70.878906l-29.917969-29.917968v105.007812c0 41.960938 34.015625 75.980469 75.976563 75.980469zm0 0" fill="#006df0"/><path d="m255.996094 320.449219c41.960937 0 75.980468-34.019531 75.976562-75.980469v-69.859375l-17.550781 17.550781c-22.4375-44.398437-58.425781-93.660156-58.425781-93.660156s-24.796875 33.945312-46.058594 70.878906l-29.917969-29.917968v105.007812c0 41.960938 34.015625 75.980469 75.976563 75.980469zm0 0" fill="#ffe477"/><path d="m319.867188 262.953125c0 18.707031-15.164063 33.875-33.875 33.875-18.707032 0-33.875-15.167969-33.875-33.875s33.875-52.195313 33.875-52.195313 33.875 33.488282 33.875 52.195313zm0 0" fill="#ffb655"/><path d="m289.871094 262.953125c0 18.707031-15.164063 33.875-33.875 33.875-18.707032 0-33.875-15.167969-33.875-33.875s33.875-52.195313 33.875-52.195313 33.875 33.488282 33.875 52.195313zm0 0" fill="#ff3f62"/><path d="m256 73.777344c78.316406 0 148.085938 44.320312 193.191406 81.925781-22.8125-85.34375-100.65625-148.203125-193.191406-148.203125s-170.378906 62.859375-193.191406 148.203125c45.109375-37.605469 114.878906-81.925781 193.191406-81.925781zm0 0" fill="#ff3f62"/><path d="m256 341.171875c-78.316406 0-148.085938-44.320313-193.191406-81.925781 22.8125 85.34375 100.65625 148.203125 193.191406 148.203125s170.378906-62.859375 193.191406-148.203125c-45.105468 37.605468-114.875 81.925781-193.191406 81.925781zm0 0" fill="#ff3f62"/><path d="m39.714844 207.472656s102.25-123.976562 231.285156-133.160156c-4.964844-.351562-9.964844-.535156-15-.535156-136.015625 0-246.28125 133.695312-246.28125 133.695312s110.265625 133.699219 246.28125 133.699219c5.035156 0 10.035156-.183594 15-.535156-129.035156-9.183594-231.285156-133.164063-231.285156-133.164063zm0 0" fill="#d1e7f8"/><path d="m152.300781 207.472656c0-68.765625 51.917969-125.410156 118.699219-132.863281-4.925781-.550781-9.929688-.832031-15-.832031-73.839844 0-133.695312 59.859375-133.695312 133.695312 0 73.839844 59.855468 133.699219 133.695312 133.699219 5.070312 0 10.074219-.285156 15-.835937-66.78125-7.453126-118.699219-64.09375-118.699219-132.863282zm0 0" fill="#006df0"/><path d="m239.933594 169.378906c10.652344-18.507812 22.195312-36.265625 31.0625-49.378906-8.828125-13.054688-15-21.5-15-21.5s-16.945313 23.199219-34.832032 52.105469zm0 0" fill="#ffb655"/><path d="m210.015625 244.46875v-75.226562c-.027344.046874-.050781.089843-.078125.136718l-29.917969-29.917968v105.007812c0 41.964844 34.015625 75.980469 75.976563 75.980469 5.136718 0 10.152344-.511719 15-1.480469-34.78125-6.964844-60.980469-37.671875-60.980469-74.5zm0 0" fill="#ffb655"/><g fill="#c70024"><path d="m252.117188 262.953125c0-10.070313 9.816406-24.417969 18.878906-35.527344-7.777344-9.527343-15-16.667969-15-16.667969s-33.875 33.488282-33.875 52.195313 15.167968 33.875 33.875 33.875c5.386718 0 10.476562-1.257813 15-3.492187-11.1875-5.53125-18.878906-17.058594-18.878906-30.382813zm0 0"/><path d="m271 8.054688c-4.953125-.367188-9.953125-.554688-15-.554688-92.535156 0-170.378906 62.859375-193.191406 148.203125 11.976562-9.988281 25.691406-20.445313 40.847656-30.421875 29.402344-65.128906 92.660156-111.691406 167.34375-117.226562zm0 0"/><path d="m285.996094 73.777344c-5.035156 0-10.035156.183594-14.996094.535156 72.1875 5.136719 135.984375 46.203125 178.191406 81.390625-2.808594-10.507813-6.449218-20.671875-10.851562-30.421875-41.914063-27.597656-94.824219-51.503906-152.34375-51.503906zm0 0"/><path d="m103.65625 289.667969c-15.152344-9.976563-28.871094-20.4375-40.847656-30.421875 22.8125 85.34375 100.65625 148.203125 193.191406 148.203125 5.046875 0 10.046875-.1875 15-.554688-74.683594-5.539062-137.941406-52.097656-167.34375-117.226562zm0 0"/><path d="m285.996094 341.171875c57.519531 0 110.429687-23.910156 152.34375-51.503906 4.402344-9.75 8.042968-19.917969 10.851562-30.421875-42.207031 35.1875-106.003906 76.25-178.191406 81.386718 4.960938.351563 9.960938.539063 14.996094.539063zm0 0"/></g><path d="m434.644531 134.625c-51.902343-38.921875-113.753906-68.347656-178.644531-68.347656-64.867188 0-126.71875 29.40625-178.644531 68.347656-27.074219 20.304688-55.269531 46.070312-77.355469 72.847656 22.035156 26.71875 50.222656 52.5 77.355469 72.847656 51.902343 38.925782 113.753906 68.347657 178.644531 68.347657 64.867188 0 126.71875-29.402344 178.644531-68.347657 27.074219-20.304687 55.273438-46.070312 77.355469-72.847656-22.035156-26.71875-50.222656-52.5-77.355469-72.847656zm-52.445312 72.847656c0 69.585938-56.613281 126.199219-126.199219 126.199219s-126.199219-56.613281-126.199219-126.199219c0-69.585937 56.613281-126.195312 126.199219-126.195312s126.199219 56.609375 126.199219 126.195312zm-295.558594 61.066406c-33.6875-25.226562-57.761719-50.742187-66.984375-61.066406 9.183594-10.289062 33.097656-35.648437 66.695312-60.847656 20.253907-15.191406 46.207032-31.867188 75.8125-44.570312-29.042968 25.878906-47.359374 63.550781-47.359374 105.417968 0 41.867188 18.316406 79.539063 47.359374 105.417969-29.488281-12.652344-55.339843-29.238281-75.523437-44.351563zm339.007813-.214843c-20.253907 15.1875-46.207032 31.863281-75.8125 44.566406 29.042968-25.878906 47.359374-63.546875 47.359374-105.417969 0-41.867187-18.316406-79.539062-47.359374-105.417968 29.488281 12.65625 55.339843 29.242187 75.523437 44.351562 33.6875 25.226562 57.761719 50.742188 66.984375 61.070312-9.183594 10.285157-33.097656 35.648438-66.695312 60.847657zm0 0"/><path d="m255.996094 304.328125c22.8125 0 41.375-18.5625 41.375-41.375 0-20.789063-30.074219-51.570313-36.101563-57.527344l-5.273437-5.210937-5.269532 5.210937c-6.027343 5.957031-36.101562 36.738281-36.101562 57.527344 0 22.8125 18.558594 41.375 41.371094 41.375zm0-82.777344c12.3125 13.277344 26.375 32.054688 26.375 41.402344 0 14.542969-11.832032 26.375-26.375 26.375-14.542969 0-26.375-11.832031-26.375-26.375 0-9.347656 14.0625-28.125 26.375-41.402344zm0 0"/><path d="m255.996094 327.945312c46.03125 0 83.476562-37.445312 83.476562-83.476562v-87.960938l-23.125 23.125c-17.078125-31.859374-39.210937-64.910156-60.351562-93.847656-16.203125 22.179688-32.261719 45.667969-47.621094 71.425782l-35.855469-35.855469v123.113281c0 46.03125 37.449219 83.476562 83.476563 83.476562zm-68.476563-170.382812 24.035157 24.035156 4.882812-8.476562c14.542969-25.265625 30.933594-49.359375 39.558594-61.679688 11.148437 15.929688 35.28125 51.546875 51.734375 84.101563l4.671875 9.246093 12.074218-12.074218v51.753906c0 37.761719-30.722656 68.480469-68.480468 68.480469-37.757813 0-68.476563-30.71875-68.476563-68.480469zm0 0"/><path d="m256 15c74.234375 0 140.566406 41.492188 173.113281 108.28125l13.480469-6.566406c-34.144531-70.078125-105.628906-116.714844-186.59375-116.714844-80.953125 0-152.445312 46.625-186.59375 116.714844l13.480469 6.566406c32.546875-66.789062 98.878906-108.28125 173.113281-108.28125zm0 0"/><path d="m256 399.949219c-74.234375 0-140.566406-41.492188-173.113281-108.285157l-13.480469 6.570313c34.144531 70.078125 105.632812 116.710937 186.59375 116.710937 80.953125 0 152.445312-46.625 186.59375-116.710937l-13.480469-6.570313c-32.546875 66.792969-98.878906 108.285157-173.113281 108.285157zm0 0"/><path d="m372.199219 207.472656h-15c0-26.480468-10.203125-51.542968-28.730469-70.5625l10.746094-10.464844c21.269531 21.835938 32.984375 50.613282 32.984375 81.027344zm-50.519531-76.929687c-3.53125-3.019531-7.300782-5.820313-11.207032-8.324219l8.097656-12.625c4.480469 2.871094 8.804688 6.085938 12.855469 9.550781zm-19.265626-12.984375c-4.121093-2.136719-8.425781-4.003906-12.792968-5.546875l4.992187-14.140625c5.023438 1.773437 9.96875 3.917968 14.707031 6.375zm0 0" fill="#fff"/><path d="m285.421875 206.820312c-2.847656-5.632812-6.109375-11.695312-9.695313-18.019531l13.046876-7.394531c3.703124 6.53125 7.082031 12.804688 10.035156 18.648438zm-14.640625-26.566406c-2.40625-4.082031-4.988281-8.351562-7.679688-12.695312l12.75-7.894532c2.746094 4.433594 5.386719 8.800782 7.851563 12.972657zm-12.949219-21.082031c-2.601562-4.082031-5.324219-8.285156-8.097656-12.480469l12.515625-8.265625c2.820312 4.265625 5.589844 8.539063 8.234375 12.691407zm0 0" fill="#fff"/><path d="m366.605469 81.730469c-18.25-16.023438-40.171875-28.105469-63.398438-34.945313l4.234375-14.386718c25.304688 7.449218 49.183594 20.609374 69.058594 38.0625zm-72.652344-37.382813c-4.640625-1.078125-9.386719-1.972656-14.101563-2.648437l2.132813-14.847657c5.144531.742188 10.3125 1.710938 15.371094 2.890626zm-23.609375-3.738281c-4.746094-.410156-9.574219-.613281-14.34375-.613281v-15c5.195312 0 10.453125.226562 15.621094.667968zm0 0" fill="#fff"/></svg>