<svg height="512pt" viewBox="0 -56 512 512" width="512pt" xmlns="http://www.w3.org/2000/svg"><path d="m167.222656 279.367188 30.996094 30.996093v20.402344h44.789062v-38.953125l-44.117187-44.113281zm0 0" fill="#ff7956"/><path d="m301.132812 145.460938-212.296874 212.289062-31.667969-31.667969 69.011719-68.980469-16.949219-16.949218c.003906-12.695313.003906-19.8125.003906-32.511719l95.386719-95.355469-44.574219-44.570312h-45.5625v-44.789063h64.113281l69.140625 69.136719 12.539063-12.535156v8.574218l21.625 21.625-8.253906 8.25zm0 0" fill="#ffb655"/><path d="m328.949219 173.277344-27.816407-27.816406-31.671874 31.667968 40.9375 40.933594h64.113281v-44.785156zm0 0" fill="#ffb655"/><path d="m70.410156 22.925781v28.257813l16.527344 16.527344h27.546875v-44.785157zm0 0" fill="#a4e276"/><path d="m10.605469 372.660156 19.980469 19.980469h23.375l34.886718-34.882813-31.667968-31.667968zm0 0" fill="#a4e276"/><path d="m87.171875 326.082031 69.011719-68.980469-16.949219-16.949218c0-12.695313 0-19.8125.003906-32.511719l112.050781-112.023437-15.292968-15.292969-126.761719 127.316406c0 12.699219-.003906 19.816406-.003906 32.511719l16.949219 16.949218-69.011719 68.980469 31.667969 31.667969 15-15zm0 0" fill="#ff7956"/><path d="m260.273438 51.363281v36.738281c10.757812 10.757813 16.789062 16.785157 27.546874 27.542969h60.183594v-64.28125c0-24.226562-19.636718-43.863281-43.863281-43.863281s-43.867187 19.636719-43.867187 43.863281zm0 0" fill="#ffdaaa"/><path d="m216.945312 229.648438-18.023437 18.023437-64.84375-64.839844 18.023437-18.023437zm0 0" fill="#a4e276"/><path d="m198.21875 392.640625h28.257812l16.53125-16.527344v-45.347656h-44.789062zm0 0" fill="#a4e276"/><path d="m418.585938 218.0625v-28.257812l-16.527344-16.527344h-27.546875v44.785156zm0 0" fill="#a4e276"/><path d="m504.5 92.765625-156.496094-15.386719v-23.296875l156.496094-15.390625zm0 0" fill="#57a4ff"/><path d="m348.003906 86.140625h-40.417968c-4.085938-4.082031-6.375-6.371094-10.457032-10.457031v-30.363282h50.875zm0 0" fill="#e0e0e2"/><path d="m290.277344 51.363281c0-18.957031 12.023437-35.105469 28.863281-41.230469-4.679687-1.703124-9.734375-2.632812-15-2.632812-24.226563 0-43.867187 19.636719-43.867187 43.863281v36.738281l27.546874 27.542969h30.003907l-27.546875-27.542969zm0 0" fill="#fbb984"/><path d="m297.128906 61.574219c0 10.175781-8.25 18.425781-18.425781 18.425781-10.179687 0-18.429687-8.25-18.429687-18.425781 0-10.179688 8.25-18.429688 18.429687-18.429688 10.175781 0 18.425781 8.25 18.425781 18.429688zm0 0" fill="#e0e0e2"/><path d="m204.621094 112.285156-44.574219-44.574218h-45.5625v-44.785157h64.113281l57.792969 57.792969zm0 0" fill="#ff7956"/><g fill="#64c37d"><path d="m100.410156 51.183594v-28.257813h-30v28.257813l16.527344 16.527344h27.546875v-2.453126zm0 0"/><path d="m40.609375 372.660156 31.570313-31.570312-15-15-46.574219 46.570312 19.980469 19.980469h23.375l3.316406-3.3125zm0 0"/><path d="m154.078125 182.828125 8.023437-8.019531-10-10-18.023437 18.019531 64.839844 64.84375 10.003906-10zm0 0"/><path d="m228.222656 330.765625h14.785156-44.789062v61.875h28.257812l1.746094-1.742187zm0 0"/><path d="m374.511719 173.277344h20.003906v44.785156h-20.003906zm0 0"/></g><path d="m378.003906 77.378906v-23.296875l126.496094-12.441406v-2.949219l-156.496094 15.390625v23.296875l156.496094 15.386719v-2.949219zm0 0" fill="#006df0"/><path d="m312.132812 45.320312h-15.003906v30.363282l10.457032 10.457031h15l-10.453126-10.457031zm0 0" fill="#c6c5ca"/><path d="m275.277344 61.574219c0-7.507813 4.488281-13.964844 10.925781-16.839844-2.292969-1.019531-4.828125-1.589844-7.5-1.589844-10.179687 0-18.429687 8.25-18.429687 18.425781 0 10.179688 8.253906 18.429688 18.429687 18.429688 2.671875 0 5.207031-.570312 7.5-1.589844-6.4375-2.875-10.925781-9.332031-10.925781-16.835937zm0 0" fill="#c6c5ca"/><path d="m156.941406 75.210938 28.234375 28.234374 10.605469-10.605468-32.628906-32.628906h-41.167969v-29.785157h53.507813l41.351562 41.351563 10.605469-10.605469-45.746094-45.746094h-118.792969v38.867188l20.917969 20.921875h73.113281zm-79.03125-44.785157h29.074219v29.785157h-16.941406l-12.132813-12.132813zm0 0"/><path d="m332.054688 165.777344-42.628907-42.632813h66.078125v-71.78125c0-28.320312-23.042968-51.363281-51.363281-51.363281-28.324219 0-51.367187 23.042969-51.367187 51.363281v25.054688l-5.039063 5.039062-11.445313-11.445312-134.554687 134.523437-.003906 38.722656 13.839843 13.84375c-112.941406 112.890626-3.230468 3.21875-115.570312 115.558594l27.480469 27.480469h29.585937c2.585938-2.582031 199.867188-199.875 212.394532-212.40625l37.828124 37.828125h118.796876v-38.863281l-20.921876-20.921875zm-41.128907-57.632813-22.984375-22.984375c3.28125 1.503906 6.925782 2.339844 10.761719 2.339844 5.546875 0 10.6875-1.75 14.910156-4.726562l10.867188 10.867187h36.023437v14.503906zm-12.222656-35.644531c-6.023437 0-10.925781-4.902344-10.925781-10.929688 0-6.023437 4.898437-10.925781 10.925781-10.925781 6.023437 0 10.925781 4.902344 10.925781 10.925781 0 6.027344-4.902344 10.929688-10.925781 10.929688zm61.796875.730469v5.410156h-29.808594l-6.0625-6.0625v-19.757813h35.871094v5.40625h-20.226562v15.003907zm-36.359375-58.230469c15.265625 0 28.363281 9.457031 33.746094 22.816406h-48.257813v.242188c-3.320312-1.546875-7.023437-2.414063-10.925781-2.414063-2.761719 0-5.421875.433594-7.917969 1.238281 5.605469-12.867187 18.445313-21.882812 33.355469-21.882812zm-253.285156 370.140625h-17.160157l-12.480468-12.480469 35.964844-35.964844 21.058593 21.0625zm316.15625-174.578125h-53.507813l-44.042968-44.042969-180.625 180.621094-21.058594-21.058594 69.011718-68.980469-20.054687-20.058593v-26.296875l119.554687-119.523438 11.449219 11.445313 8.25-8.25 15.304688 15.304687-8.253907 8.25 62.804688 62.804688h41.167969zm44.074219 0h-29.070313v-29.785156h16.9375l12.132813 12.136718zm0 0"/><path d="m207.730469 267.144531 27.773437 27.777344v28.339844h-29.78125v-16.003907l-19.050781-19.054687-10.609375 10.609375 14.660156 14.65625v86.671875h38.863282l20.921874-20.921875v-90.511719l-32.167968-32.171875zm27.773437 105.863281-12.132812 12.132813h-17.648438v-46.875h29.78125zm0 0"/><path d="m367.269531 44.652344 1.46875 14.925781 128.261719-12.613281v37.527344l-128.261719-12.613282-1.46875 14.929688 144.730469 14.230468v-70.621093zm0 0"/><path d="m142.898438 202.265625 10.609374-10.609375 36.566407 36.570312-10.605469 10.605469zm0 0"/><path d="m160.925781 184.242188 10.605469-10.605469 36.566406 36.5625-10.605468 10.609375zm0 0"/><path d="m218.035156 200.207031-10.605468-10.609375 20.996093-20.992187 10.605469 10.605469zm28.066406-28.066406-10.605468-10.609375 10.605468-10.605469 10.609376 10.609375zm17.679688-17.679687-10.605469-10.609376 10.605469-10.605468 10.609375 10.609375zm0 0" fill="#fff"/><path d="m102.464844 322.710938-10.609375-10.605469 20.996093-20.996094 10.609376 10.609375zm28.066406-28.066407-10.605469-10.605469 10.605469-10.609374 10.605469 10.609374zm17.679688-17.679687-10.609376-10.605469 10.609376-10.605469 10.605468 10.605469zm0 0" fill="#fff"/><path d="m430.136719 58.230469h56.003906v15h-56.003906zm0 0" fill="#fff"/></svg>