<svg height="512pt" viewBox="-84 0 512 512" width="512pt" xmlns="http://www.w3.org/2000/svg"><path d="m298.675781 244.070312-21.019531-36.359374 34.902344-20.152344c-10.921875-51.730469-49.617188-93.222656-99.753906-108.136719v26.554687c-10.085938 10.085938-15.742188 15.742188-25.824219 25.824219h-30.597657c-10.085937-10.082031-15.742187-15.738281-25.824218-25.824219v-26.554687c-50.140625 14.914063-88.835938 56.40625-99.753906 108.136719l34.898437 20.152344-21.019531 36.359374-15.945313-9.214843c6.382813 52.957031 41.511719 97.0625 89.324219 116.261719v-45.441407h107.238281v45.441407c47.8125-19.199219 82.941407-63.304688 89.324219-116.261719zm0 0" fill="#ffe477"/><path d="m183.308594 340.546875h-11.628906-11.628907v20.421875c3.835938.304688 7.714844.464844 11.628907.464844 3.914062 0 7.792968-.160156 11.628906-.464844zm0 0" fill="#ffe477"/><path d="m212.804688 71.535156v34.441406c-10.085938 10.085938-15.742188 15.742188-25.824219 25.824219h-30.597657c-10.085937-10.082031-15.742187-15.738281-25.824218-25.824219v-34.441406c0-22.710937 18.410156-41.125 41.121094-41.125 22.710937 0 41.125 18.414063 41.125 41.125zm0 0" fill="#ffdaaa"/><path d="m183.308594 431.890625v62.617187c3.902344 3.902344 6.089844 6.089844 9.996094 9.992188h31.992187v-72.609375zm0 0" fill="#ff3f62"/><path d="m118.0625 504.5h31.992188c3.902343-3.902344 6.089843-6.089844 9.996093-9.992188v-62.617187h-41.988281zm0 0" fill="#ff3f62"/><path d="m21.898438 182.417969-13.847657 23.945312c2.039063 7.636719 3.183594 11.917969 5.226563 19.554688l31.40625 18.152343 21.015625-36.363281zm0 0" fill="#ff3f62"/><path d="m321.460938 182.417969 13.847656 23.945312c-2.042969 7.636719-3.1875 11.917969-5.226563 19.554688l-31.40625 18.152343-21.019531-36.363281zm0 0" fill="#ff3f62"/><path d="m242.804688 105.976562v-13.75c-9.394532-5.34375-19.445313-9.664062-30-12.804687v26.554687c-10.085938 10.085938-15.742188 15.742188-25.824219 25.824219h30zm0 0" fill="#ffb655"/><path d="m255.296875 269.9375h-30v81.179688c10.695313-4.296876 20.753906-9.835938 30-16.441407zm0 0" fill="#ffb655"/><path d="m58.738281 234.855469 15.945313 9.214843 21.015625-36.359374-34.898438-20.152344c8.621094-40.835938 34.550781-75.292969 69.753907-95.332032v-12.804687c-50.136719 14.914063-88.832032 56.40625-99.753907 108.136719l34.898438 20.152344-21.015625 36.359374-15.945313-9.214843c6.378907 52.957031 41.507813 97.0625 89.324219 116.261719v-16.441407c-32.089844-22.929687-54.371094-58.707031-59.324219-99.820312zm0 0" fill="#ffb655"/><path d="m267.285156 213.699219v-54.792969c-7.507812-7.503906-11.714844-11.714844-19.222656-19.21875h-49.398438v-19.570312l-11.6875 11.683593h-15.296874-15.300782l-11.683594-11.683593v19.570312h-49.402343c-7.503907 7.503906-11.714844 11.714844-19.21875 19.21875v54.792969l-10.375-5.992188-21.015625 36.363281 73.378906 42.410157v145.410156h41.984375v-91.34375h11.632813 11.628906v91.34375h41.988281v-145.40625l73.378906-42.414063-21.019531-36.359374zm0 0" fill="#bddbff"/><path d="m168.644531 186.667969 23.03125-23.03125 23.03125 23.03125-23.03125 23.03125zm0 0" fill="#57a4ff"/><path d="m118.0625 279.378906h107.234375v26.296875h-107.234375zm0 0" fill="#ff3f62"/><path d="m74.683594 244.070312 21.015625-36.359374 10.375 5.988281v-54.792969c7.503906-7.503906 11.714843-11.710938 19.21875-19.21875h-30c-7.503907 7.507812-11.714844 11.714844-19.21875 19.21875v54.792969l-10.375-5.988281-21.015625 36.359374 73.378906 42.414063v145.40625h30v-145.40625zm0 0" fill="#57a4ff"/><path d="m148.644531 186.667969 23.03125-23.03125 23.03125 23.03125-23.03125 23.03125zm0 0" fill="#ff3f62"/><path d="m160.554688 105.976562v-34.441406c0-17.417968 10.832031-32.308594 26.125-38.300781-4.648438-1.824219-9.707032-2.824219-15-2.824219-22.710938 0-41.125 18.414063-41.125 41.125v34.441406c10.085937 10.085938 15.742187 15.742188 25.824218 25.824219h30c-10.082031-10.082031-15.738281-15.738281-25.824218-25.824219zm0 0" fill="#fbb984"/><g fill="#c70024"><path d="m203.308594 494.507812v-62.617187h-20v62.617187c3.902344 3.902344 6.089844 6.089844 9.996094 9.992188h20c-3.90625-3.902344-6.09375-6.089844-9.996094-9.992188zm0 0"/><path d="m118.0625 431.890625h20v72.609375h-20zm0 0"/><path d="m43.277344 225.917969c-2.042969-7.636719-3.1875-11.917969-5.226563-19.554688l6.335938-10.960937-22.488281-12.984375-13.847657 23.945312c2.039063 7.636719 3.183594 11.917969 5.226563 19.558594l31.40625 18.148437 7.511718-12.996093zm0 0"/><path d="m307.65625 207.710938 21.3125-12.308594-7.507812-12.984375-43.804688 25.292969 21.019531 36.359374 22.488281-12.996093zm0 0"/><path d="m118.0625 279.378906h30v26.296875h-30zm0 0"/><path d="m168.648438 186.664062 13.03125-13.027343-10-10-23.03125 23.027343 23.03125 23.035157 10-10zm0 0"/></g><path d="m324.199219 172.175781c-54.347657 31.378907-40.941407 23.636719-49.414063 28.53125v-44.90625l-23.613281-23.613281h-45.007813v-8.964844l14.136719-14.136718v-37.550782c0-7.484375-1.699219-14.578125-4.734375-20.917968 8.722656-5.296876 13.875-12.308594 13.875-20.207032 0-17.335937-24.832031-30.410156-57.761718-30.410156-32.933594 0-57.765626 13.074219-57.765626 30.410156 0 7.898438 5.152344 14.910156 13.875 20.207032-3.035156 6.339843-4.734374 13.433593-4.734374 20.917968v37.550782l14.136718 14.136718v8.964844h-45.003906l-23.613281 23.613281v44.90625c-3.761719-2.171875-40.53125-23.402343-49.417969-28.53125l-19.15625 33.125 6.832031 25.558594c9.917969 5.730469 94.132813 54.40625 103.726563 59.953125v221.1875h42.601562l14.386719-14.386719v-149.566406h8.261719v149.566406l14.386718 14.386719h42.601563v-221.1875c25.574219-14.785156 81.851563-47.3125 103.726563-59.953125l6.832031-25.558594zm-195.285157-141.765625c0-6.132812 17.058594-15.410156 42.765626-15.410156 25.707031 0 42.761718 9.277344 42.761718 15.410156 0 2.398438-2.601562 5.273438-7.304687 7.890625-8.875-9.464843-21.488281-15.390625-35.457031-15.390625s-26.582032 5.925782-35.460938 15.390625c-4.703125-2.617187-7.304688-5.492187-7.304688-7.890625zm61.96875 13.539063c-5.617187 1.160156-12.078124 1.875-19.203124 1.875-7.128907 0-13.585938-.714844-19.207032-1.875 5.449219-3.804688 12.070313-6.039063 19.207032-6.039063 7.132812 0 13.753906 2.234375 19.203124 6.039063zm-19.203124 16.875c11.203124 0 21.464843-1.511719 30.136718-4.191407 2.230469 4.496094 3.488282 9.554688 3.488282 14.902344v31.335938l-21.433594 21.433594h-24.386719l-21.429687-21.433594v-31.335938c0-5.347656 1.253906-10.40625 3.488281-14.902344 8.667969 2.679688 18.933593 4.191407 30.136719 4.191407zm-155.582032 146.605469 8.539063-14.769532 30.816406 17.792969c-5.03125 8.703125-8.480469 14.667969-13.511719 23.371094l-22.222656-12.84375zm136.453125 283.96875-5.601562 5.601562h-21.386719v-57.609375h26.988281zm65.246094 5.601562h-21.386719l-5.601562-5.601562v-52.007813h26.988281zm-26.988281-72.609375v-91.34375h-38.257813v91.34375h-26.988281v-193.078125h31.113281v-15h-25.394531l-5.71875-5.71875v-33.019531h-15v95.910156l-55.632812-32.152344 13.511718-23.378906c17.605469 10.164063 2.671875 1.542969 23.613282 13.632813l7.5-12.992188-15.980469-9.226562v-47.351563l14.824219-14.828125h53.796874v-8.964844l1.078126 1.082032h36.8125l1.078124-1.082032v8.964844h53.796876l14.824218 14.828125v47.351563l-15.976562 9.226562 7.5 12.992188c5.796875-3.347657 17.757812-10.253907 23.609375-13.632813 8.996093 15.566406 5.292969 9.160156 13.511719 23.378906l-55.632813 32.152344v-95.910156h-15v33.019531l-5.71875 5.71875h-25.402344v15h31.121094v193.078125zm132.828125-203.410156-22.222657 12.84375c-3.441406-5.957031-10.773437-18.644531-13.507812-23.375l30.8125-17.789063 8.542969 14.765625zm0 0"/><path d="m179.179688 244.042969h-15v27.835937h-26.117188v15h67.234375v-15h-26.117187zm0 0"/><path d="m138.0625 298.175781h67.234375v15h-67.234375zm0 0"/><path d="m205.316406 186.667969-33.636718-33.640625-33.640626 33.636718 33.640626 33.640626zm-33.636718-12.425781 12.425781 12.421874-12.425781 12.429688-12.425782-12.425781zm0 0"/><path d="m113.742188 93.851562-6.375-13.574218c-35.855469 16.835937-64.25 47.78125-77.894532 84.894531l14.078125 5.175781c12.296875-33.4375 37.878907-61.320312 70.191407-76.496094zm0 0"/><path d="m299.808594 170.351562 14.078125-5.179687c-13.648438-37.113281-42.039063-68.058594-77.898438-84.894531l-6.375 13.574218c32.3125 15.175782 57.898438 43.058594 70.195313 76.5zm0 0"/><path d="m241.457031 334.75 7.679688 12.882812c31.863281-18.996093 55.605469-48.847656 66.851562-84.054687l-14.289062-4.566406c-10.132813 31.71875-31.527344 58.617187-60.242188 75.738281zm0 0"/><path d="m41.660156 259.011719-14.289062 4.566406c11.246094 35.207031 34.988281 65.058594 66.851562 84.054687l7.679688-12.882812c-28.714844-17.121094-50.109375-44.019531-60.242188-75.738281zm0 0"/><path d="m181.925781 112.105469-10.605469-10.605469 8.984376-8.984375v-23.980469h15v30.195313zm0 0" fill="#fff"/><path d="m211.804688 412.816406h-15v-26.585937h15zm0-36.585937h-15v-15h15zm0-25h-15v-15h15zm0 0" fill="#fff"/></svg>