<svg height="512pt" viewBox="0 -38 512 512" width="512pt" xmlns="http://www.w3.org/2000/svg"><path d="m118.207031 175.371094-40.59375 40.59375 108.90625 29.179687c-.164062 2.210938-.25 4.445313-.25 6.695313 0 4.9375.40625 9.777344 1.1875 14.492187h145.226563l21.738281 21.738281c5-11.050781 7.78125-23.3125 7.78125-36.230468 0-2.25-.082031-4.484375-.25-6.695313l108.910156-29.179687-40.59375-40.59375 65.324219-17.53125-29.726562-29.726563-111.949219 29.253907 40.59375 40.59375-42.949219 11.90625c-13.324219-24.492188-37.945312-41.949219-66.863281-45.375l51.601562-89.382813h-57.410156l39.035156-67.609375h-42.039062l-63.714844 108.867188h57.410156l-31.195312 55.121093c-17.679688 7.898438-32.273438 21.460938-41.476563 38.378907l-42.949218-11.90625 40.597656-40.59375-111.949219-29.253907-29.726563 29.726563zm0 0" fill="#ffe477"/><path d="m330.355469 266.332031c2.304687-4.222656 3.613281-9.070312 3.613281-14.21875 0-16.425781-13.316406-29.742187-29.742188-29.742187-16.421874 0-29.738281 13.316406-29.738281 29.742187 0 5.148438 1.308594 9.996094 3.613281 14.21875zm0 0" fill="#ffb655"/><path d="m361.929688 295.578125-29.246094-29.246094h-173.246094l-36.046875 22.5h-76.6875v104.53125h76.6875l145.429687 34.71875 232.949219-99.679687-13.253906-26.816406-32.757813-12.105469-93.828124 40.125zm0 0" fill="#ffdaaa"/><path d="m455.242188 289.734375-8.300782-16.792969-32.757812-12.101562-60.9375 26.058594 8.683594 8.679687v34.027344zm0 0" fill="#fbb984"/><path d="m46.703125 393.363281h-39.203125v-104.53125h39.203125zm0 0" fill="#ff3f62"/><g fill="#ffb655"><path d="m300.363281 266.332031c2.304688-4.222656 3.613281-9.070312 3.613281-14.21875 0-16.425781-13.316406-29.742187-29.742187-29.742187-16.421875 0-29.738281 13.316406-29.738281 29.742187 0 5.148438 1.308594 9.996094 3.613281 14.21875zm0 0"/><path d="m305.878906 7.5h-29.992187l-63.714844 108.867188h29.992187zm0 0"/><path d="m268.378906 171.488281 31.195313-55.121093h-29.992188l-31.195312 55.121093c-15.125 6.757813-27.992188 17.660157-37.15625 31.261719l25.671875 7.117188c9.203125-16.917969 23.796875-30.480469 41.476562-38.378907zm0 0"/><path d="m332.683594 266.332031 21.738281 21.738281c3.089844-6.828124 5.332031-14.117187 6.59375-21.738281zm0 0"/><path d="m216.511719 245.148438-108.90625-29.183594 40.59375-40.59375-65.324219-17.53125 23.511719-23.511719-23.78125-6.214844-29.726563 29.726563 65.328125 17.53125-40.59375 40.59375 108.90625 29.183594c-.164062 2.207031-.25 4.441406-.25 6.691406 0 4.9375.40625 9.777344 1.1875 14.492187h29.992188c-.78125-4.714843-1.1875-9.554687-1.1875-14.492187 0-2.25.085937-4.484375.25-6.691406zm0 0"/></g><path d="m46.703125 288.832031h29.992187v104.527344h-29.992187zm0 0" fill="#fbb984"/><path d="m7.5 288.832031h19.992188v104.527344h-19.992188zm0 0" fill="#c70024"/><path d="m289.230469 226.425781c-4.402344-2.578125-9.523438-4.054687-14.996094-4.054687-16.421875 0-29.738281 13.316406-29.738281 29.742187 0 5.148438 1.308594 9.992188 3.613281 14.21875h29.992187c-2.304687-4.226562-3.613281-9.070312-3.613281-14.21875 0-10.957031 5.925781-20.527343 14.742188-25.6875zm0 0" fill="#ff7956"/><path d="m493.914062 295.585938-38.359374-14.171876-86.125 36.832032v-25.773438l-33.640626-33.640625h-178.5l-36.042968 22.503907h-121.246094v119.523437h122.511719l146.976562 35.089844 242.511719-103.765625zm-454.710937 90.277343h-24.207031v-89.53125h24.207031zm228.945313 34.347657-143.871094-34.347657h-70.078125v-89.53125h61.695312v37.300781h14.996094v-40.640624l30.695313-19.164063h167.992187l24.855469 24.855469v23.425781h-125.808594v14.996094h134.839844l92.496094-39.554688 27.15625 10.03125 8.421874 17.042969zm0 0"/><path d="m63.128906 219.847656 121.449219 32.542969 3.882813-14.488281-96.363282-25.820313 40.589844-40.589843-65.324219-17.53125 17.507813-17.507813 95.136718 24.859375-40.441406 40.441406 61.085938 16.929688 2.847656-5.234375c8.414062-15.46875 21.890625-27.941407 37.945312-35.113281l2.25-1.007813 38.75-68.457031h-57.195312l54.9375-93.875h24.753906l-39.039062 67.613281h57.414062l-50.804687 87.988281 11.304687 1.339844c25.820313 3.058594 48.683594 18.578125 61.160156 41.511719l2.847657 5.234375 61.082031-16.929688-40.4375-40.441406 95.132812-24.859375 17.511719 17.507813-65.328125 17.53125 40.59375 40.589843-102.367187 27.429688c.582031 7.738281 1.394531 14.847656-.402344 25.632812l14.792969 2.460938c.863281-5.191407 1.300781-10.496094 1.300781-15.765625 0-.335938 0-.671875-.003906-1.007813l115.652343-30.988281-40.601562-40.597656 65.328125-17.527344-41.945313-41.945312-128.765624 33.644531 40.753906 40.753906-25.003906 6.929687c-13.320313-21.199218-34.433594-36.308593-58.589844-42.101562l52.761718-91.386719h-57.414062l39.039062-67.613281h-59.328124l-72.488282 123.867188h57.625l-23.675781 41.828124c-16.234375 7.785157-30.09375 20.171876-39.6875 35.40625l-25.003906-6.929687 40.753906-40.753906-128.765625-33.644531-41.945312 41.945312 65.328124 17.527344zm0 0"/><path d="m237.703125 244.886719 14.714844 2.898437c2.042969-10.378906 11.21875-17.914062 21.816406-17.914062 10.601563 0 19.777344 7.535156 21.820313 17.914062l14.714843-2.898437c-3.425781-17.390625-18.789062-30.011719-36.535156-30.011719-17.742187 0-33.105469 12.621094-36.53125 30.011719zm0 0"/><path d="m376.003906 285.320312 38.382813-16.414062 28.15625 10.402344 5.195312-14.066406-33.757812-12.472657-43.875 18.761719zm0 0"/><path d="m352.34375 373.3125-5.898438-13.789062 66.398438-28.410157 5.898438 13.785157zm75.589844-32.34375-5.898438-13.789062 13.789063-5.898438 5.898437 13.785156zm22.980468-9.835938-5.898437-13.785156 13.785156-5.898437 5.898438 13.785156zm0 0" fill="#fff"/><path d="m322.328125 298.824219h-60.824219v-14.996094h60.824219zm-70.820313 0h-14.996093v-14.996094h14.996093zm-24.992187 0h-14.996094v-14.996094h14.996094zm0 0" fill="#fff"/><path d="m328.9375 242.582031c-1.886719-11.203125-7.132812-21.445312-15.167969-29.617187l10.691407-10.515625c10.199218 10.375 16.863281 23.390625 19.265624 37.640625zm-21.816406-35.390625c-3.550782-2.621094-7.40625-4.816406-11.457032-6.519531l5.816407-13.820313c5.144531 2.164063 10.039062 4.949219 14.550781 8.277344zm-19.800782-9.269531c-4.257812-1.03125-8.660156-1.554687-13.085937-1.554687v-14.996094c5.613281 0 11.207031.664062 16.621094 1.976562zm0 0" fill="#fff"/></svg>